<?xml version="1.0" encoding="UTF-8" standalone="no"?>
<!-- Created with Inkscape (http://www.inkscape.org/) -->

<svg
   width="210mm"
   height="297mm"
   viewBox="0 0 210 297"
   version="1.1"
   id="svg1"
   xml:space="preserve"
   inkscape:version="1.4.2 (f4327f4, 2025-05-13)"
   sodipodi:docname="stag_with_all_lines.svg"
   xmlns:inkscape="http://www.inkscape.org/namespaces/inkscape"
   xmlns:sodipodi="http://sodipodi.sourceforge.net/DTD/sodipodi-0.dtd"
   xmlns="http://www.w3.org/2000/svg"
   xmlns:svg="http://www.w3.org/2000/svg"><sodipodi:namedview
     id="namedview1"
     pagecolor="#ffffff"
     bordercolor="#000000"
     borderopacity="0.25"
     inkscape:showpageshadow="2"
     inkscape:pageopacity="0.0"
     inkscape:pagecheckerboard="0"
     inkscape:deskcolor="#d1d1d1"
     inkscape:document-units="mm"
     inkscape:zoom="0.64"
     inkscape:cx="-178.125"
     inkscape:cy="597.65625"
     inkscape:window-width="1920"
     inkscape:window-height="1129"
     inkscape:window-x="-8"
     inkscape:window-y="-2"
     inkscape:window-maximized="1"
     inkscape:current-layer="layer1" /><defs
     id="defs1" /><g
     inkscape:label="Ebene 1"
     inkscape:groupmode="layer"
     id="layer1"><g
       id="g1"
       transform="matrix(1.4419901,0,0,1.4419901,188.2909,2.2799826)"
       style="stroke:#0011ad;stroke-width:0.550455;stroke-dasharray:none;stroke-opacity:1"><g
         id="Farbfläche"
         style="stroke:#0011ad;stroke-width:0.550455;stroke-dasharray:none;stroke-opacity:1">
	<g
   id="g3"
   style="stroke:#0011ad;stroke-width:0.550455;stroke-dasharray:none;stroke-opacity:1">
		<path
   class="st0"
   d="m 85.5,104.43 10.74,20.74 c 0.01,0.02 0.02,0.02 0.04,0.04 0.01,0.01 0.02,0.02 0.03,0.03 0.05,0.04 0.1,0.06 0.16,0.06 h 5.17 l -9.13,70.72 -5.44,-7.11 3.09,-48.45 c 0,0 0,0 0,-0.01 0,0 0,0 0,-0.01 0,-0.02 0,-0.04 -0.01,-0.06 l -4.11,-17.21 z"
   id="path1"
   style="stroke:#0011ad;stroke-width:0.550455;stroke-dasharray:none;stroke-opacity:1" />
		<path
   class="st0"
   d="m 73.48,138.86 10.48,-4.02 c 0.1,-0.04 0.17,-0.14 0.16,-0.25 l -0.45,-8.92 1.97,-1.97 3.98,16.66 -23.28,21.85 z"
   id="path2"
   style="stroke:#0011ad;stroke-width:0.550455;stroke-dasharray:none;stroke-opacity:1" />
		<line
   class="st0"
   x1="89.629997"
   y1="140.37"
   x2="66.349998"
   y2="162.21001"
   id="line2"
   style="stroke:#0011ad;stroke-width:0.550455;stroke-dasharray:none;stroke-opacity:1" />
		<polygon
   class="st0"
   points="75.05,182.49 66.14,163.1 89.62,141.06 86.58,188.59 "
   id="polygon2"
   style="stroke:#0011ad;stroke-width:0.550455;stroke-dasharray:none;stroke-opacity:1" />
		<path
   class="st0"
   d="m 104.21,191.06 -11.23,5.19 9.16,-70.94 h 3.48 c 0.14,0 0.25,-0.11 0.25,-0.25 v -2.82 l 3.11,-5.38 6.86,49.61 z"
   id="path3"
   style="stroke:#0011ad;stroke-width:0.550455;stroke-dasharray:none;stroke-opacity:1" />
		<line
   class="st0"
   x1="115.84"
   y1="166.47"
   x2="104.21"
   y2="191.06"
   id="line3"
   style="stroke:#0011ad;stroke-width:0.550455;stroke-dasharray:none;stroke-opacity:1" />
		<polygon
   class="st0"
   points="112.32,181.61 105.42,189.67 116.29,166.67 122.78,162 121.07,174.64 "
   id="polygon3"
   style="stroke:#0011ad;stroke-width:0.550455;stroke-dasharray:none;stroke-opacity:1" />
	</g>
</g><g
         id="Kontur"
         style="stroke:#0011ad;stroke-width:0.550455;stroke-dasharray:none;stroke-opacity:1">
	<g
   id="g42"
   style="stroke:#0011ad;stroke-width:0.550455;stroke-dasharray:none;stroke-opacity:1">
		<path
   d="m 82.07,92.72 c -0.14,0 -0.25,-0.11 -0.25,-0.25 0,-0.14 0.11,-0.25 0.25,-0.25 l 11.97,-0.01 v 0 c 0.14,0 0.25,0.11 0.25,0.25 0,0.14 -0.11,0.25 -0.25,0.25 z"
   id="path4"
   style="stroke:#0011ad;stroke-width:0.550455;stroke-dasharray:none;stroke-opacity:1" />
		<path
   d="m 82.13,92.72 c -0.02,0 -0.04,0 -0.06,-0.01 -0.13,-0.03 -0.22,-0.17 -0.19,-0.3 L 84,83.29 86.33,78.63 c 0.02,-0.04 0.06,-0.08 0.1,-0.1 l 6.74,-3.91 c 0.04,-0.02 0.08,-0.04 0.13,-0.04 0,0 0,0 0,0 0,0 0,0 0,0 0,0 0,0 0,0 0,0 0,0 0,0 l 13.06,0.01 c 0.04,0 0.08,0.01 0.12,0.03 l 6.66,3.68 c 0.03,0.02 0.06,0.04 0.08,0.07 l 3.27,4.52 c 0.02,0.03 0.04,0.07 0.04,0.11 l 1.36,9.41 c 0.01,0.07 -0.01,0.14 -0.06,0.2 -0.05,0.05 -0.12,0.09 -0.19,0.09 h -9.92 c -0.07,0 -0.15,-0.03 -0.19,-0.09 l -14.3,-17.46 -6.49,3.77 -2.27,4.54 -2.09,9.06 c -0.03,0.12 -0.14,0.2 -0.25,0.2 z m 25.72,-0.51 h 9.51 l -1.31,-9.06 -3.2,-4.42 -6.55,-3.63 -12.47,-0.01 z"
   id="path5"
   style="stroke:#0011ad;stroke-width:0.550455;stroke-dasharray:none;stroke-opacity:1" />
		<path
   d="m 96.46,125.3 c -0.09,0 -0.18,-0.05 -0.22,-0.13 l -11.23,-21.7 c -0.06,-0.11 -0.03,-0.24 0.07,-0.31 0.1,-0.07 0.23,-0.07 0.32,0.02 L 95.83,113 88.08,92.55 c -0.05,-0.13 0.02,-0.27 0.15,-0.32 0.13,-0.05 0.27,0.02 0.32,0.14 l 8.14,21.47 c 0.04,0.11 0,0.23 -0.1,0.3 -0.09,0.07 -0.22,0.05 -0.31,-0.03 l -10.15,-9.57 10.56,20.4 c 0.06,0.12 0.02,0.27 -0.11,0.34 -0.04,0.01 -0.08,0.02 -0.12,0.02 z"
   id="path6"
   style="stroke:#0011ad;stroke-width:0.550455;stroke-dasharray:none;stroke-opacity:1" />
		<path
   d="m 96.45,114.18 c -0.14,0 -0.25,-0.11 -0.25,-0.25 0,-0.14 0.11,-0.25 0.25,-0.25 l 9.17,-0.1 c 0.13,0.02 0.25,0.11 0.25,0.25 0,0.14 -0.11,0.25 -0.25,0.25 z"
   id="path7"
   style="stroke:#0011ad;stroke-width:0.550455;stroke-dasharray:none;stroke-opacity:1" />
		<g
   id="g8"
   style="stroke:#0011ad;stroke-width:0.550455;stroke-dasharray:none;stroke-opacity:1">
			<path
   d="m 92.67,196.91 c -0.01,0 -0.02,0 -0.03,0 -0.14,-0.02 -0.23,-0.14 -0.22,-0.28 l 9.25,-71.61 c 0.02,-0.14 0.14,-0.23 0.28,-0.22 0.14,0.02 0.23,0.14 0.22,0.28 l -9.25,71.61 c -0.02,0.13 -0.13,0.22 -0.25,0.22 z"
   id="path8"
   style="stroke:#0011ad;stroke-width:0.550455;stroke-dasharray:none;stroke-opacity:1" />
		</g>
		<path
   d="m 116.1,166.75 c -0.12,0 -0.23,-0.09 -0.25,-0.22 l -6.97,-50.4 c -0.02,-0.14 0.08,-0.26 0.21,-0.28 0.13,-0.01 0.26,0.08 0.28,0.21 l 6.97,50.4 c 0.02,0.14 -0.08,0.26 -0.21,0.28 -0.01,0.01 -0.02,0.01 -0.03,0.01 z"
   id="path9"
   style="stroke:#0011ad;stroke-width:0.550455;stroke-dasharray:none;stroke-opacity:1" />
		<path
   d="m 104.4,191.49 c -0.04,0 -0.07,-0.01 -0.11,-0.02 -0.12,-0.06 -0.18,-0.21 -0.12,-0.33 l 11.7,-24.74 c 0.02,-0.04 0.05,-0.07 0.08,-0.1 l 7.02,-5.04 c 0.11,-0.08 0.27,-0.06 0.35,0.06 0.08,0.11 0.05,0.27 -0.06,0.35 l -6.96,5.01 -11.67,24.68 c -0.05,0.08 -0.14,0.13 -0.23,0.13 z"
   id="path10"
   style="stroke:#0011ad;stroke-width:0.550455;stroke-dasharray:none;stroke-opacity:1" />
		<path
   d="m 86.81,189.24 c -0.01,0 -0.01,0 -0.02,0 -0.14,-0.01 -0.24,-0.13 -0.23,-0.26 l 3.1,-48.5 -4.11,-17.2 c -0.03,-0.13 0.05,-0.27 0.19,-0.3 0.14,-0.04 0.27,0.05 0.3,0.19 l 4.11,17.24 c 0.01,0.02 0.01,0.05 0.01,0.07 L 87.06,189 c -0.01,0.14 -0.12,0.24 -0.25,0.24 z"
   id="path11"
   style="stroke:#0011ad;stroke-width:0.550455;stroke-dasharray:none;stroke-opacity:1" />
		<path
   d="m 105.62,125.3 h -9.16 c -0.14,0 -0.25,-0.11 -0.25,-0.25 L 96.2,113.93 93.8,92.49 c -0.01,-0.06 0.01,-0.12 0.04,-0.17 l 12.31,-17.61 c 0.08,-0.11 0.24,-0.14 0.35,-0.06 0.11,0.08 0.14,0.24 0.06,0.35 l -12.25,17.53 2.39,21.37 0.01,10.9 h 8.66 v -10.97 l 2.11,-21.39 c 0.01,-0.14 0.14,-0.24 0.27,-0.22 0.14,0.01 0.24,0.14 0.22,0.27 l -2.11,21.37 v 11.2 c 0.01,0.13 -0.1,0.24 -0.24,0.24 z"
   id="path12"
   style="stroke:#0011ad;stroke-width:0.550455;stroke-dasharray:none;stroke-opacity:1" />
		<g
   id="g13"
   style="stroke:#0011ad;stroke-width:0.550455;stroke-dasharray:none;stroke-opacity:1">
			<path
   d="m 117.65,92.71 c -0.05,0 -0.1,-0.01 -0.15,-0.05 -0.11,-0.08 -0.14,-0.24 -0.06,-0.35 l 8.31,-11.7 c 0.02,-0.03 0.04,-0.05 0.07,-0.07 l 13.68,-8.25 c 0.12,-0.07 0.27,-0.03 0.34,0.08 0.07,0.12 0.03,0.27 -0.08,0.34 l -13.64,8.22 -8.28,11.66 c -0.04,0.09 -0.12,0.12 -0.19,0.12 z"
   id="path13"
   style="stroke:#0011ad;stroke-width:0.550455;stroke-dasharray:none;stroke-opacity:1" />
		</g>
		<path
   d="m 121.54,87.51 c -0.14,0 -0.25,-0.11 -0.25,-0.25 0,-0.14 0.11,-0.25 0.25,-0.25 l 12.67,-0.1 c 0,0 0,0 0,0 0.14,0 0.25,0.11 0.25,0.25 0,0.14 -0.11,0.25 -0.25,0.25 z"
   id="path14"
   style="stroke:#0011ad;stroke-width:0.550455;stroke-dasharray:none;stroke-opacity:1" />
		<path
   d="m 117.65,92.71 c -0.13,0 -0.24,-0.1 -0.25,-0.23 -0.01,-0.14 0.09,-0.26 0.22,-0.27 l 9.59,-0.96 6.9,-4.14 5.23,-14.32 -15.13,3.69 -7.75,6.76 c -0.1,0.09 -0.26,0.08 -0.35,-0.02 -0.09,-0.1 -0.08,-0.26 0.02,-0.35 l 7.8,-6.8 c 0.03,-0.03 0.07,-0.04 0.11,-0.05 l 15.64,-3.81 c 0.09,-0.02 0.18,0.01 0.25,0.08 0.06,0.07 0.08,0.17 0.05,0.25 l -5.42,14.84 c -0.02,0.05 -0.06,0.1 -0.11,0.13 l -7.02,4.21 c -0.03,0.02 -0.07,0.03 -0.1,0.04 l -9.65,0.96 c -0.02,-0.01 -0.03,-0.01 -0.03,-0.01 z"
   id="path15"
   style="stroke:#0011ad;stroke-width:0.550455;stroke-dasharray:none;stroke-opacity:1" />
		<g
   id="g16"
   style="stroke:#0011ad;stroke-width:0.550455;stroke-dasharray:none;stroke-opacity:1">
			<path
   d="m 82.13,92.72 c -0.08,0 -0.16,-0.04 -0.21,-0.11 L 74.23,80.95 60.51,72.66 c -0.12,-0.07 -0.16,-0.22 -0.08,-0.34 0.07,-0.12 0.23,-0.15 0.34,-0.08 l 13.77,8.32 c 0.03,0.02 0.06,0.04 0.08,0.08 l 7.72,11.71 c 0.08,0.12 0.04,0.27 -0.07,0.35 -0.04,0.01 -0.09,0.02 -0.14,0.02 z"
   id="path16"
   style="stroke:#0011ad;stroke-width:0.550455;stroke-dasharray:none;stroke-opacity:1" />
		</g>
		<path
   d="m 66.06,87.53 c -0.14,0 -0.25,-0.11 -0.25,-0.25 0,-0.14 0.11,-0.25 0.25,-0.25 l 12.63,-0.02 v 0 c 0.14,0 0.25,0.11 0.25,0.25 0,0.14 -0.11,0.25 -0.25,0.25 z"
   id="path17"
   style="stroke:#0011ad;stroke-width:0.550455;stroke-dasharray:none;stroke-opacity:1" />
		<path
   d="m 82.13,92.72 c -0.01,0 -0.02,0 -0.03,0 l -9,-0.97 c -0.04,0 -0.07,-0.02 -0.1,-0.03 L 65.92,87.51 C 65.87,87.48 65.83,87.43 65.81,87.38 L 60.39,72.54 c -0.03,-0.09 -0.01,-0.18 0.05,-0.25 0.06,-0.07 0.16,-0.1 0.25,-0.08 l 15.64,3.81 c 0.04,0.01 0.08,0.03 0.11,0.06 l 7.96,7.1 c 0.1,0.09 0.11,0.25 0.02,0.35 -0.09,0.1 -0.25,0.11 -0.35,0.02 l -7.91,-7.06 -15.13,-3.69 5.23,14.32 6.95,4.14 8.94,0.97 c 0.14,0.02 0.24,0.14 0.22,0.28 0,0.11 -0.11,0.21 -0.24,0.21 z"
   id="path18"
   style="stroke:#0011ad;stroke-width:0.550455;stroke-dasharray:none;stroke-opacity:1" />
		<g
   id="g19"
   style="stroke:#0011ad;stroke-width:0.550455;stroke-dasharray:none;stroke-opacity:1">
			<path
   d="m 74.74,182.89 c -0.05,-0.03 -0.09,-0.07 -0.11,-0.12 l -9.02,-19.63 c -0.03,-0.06 -0.03,-0.12 -0.01,-0.18 l 7.44,-24.37 c 0.02,-0.07 0.08,-0.13 0.15,-0.16 l 10.43,-4 -0.44,-8.84 c 0,-0.07 0.02,-0.14 0.07,-0.19 l 2.29,-2.29 -0.56,-19.75 -3.09,-10.82 c -0.04,-0.13 0.04,-0.27 0.17,-0.31 0.13,-0.04 0.27,0.04 0.31,0.17 l 3.1,10.88 0.57,19.92 c 0,0.07 -0.02,0.13 -0.07,0.18 l -2.29,2.29 0.45,8.92 c 0.01,0.11 -0.06,0.21 -0.16,0.25 l -10.48,4.02 -7.38,24.16 8.94,19.47 11.88,6.28 c 0.03,0.02 -0.624194,-0.21341 -0.604194,-0.18341 L 92.75,196.35 l 11.49,-5.31 8.08,-9.44 8.75,-6.96 1.78,-13.16 -5.62,-18.45 c -0.01,-0.03 -0.01,-0.05 -0.01,-0.08 L 117.9,124.9 114.75,106 v -0.09 l 2.65,-13.49 c 0.03,-0.14 0.16,-0.22 0.29,-0.2 0.14,0.03 0.22,0.16 0.2,0.29 l -2.64,13.44 3.15,18.91 -0.67,18.06 5.62,18.46 c 0.01,0.04 0.01,0.07 0.01,0.11 l -1.8,13.31 c -0.01,0.06 -0.04,0.12 -0.09,0.16 0,0 -40.369147,11.26119 -46.73,7.93 z"
   id="path19"
   style="stroke:#0011ad;stroke-width:0.550455;stroke-dasharray:none;stroke-opacity:1"
   sodipodi:nodetypes="ccccccccscccscccsccccccccccccccccccccccccccccc" />
		</g>
		<path
   d="m 105.62,122.41 c -0.04,0 -0.09,-0.01 -0.12,-0.03 -0.12,-0.07 -0.16,-0.22 -0.09,-0.34 l 8.66,-14.98 -8.28,6.96 c -0.09,0.08 -0.22,0.08 -0.31,0.01 -0.09,-0.07 -0.13,-0.19 -0.08,-0.3 l 8.79,-21.37 c 0.05,-0.13 0.2,-0.19 0.33,-0.14 0.13,0.05 0.19,0.2 0.14,0.33 l -8.41,20.42 8.59,-7.23 c 0.09,-0.08 0.23,-0.08 0.32,0 0.09,0.08 0.12,0.21 0.06,0.32 l -9.37,16.21 c -0.06,0.1 -0.14,0.14 -0.23,0.14 z"
   id="path20"
   style="stroke:#0011ad;stroke-width:0.550455;stroke-dasharray:none;stroke-opacity:1" />
		<path
   d="m 65.84,163.29 c -0.07,0 -0.13,-0.03 -0.18,-0.08 -0.09,-0.1 -0.09,-0.26 0.01,-0.35 l 24.07,-22.59 c 0.1,-0.09 0.26,-0.09 0.35,0.01 0.09,0.1 0.09,0.26 -0.01,0.35 l -24.07,22.59 c -0.05,0.05 -0.11,0.07 -0.17,0.07 z"
   id="path21"
   style="stroke:#0011ad;stroke-width:0.550455;stroke-dasharray:none;stroke-opacity:1" />
		<path
   d="m 125.29,68.58 c -0.06,0 -0.12,-0.02 -0.17,-0.06 -0.1,-0.09 -0.11,-0.25 -0.02,-0.35 l 6.99,-7.9 c 0.09,-0.1 0.25,-0.11 0.35,-0.02 0.1,0.09 0.11,0.25 0.02,0.35 l -6.99,7.9 c -0.05,0.06 -0.12,0.08 -0.18,0.08 z"
   id="path22"
   style="stroke:#0011ad;stroke-width:0.550455;stroke-dasharray:none;stroke-opacity:1" />
		<path
   d="m 150.09,43.64 c -0.12,0 -0.22,-0.08 -0.25,-0.2 -0.03,-0.14 0.06,-0.27 0.2,-0.29 l 9.06,-1.71 -2.54,-24.26 c -0.01,-0.14 0.08,-0.26 0.22,-0.27 0.13,-0.02 0.26,0.09 0.27,0.22 l 2.56,24.49 c 0.01,0.13 -0.07,0.25 -0.2,0.27 l -9.28,1.75 c -0.01,-0.01 -0.03,0 -0.04,0 z"
   id="path23"
   style="stroke:#0011ad;stroke-width:0.550455;stroke-dasharray:none;stroke-opacity:1" />
		<path
   d="m 159.37,41.88 c -0.07,0 -0.14,-0.03 -0.19,-0.09 L 145.5,25.53 c -0.09,-0.11 -0.08,-0.26 0.03,-0.35 0.11,-0.09 0.26,-0.07 0.35,0.03 l 13.68,16.26 c 0.09,0.11 0.08,0.26 -0.03,0.35 -0.04,0.04 -0.1,0.06 -0.16,0.06 z"
   id="path24"
   style="stroke:#0011ad;stroke-width:0.550455;stroke-dasharray:none;stroke-opacity:1" />
		<path
   d="m 109.47,66.74 c -0.05,0 -0.1,-0.02 -0.15,-0.05 -0.11,-0.08 -0.13,-0.24 -0.05,-0.35 L 119.9,52.17 c 0.08,-0.11 0.24,-0.13 0.35,-0.05 0.11,0.08 0.13,0.24 0.05,0.35 l -10.63,14.17 c -0.05,0.06 -0.12,0.1 -0.2,0.1 z"
   id="path25"
   style="stroke:#0011ad;stroke-width:0.550455;stroke-dasharray:none;stroke-opacity:1" />
		<path
   d="m 114.91,52.11 c -0.02,0 -0.05,0 -0.08,-0.01 -0.13,-0.04 -0.2,-0.18 -0.16,-0.31 l 4.2,-13.2 c 0.04,-0.13 0.18,-0.2 0.31,-0.16 0.13,0.04 0.2,0.18 0.16,0.31 l -4.2,13.2 c -0.02,0.1 -0.12,0.17 -0.23,0.17 z"
   id="path26"
   style="stroke:#0011ad;stroke-width:0.550455;stroke-dasharray:none;stroke-opacity:1" />
		<g
   id="g27"
   style="stroke:#0011ad;stroke-width:0.550455;stroke-dasharray:none;stroke-opacity:1">
			<path
   d="m 159.37,41.88 c -0.1,0 -0.2,-0.06 -0.24,-0.17 -0.05,-0.13 0.02,-0.27 0.15,-0.32 l 6.89,-2.41 3.87,-6.4 -6.47,4.58 c -0.11,0.08 -0.26,0.05 -0.34,-0.05 l -1.99,-2.53 c -0.08,-0.11 -0.07,-0.27 0.04,-0.35 0.11,-0.08 0.27,-0.07 0.35,0.04 l 1.84,2.35 7.26,-5.14 c 0.1,-0.07 0.23,-0.06 0.31,0.02 0.09,0.08 0.1,0.21 0.04,0.31 l -4.54,7.5 c -0.03,0.05 -0.08,0.09 -0.13,0.11 l -6.98,2.44 c 0,0.02 -0.03,0.02 -0.06,0.02 z"
   id="path27"
   style="stroke:#0011ad;stroke-width:0.550455;stroke-dasharray:none;stroke-opacity:1" />
		</g>
		<path
   d="m 114.85,44.62 c -0.06,0 -0.13,-0.02 -0.17,-0.07 l -2.26,-2.21 c -0.03,-0.03 -0.05,-0.06 -0.06,-0.1 l -2.27,-6.73 c -0.03,-0.1 0,-0.21 0.08,-0.27 0.08,-0.07 0.19,-0.07 0.28,-0.02 l 4.47,2.57 c 0.12,0.07 0.16,0.22 0.09,0.34 -0.07,0.12 -0.22,0.16 -0.34,0.09 l -3.9,-2.24 2.04,6.05 2.21,2.17 c 0.1,0.1 0.1,0.25 0,0.35 -0.04,0.04 -0.11,0.07 -0.17,0.07 z"
   id="path28"
   style="stroke:#0011ad;stroke-width:0.550455;stroke-dasharray:none;stroke-opacity:1" />
		<path
   d="m 107.87,71.03 c -0.09,0 -0.17,-0.05 -0.22,-0.13 L 106,67.97 c -0.02,-0.03 -0.03,-0.07 -0.03,-0.1 l -0.4,-5.27 c -0.01,-0.11 0.05,-0.21 0.15,-0.25 0.1,-0.04 0.21,-0.02 0.28,0.06 l 3.65,3.91 c 0.09,0.1 0.09,0.26 -0.01,0.35 -0.1,0.09 -0.26,0.09 -0.35,-0.01 l -3.17,-3.39 0.34,4.51 1.63,2.88 c 0.07,0.12 0.03,0.27 -0.09,0.34 -0.04,0.02 -0.09,0.03 -0.13,0.03 z"
   id="path29"
   style="stroke:#0011ad;stroke-width:0.550455;stroke-dasharray:none;stroke-opacity:1" />
		<path
   d="m 143.69,49.76 c -0.09,0 -0.18,-0.05 -0.22,-0.13 l -1.62,-3.12 c -0.04,-0.07 -0.04,-0.15 -0.01,-0.22 l 2.85,-6.21 c 0.05,-0.1 0.15,-0.15 0.26,-0.14 0.11,0.01 0.2,0.1 0.21,0.21 l 1.19,7.01 c 0.02,0.14 -0.07,0.27 -0.2,0.29 -0.13,0.03 -0.26,-0.07 -0.29,-0.2 l -1.06,-6.21 -2.46,5.36 1.57,3.01 c 0.06,0.12 0.02,0.27 -0.11,0.34 -0.03,0 -0.07,0.01 -0.11,0.01 z"
   id="path30"
   style="stroke:#0011ad;stroke-width:0.550455;stroke-dasharray:none;stroke-opacity:1" />
		<g
   id="g31"
   style="stroke:#0011ad;stroke-width:0.550455;stroke-dasharray:none;stroke-opacity:1">
			<path
   d="m 113.01,78.79 c -0.07,0 -0.14,-0.03 -0.19,-0.09 -0.09,-0.11 -0.07,-0.26 0.03,-0.35 l 12.27,-10.2 c 0.02,-0.02 0.05,-0.04 0.08,-0.04 l 11.9,-3.99 7.94,-8.65 c 0.05,-0.05 0.13,-0.08 0.19,-0.08 l 4.94,0.21 4.86,-3.33 -6.18,0.77 c -0.11,0.01 -0.21,-0.04 -0.25,-0.13 -0.05,-0.09 -0.03,-0.21 0.04,-0.29 l 10.49,-11.1 4.22,-14.64 c 0.01,-0.04 0.04,-0.08 0.07,-0.11 l 2.89,-2.75 -0.31,-5.66 -3.5,2.93 c -0.08,0.06 -0.18,0.08 -0.27,0.03 -0.09,-0.04 -0.14,-0.14 -0.14,-0.23 l 0.38,-10.1 -8.78,-8.58 3.37,14.67 c 0.01,0.03 0.01,0.07 0,0.1 l -2.55,14.17 c -0.02,0.1 -0.09,0.18 -0.19,0.2 -0.1,0.02 -0.2,-0.02 -0.26,-0.1 l -7.35,-10.78 -0.75,4.74 c -0.01,0.08 -0.07,0.16 -0.15,0.19 -0.08,0.03 -0.17,0.03 -0.24,-0.02 l -14.03,-9.74 8.13,13.35 12.55,3.61 c 0.12,0.04 0.2,0.16 0.18,0.29 l -2.05,10.36 c -0.01,0.05 -0.04,0.1 -0.07,0.13 l -17.81,17.05 c -0.03,0.02 -0.06,0.04 -0.09,0.06 l -12.8,4.49 -4.69,4.7 c -0.08,0.08 -0.21,0.1 -0.31,0.04 -0.1,-0.06 -0.14,-0.18 -0.11,-0.29 l 5.4,-17.34 0.13,-7.08 c 0,-0.04 0.01,-0.07 0.03,-0.11 l 6.23,-12.68 -6.95,6.43 c -0.06,0.06 -0.15,0.08 -0.23,0.06 -0.08,-0.02 -0.15,-0.08 -0.17,-0.16 l -3.92,-12.1 0.21,25.23 c 0,0.03 0,0.06 -0.02,0.09 l -8.55,22.99 c -0.05,0.13 -0.19,0.2 -0.32,0.15 -0.13,-0.05 -0.19,-0.19 -0.15,-0.32 l 8.54,-22.95 -0.22,-26.81 c 0,-0.12 0.09,-0.23 0.21,-0.25 0.13,-0.02 0.24,0.05 0.28,0.17 l 4.3,13.28 7.65,-7.08 c 0.09,-0.08 0.22,-0.09 0.32,-0.02 0.1,0.07 0.13,0.2 0.08,0.31 l -6.8,13.84 -0.12,7.06 c 0,0.02 0,0.05 -0.01,0.07 l -5.11,16.41 4.02,-4.02 c 0.03,-0.03 0.06,-0.05 0.09,-0.06 l 12.8,-4.49 17.72,-16.96 1.99,-10.05 -12.43,-3.57 c -0.06,-0.02 -0.11,-0.06 -0.14,-0.11 l -8.79,-14.44 c -0.06,-0.1 -0.04,-0.23 0.04,-0.31 0.09,-0.08 0.22,-0.09 0.31,-0.02 l 14.67,10.19 0.79,-4.97 c 0.02,-0.1 0.09,-0.18 0.19,-0.21 0.1,-0.02 0.2,0.02 0.26,0.1 l 7.36,10.8 2.43,-13.52 L 153,1.7 c -0.02,-0.11 0.02,-0.22 0.12,-0.27 0.1,-0.05 0.22,-0.04 0.3,0.04 l 9.47,9.25 c 0.05,0.05 0.08,0.12 0.08,0.19 l -0.36,9.65 3.45,-2.89 c 0.07,-0.06 0.17,-0.07 0.26,-0.04 0.09,0.04 0.15,0.12 0.15,0.21 l 0.38,6.25 c 0,0.07 -0.02,0.15 -0.08,0.2 l -2.93,2.78 -4.22,14.63 c -0.01,0.04 -0.03,0.07 -0.06,0.1 l -10.05,10.63 6.51,-0.81 c 0.12,-0.01 0.22,0.05 0.27,0.16 0.04,0.11 0,0.23 -0.09,0.29 l -5.78,3.96 c -0.04,0.03 -0.1,0.04 -0.15,0.04 l -4.91,-0.2 -7.91,8.62 c -0.03,0.03 -0.06,0.05 -0.1,0.07 l -11.92,4 -12.24,10.17 c -0.06,0.04 -0.12,0.06 -0.18,0.06 z"
   id="path31"
   style="stroke:#0011ad;stroke-width:0.550455;stroke-dasharray:none;stroke-opacity:1" />
		</g>
		<path
   d="m 74.35,68.58 c -0.07,0 -0.14,-0.03 -0.19,-0.08 l -6.99,-7.9 c -0.09,-0.1 -0.08,-0.26 0.02,-0.35 0.1,-0.09 0.26,-0.08 0.35,0.02 l 6.99,7.9 c 0.09,0.1 0.08,0.26 -0.02,0.35 -0.05,0.04 -0.1,0.06 -0.16,0.06 z"
   id="path32"
   style="stroke:#0011ad;stroke-width:0.550455;stroke-dasharray:none;stroke-opacity:1" />
		<path
   d="m 49.54,43.64 c -0.02,0 -0.03,0 -0.05,0 l -9.28,-1.75 c -0.13,-0.02 -0.22,-0.14 -0.2,-0.27 l 2.56,-24.49 c 0.01,-0.14 0.13,-0.24 0.27,-0.22 0.14,0.01 0.24,0.14 0.22,0.27 l -2.54,24.26 9.06,1.71 c 0.14,0.03 0.23,0.16 0.2,0.29 -0.01,0.11 -0.12,0.2 -0.24,0.2 z"
   id="path33"
   style="stroke:#0011ad;stroke-width:0.550455;stroke-dasharray:none;stroke-opacity:1" />
		<path
   d="m 40.26,41.88 c -0.06,0 -0.11,-0.02 -0.16,-0.06 -0.11,-0.09 -0.12,-0.25 -0.03,-0.35 L 53.75,25.21 c 0.09,-0.11 0.25,-0.12 0.35,-0.03 0.11,0.09 0.12,0.25 0.03,0.35 L 40.45,41.79 c -0.05,0.06 -0.12,0.09 -0.19,0.09 z"
   id="path34"
   style="stroke:#0011ad;stroke-width:0.550455;stroke-dasharray:none;stroke-opacity:1" />
		<path
   d="m 90.17,66.73 c -0.08,0 -0.15,-0.03 -0.2,-0.1 L 79.33,52.46 c -0.08,-0.11 -0.06,-0.27 0.05,-0.35 0.11,-0.08 0.27,-0.06 0.35,0.05 l 10.64,14.16 c 0.08,0.11 0.06,0.27 -0.05,0.35 -0.04,0.04 -0.09,0.06 -0.15,0.06 z"
   id="path35"
   style="stroke:#0011ad;stroke-width:0.550455;stroke-dasharray:none;stroke-opacity:1" />
		<path
   d="m 84.72,52.11 c -0.11,0 -0.2,-0.07 -0.24,-0.17 l -4.19,-13.2 c -0.04,-0.13 0.03,-0.27 0.16,-0.31 0.13,-0.04 0.27,0.03 0.31,0.16 l 4.19,13.2 c 0.04,0.13 -0.03,0.27 -0.16,0.31 -0.02,0.01 -0.05,0.01 -0.07,0.01 z"
   id="path36"
   style="stroke:#0011ad;stroke-width:0.550455;stroke-dasharray:none;stroke-opacity:1" />
		<g
   id="g37"
   style="stroke:#0011ad;stroke-width:0.550455;stroke-dasharray:none;stroke-opacity:1">
			<path
   d="m 40.26,41.88 c -0.03,0 -0.06,0 -0.08,-0.01 L 33.2,39.43 c -0.05,-0.02 -0.1,-0.06 -0.13,-0.11 l -4.54,-7.5 c -0.06,-0.1 -0.04,-0.23 0.04,-0.31 0.09,-0.08 0.22,-0.09 0.31,-0.02 l 7.26,5.14 1.84,-2.35 c 0.09,-0.11 0.24,-0.13 0.35,-0.04 0.11,0.09 0.13,0.24 0.04,0.35 l -1.99,2.53 c -0.08,0.1 -0.23,0.13 -0.34,0.05 l -6.47,-4.58 3.87,6.4 6.89,2.41 c 0.13,0.05 0.2,0.19 0.15,0.32 -0.02,0.1 -0.12,0.16 -0.22,0.16 z"
   id="path37"
   style="stroke:#0011ad;stroke-width:0.550455;stroke-dasharray:none;stroke-opacity:1" />
		</g>
		<path
   d="m 84.78,44.62 c -0.06,0 -0.13,-0.03 -0.18,-0.08 -0.1,-0.1 -0.09,-0.26 0,-0.35 l 2.21,-2.17 2.04,-6.05 -3.9,2.24 C 84.83,38.28 84.68,38.24 84.61,38.12 84.54,38 84.58,37.85 84.7,37.78 l 4.47,-2.57 c 0.09,-0.05 0.2,-0.04 0.28,0.02 0.08,0.07 0.11,0.17 0.08,0.27 l -2.27,6.73 c -0.01,0.04 -0.03,0.07 -0.06,0.1 l -2.26,2.21 c -0.03,0.05 -0.09,0.08 -0.16,0.08 z"
   id="path38"
   style="stroke:#0011ad;stroke-width:0.550455;stroke-dasharray:none;stroke-opacity:1" />
		<path
   d="m 91.77,71.01 c -0.04,0 -0.08,-0.01 -0.12,-0.03 -0.12,-0.07 -0.16,-0.22 -0.09,-0.34 l 1.62,-2.86 0.34,-4.51 -3.16,3.38 c -0.09,0.1 -0.25,0.11 -0.35,0.01 C 89.91,66.57 89.9,66.41 90,66.31 l 3.64,-3.9 c 0.07,-0.08 0.19,-0.1 0.28,-0.06 0.1,0.04 0.16,0.14 0.15,0.25 l -0.4,5.27 c 0,0.04 -0.01,0.07 -0.03,0.1 l -1.65,2.91 c -0.05,0.08 -0.13,0.13 -0.22,0.13 z"
   id="path39"
   style="stroke:#0011ad;stroke-width:0.550455;stroke-dasharray:none;stroke-opacity:1" />
		<path
   d="m 55.94,49.76 c -0.04,0 -0.08,-0.01 -0.12,-0.03 -0.12,-0.06 -0.17,-0.21 -0.11,-0.34 l 1.57,-3.01 -2.46,-5.36 -1.06,6.21 c -0.02,0.14 -0.15,0.23 -0.29,0.2 -0.14,-0.02 -0.23,-0.15 -0.2,-0.29 l 1.19,-7.01 c 0.02,-0.11 0.1,-0.19 0.21,-0.21 0.11,-0.01 0.21,0.04 0.26,0.14 l 2.85,6.21 c 0.03,0.07 0.03,0.15 -0.01,0.22 l -1.62,3.12 c -0.03,0.1 -0.12,0.15 -0.21,0.15 z"
   id="path40"
   style="stroke:#0011ad;stroke-width:0.550455;stroke-dasharray:none;stroke-opacity:1" />
		<g
   id="g41"
   style="stroke:#0011ad;stroke-width:0.550455;stroke-dasharray:none;stroke-opacity:1">
			<path
   d="m 86.55,79 c -0.06,0 -0.12,-0.02 -0.16,-0.06 L 74.22,68.56 62.3,64.56 c -0.04,-0.01 -0.08,-0.04 -0.1,-0.07 l -7.91,-8.62 -4.91,0.2 c -0.05,0 -0.11,-0.01 -0.15,-0.04 L 43.45,52.07 C 43.35,52 43.32,51.88 43.36,51.78 43.4,51.67 43.5,51.61 43.63,51.62 L 50.14,52.43 40.08,41.8 C 40.05,41.77 40.03,41.74 40.02,41.7 L 35.8,27.07 32.87,24.29 c -0.05,-0.05 -0.08,-0.12 -0.08,-0.2 l 0.38,-6.25 c 0.01,-0.09 0.06,-0.18 0.15,-0.21 0.09,-0.03 0.19,-0.02 0.26,0.04 l 3.45,2.89 -0.36,-9.65 c 0,-0.07 0.02,-0.14 0.08,-0.19 l 9.47,-9.25 c 0.08,-0.08 0.2,-0.09 0.3,-0.04 0.1,0.05 0.15,0.17 0.12,0.27 l -3.55,15.45 2.43,13.52 7.37,-10.8 c 0.06,-0.08 0.16,-0.13 0.26,-0.1 0.1,0.02 0.18,0.1 0.19,0.21 l 0.79,4.97 14.67,-10.19 c 0.1,-0.07 0.23,-0.06 0.31,0.02 0.09,0.08 0.1,0.21 0.04,0.31 l -8.79,14.44 c -0.03,0.05 -0.08,0.09 -0.14,0.11 l -12.43,3.57 1.99,10.05 17.72,16.96 12.8,4.49 c 0.04,0.01 0.07,0.03 0.09,0.06 l 4.02,4.02 -5.11,-16.41 c -0.01,-0.02 -0.01,-0.05 -0.01,-0.07 l -0.12,-7.06 -6.8,-13.84 c -0.05,-0.11 -0.02,-0.24 0.08,-0.31 0.1,-0.07 0.23,-0.07 0.32,0.02 l 7.65,7.1 4.3,-13.3 c 0.04,-0.12 0.15,-0.19 0.28,-0.17 0.12,0.02 0.21,0.12 0.21,0.25 l -0.22,26.81 8.56,22.93 c 0.05,0.13 -0.02,0.27 -0.15,0.32 -0.13,0.05 -0.27,-0.02 -0.32,-0.15 L 84.5,51.93 C 84.49,51.9 84.48,51.87 84.48,51.84 l 0.21,-25.22 -3.92,12.12 c -0.03,0.08 -0.09,0.14 -0.17,0.16 -0.08,0.02 -0.17,0 -0.23,-0.06 l -6.95,-6.45 6.23,12.67 c 0.02,0.03 0.02,0.07 0.03,0.11 l 0.13,7.08 5.4,17.34 c 0.03,0.11 -0.01,0.23 -0.11,0.29 -0.1,0.06 -0.23,0.04 -0.31,-0.04 L 80.1,65.14 67.3,60.65 C 67.27,60.64 67.24,60.62 67.21,60.59 L 49.37,43.57 C 49.33,43.53 49.31,43.49 49.3,43.44 L 47.25,33.08 c -0.03,-0.13 0.05,-0.25 0.18,-0.29 l 12.55,-3.61 8.13,-13.35 -14.03,9.74 c -0.07,0.05 -0.16,0.06 -0.24,0.02 -0.08,-0.03 -0.14,-0.11 -0.15,-0.19 l -0.75,-4.74 -7.35,10.78 c -0.06,0.08 -0.16,0.12 -0.26,0.1 -0.1,-0.02 -0.18,-0.1 -0.19,-0.2 L 42.59,17.17 c -0.01,-0.03 0,-0.07 0,-0.1 l 3.37,-14.67 -8.78,8.58 0.38,10.1 c 0,0.1 -0.05,0.19 -0.14,0.23 -0.09,0.04 -0.19,0.03 -0.27,-0.03 l -3.5,-2.93 -0.34,5.64 2.89,2.75 c 0.03,0.03 0.06,0.07 0.07,0.11 l 4.22,14.64 10.49,11.1 c 0.07,0.08 0.09,0.19 0.04,0.29 -0.05,0.09 -0.15,0.15 -0.25,0.13 l -6.18,-0.77 4.86,3.33 4.94,-0.21 c 0.08,0 0.15,0.03 0.19,0.08 l 7.94,8.65 11.9,3.99 c 0.03,0.01 0.06,0.03 0.08,0.05 l 12.21,10.41 c 0.1,0.09 0.12,0.25 0.03,0.35 C 86.69,78.97 86.62,79 86.55,79 Z"
   id="path41"
   style="stroke:#0011ad;stroke-width:0.550455;stroke-dasharray:none;stroke-opacity:1" />
		</g>
	</g>
</g></g><path
       style="fill:#000000;fill-opacity:0.0692308;stroke-width:0.88194444;stroke-dasharray:none;stroke:#000000;stroke-opacity:1"
       d="m 95.11654,293.10391 -8.65194,-11.14658 -17.3183,-9.24314 -13.00675,-28.30627 10.71399,-35.40086 15.25625,-5.99868 -0.63447,-12.74719 3.4031,-3.57614 -0.80752,-28.4793 -4.41249,-15.50139 -12.86255,-1.28337 -10.36791,-6.25824 -7.75791,-21.71637 0.37492,-0.15862 22.55273,5.49398 11.63686,10.32465 2.78304,-6.56105 -17.4625,-14.52085 -17.33272,-5.8689 -11.40614,-12.429936 -7.29647,0.23072 -8.33471,-5.71029 -0.12978,-0.41817 0.38934,-0.23072 9.38736,1.16801 -14.36223,-15.22741 -10.0650905,-3.51846 -6.734091,-10.97355 0.0577,-0.44701 0.44702,-0.0288 10.4688415,7.41183 2.55233,-3.23727 -3.0426,-10.54816 -4.2250305,-4.008733 -0.11536,-0.288398 0.54795,-9.012436 0.2163,-0.302818 5.3497905,4.22503 -0.51912,-13.915204 13.771,-13.612386 0.4326,-0.05768 0.17304,0.389337 -5.16232,22.322006 3.54729,19.452452 10.62747,-15.573499 0.37492,-0.144198 1.41315,7.469508 21.15399,-14.693879 0.44702,0.02884 0.0577,0.447017 -12.67509,20.822341 -18.12582,5.30652 2.86956,14.492 5.14827,4.91322 1.60024,-9.42665 0.30282,-0.30282 0.37492,0.20188 4.10967,8.95476 -0.0144,0.31724 -2.19468,4.26916 16.28292,15.60146 18.3998,6.402426 5.92658,5.88332 -7.38299,-23.763986 -0.17304,-10.18045 -9.80553,-19.95714 0.11536,-0.44702 0.46143,0.0288 11.03123,10.23813 6.20055,-19.178471 0.40376,-0.245139 0.30282,0.360498 -0.14954,18.223012 5.85982,-3.50029 0.40376,0.0288 0.11536,0.38933 -3.35984,9.8488 -3.07766,3.00956 -0.10914,10.6605 7.65104,20.495136 4.82217,-5.210036 0.40376,-0.0865 0.2163,0.3605 -0.62006,7.743476 -2.28962,4.03806 2.09301,5.54518 18.34262,-0.0374 2.0216,-5.39226 -2.38789,-4.29776 -0.57679,-7.599276 0.2163,-0.3605 0.40375,0.0865 4.93424,5.285706 7.61108,-20.527546 -0.0288,-10.51211 -3.34542,-3.331 -3.27332,-9.70459 0.11536,-0.38933 0.40376,-0.0288 5.98653,3.44192 -0.17531,-18.135803 0.30282,-0.360498 0.40376,0.24514 6.20055,19.149631 11.03123,-10.20929 0.46143,-0.0288 0.11536,0.44702 -9.80553,19.95714 -0.18746,10.28139 -7.36857,23.663046 5.92658,-5.88332 18.31328,-6.445686 0.1442,-0.0288 16.18595,-15.46742 -2.25633,-4.34553 -0.0144,-0.31723 4.10967,-8.95476 0.37492,-0.20188 0.30282,0.30282 1.62496,9.57222 5.22449,-5.04437 2.86956,-14.492 -17.92393,-5.14791 -0.20188,-0.15862 -12.6751,-20.822336 0.0577,-0.447016 0.44702,-0.02884 21.154,14.693879 1.13917,-7.166689 0.27398,-0.302819 0.37491,0.144198 10.61305,15.573493 3.4811,-19.301641 -0.0289,-0.417568 -5.12491,-22.098502 0.17304,-0.389337 0.4326,0.05768 13.65564,13.338408 0.11536,0.273978 -0.51911,13.915204 4.97487,-4.167351 c 0,0 0.37492,-0.05768 0.37492,-0.05768 l 0.2163,0.302818 0.54795,9.012436 -0.11535,0.288398 -4.22505,4.008737 -3.04259,10.54815 2.50906,3.22285 10.46886,-7.41183 0.44701,0.0288 0.0577,0.44702 -6.54663,10.81493 -0.18746,0.15862 -9.87764,3.43193 -14.492,15.32836 8.13257,-1.01189 1.25478,-0.15613 0.38934,0.23072 -0.12978,0.41818 -8.3347,5.71028 -0.2163,0.0577 -7.08017,-0.2884 -11.40615,12.429946 -0.14419,0.10094 -17.18852,5.76796 -17.43444,14.48597 4.32169,5.88932 10.94976,-9.54594 22.71134,-5.56608 0.3605,0.11536 0.0721,0.3605 -7.81559,21.39913 -0.15861,0.18746 -10.12277,6.07078 -0.1442,0.0577 -13.66589,1.35388 -3.75335,19.10796 4.54227,27.26804 -0.96614,26.04234 8.10399,26.61913 -2.71095,19.58223 -12.67509,10.09392 -11.65127,13.61239 z"
       id="outline" /><path
       style="fill:#ffffff;fill-opacity:1;stroke:#000000;stroke-width:0.881944;stroke-dasharray:none;stroke-opacity:1"
       d="M 86.165134,281.89942 69.475227,273.03229 55.386862,243.98688 91.168912,210.70651 Z"
       id="piece_2"
       sodipodi:nodetypes="ccccc" /><path
       style="fill:#ffffff;fill-opacity:1;stroke:#000000;stroke-width:0.881944;stroke-dasharray:none;stroke-opacity:1"
       d="m 55.206855,243.82268 11.624978,-34.70402 15.28332,-5.91753 c -0.152951,-4.59603 -0.296846,-7.91298 -0.368295,-12.89561 l 2.8263,-3.04743 6.416917,23.93821 z"
       id="piece_1"
       sodipodi:nodetypes="ccccccc" /><path
       style="fill:#ffffff;fill-opacity:1;stroke:#000000;stroke-width:0.88194444;stroke-dasharray:none;stroke-opacity:1"
       d="m 95.31499,293.15482 -9.038696,-11.54193 4.682996,-70.30133 -6.19938,-24.14244 -0.50371,-29.11809 16.80298,29.74119 6.2378,-0.0515 z"
       id="piece_3"
       sodipodi:nodetypes="cccccccc" /><path
       style="fill:#ffffff;fill-opacity:1;stroke:#000000;stroke-width:0.881944;stroke-dasharray:none;stroke-opacity:1"
       d="m 112.42611,285.33913 -17.414993,7.62687 12.425363,-105.25465 6.18671,-0.0144 c 0,0 0.17794,-0.0435 0.23824,-0.0976 0.0603,-0.0541 -0.0371,-3e-5 -0.0371,-3e-5 l 0.021,-4.24078 5.16787,-8.13578 9.39365,73.29951 z"
       id="piece_4"
       sodipodi:nodetypes="ccccsccccc" /><path
       style="fill:#000000;stroke-width:0.88194444;stroke:#000000;stroke-opacity:1;stroke-dasharray:none"
       d="M 125.9337,160.16735 Z"
       id="path46" /><path
       style="fill:#bec6a8;fill-opacity:1;stroke:#000000;stroke-width:0.881944;stroke-dasharray:none;stroke-opacity:1"
       d="m 127.43154,161.11376 5.0252,28.69376 -1.25408,26.13128 8.27061,26.1866 -11.06316,7.50241 -9.71615,-74.04228 z"
       id="piece_5"
       sodipodi:nodetypes="ccccccc" /><path
       style="fill:#ffffff;fill-opacity:1;stroke:#000000;stroke-width:0.88194444;stroke-dasharray:none;stroke-opacity:1"
       d="m 112.43902,285.31618 15.81255,-36.37627 11.10845,-6.6826 -2.54515,19.42722 -12.62369,9.57045 z"
       id="piece_6"
       sodipodi:nodetypes="cccccc" /><path
       style="fill:#bec6a8;fill-opacity:1;stroke:#000000;stroke-width:0.88194444;stroke-dasharray:none;stroke-opacity:1"
       d="m 97.52618,142.1785 3.42892,30.22256 0.0425,15.12826 -15.80775,-27.92744 -0.73247,-1.45151 -4.44629,-15.84123 c 5.93835,0.13573 17.51513,-0.13064 17.51513,-0.13064 z"
       id="piece_7"
       sodipodi:nodetypes="ccccccc" /><path
       style="fill:#bec6a8;fill-opacity:1;stroke:#000000;stroke-width:0.88194444;stroke-dasharray:none;stroke-opacity:1"
       d="m 101.19471,172.1279 12.5686,0.11261 0.016,15.39034 -12.66247,-0.0171 z"
       id="piece_15"
       sodipodi:nodetypes="ccccc" /><path
       style="fill:#bec6a8;fill-opacity:1;stroke:#000000;stroke-width:0.881944;stroke-dasharray:none;stroke-opacity:1"
       d="m 113.85066,183.26576 13.35816,-21.59337 -13.30449,10.70679 z"
       id="piece_11"
       sodipodi:nodetypes="cccc" /><path
       style="fill:#bec6a8;fill-opacity:1;stroke:#000000;stroke-width:0.881944;stroke-dasharray:none;stroke-opacity:1"
       d="m 116.8702,142.01518 -2.96621,30.20677 13.53317,-11.03794 3.69718,-19.04828 c -6.06845,-0.29993 -14.26414,-0.12055 -14.26414,-0.12055 z"
       id="piece_10"
       sodipodi:nodetypes="ccccc" /><path
       style="fill:#bec6a8;fill-opacity:1;stroke:#000000;stroke-width:0.88194444;stroke-dasharray:none;stroke-opacity:1"
       d="m 113.74143,171.94056 3.01176,-30.42655 -10.30343,-12.46519 -8.712318,12.53513 3.397348,30.4664 z"
       id="piece_8"
       sodipodi:nodetypes="cccccc" /><path
       style="fill:#bec6a8;fill-opacity:1;stroke:#000000;stroke-width:0.88194444;stroke-dasharray:none;stroke-opacity:1"
       d="m 130.99755,142.02477 -1.81518,-13.01887 -4.47017,-6.38802 -9.93154,-5.57673 -18.490648,0.15141 -9.776475,5.46575 -3.284602,6.98602 -3.648483,12.53662 17.7772,-0.2115 9.079448,-13.0533 10.83444,13.0533 z"
       id="piece_14"
       sodipodi:nodetypes="cccccccccccc" /><path
       style="fill:#bec6a8;fill-opacity:1;stroke:#000000;stroke-width:0.88194444;stroke-dasharray:none;stroke-opacity:1"
       d="m 79.500634,142.31626 -12.764284,-1.20519 -10.094922,-6.18908 -7.5416,-21.38012 22.475044,5.75944 11.670608,10.24402 z"
       id="piece_12"
       sodipodi:nodetypes="ccccccc" /><path
       style="fill:#bec6a8;fill-opacity:1;stroke:#000000;stroke-width:0.88194444;stroke-dasharray:none;stroke-opacity:1"
       d="m 129.17675,128.97732 11.21072,-9.83659 22.43849,-5.35749 -7.57814,21.16087 -10.16899,6.116 -14.1174,1.48374 z"
       id="piece_13"
       sodipodi:nodetypes="ccccccc" /><path
       style="fill:#bec6a8;fill-opacity:1;stroke:#000000;stroke-width:0.88194444;stroke-dasharray:none;stroke-opacity:1"
       d="M 86.994568,122.70474 68.95618,107.79537 59.874531,96.858392 l 17.199077,5.893628 6.927566,7 -7.777243,-25.362189 15.408045,20.496939 5.079189,-5.286426 -0.593623,7.433556 -2.33603,4.12409 2.424963,6.04918 z"
       id="piece_16"
       sodipodi:nodetypes="cccccccccccc" /><path
       style="fill:#bec6a8;fill-opacity:1;stroke:#000000;stroke-width:0.88194444;stroke-dasharray:none;stroke-opacity:1"
       d="M 68.74588,107.75945 58.579562,95.320227 42.232335,80.552238 l 2.337002,-4.486552 -4.131943,-8.788751 -1.711213,10.124063 -6.12076,-6.638374 -12.678626,-1.352811 12.853996,14.18554 1.216404,1.57461 -9.590307,-1.202327 8.213915,5.715346 7.39741,-0.333623 11.485941,12.546301 z"
       id="piece_17"
       sodipodi:nodetypes="ccccccccccccccc" /><path
       style="fill:#bec6a8;fill-opacity:1;stroke:#000000;stroke-width:0.88194444;stroke-dasharray:none;stroke-opacity:1"
       d="m 9.6807259,65.665163 -6.7351143,-10.905937 11.0311104,6.997862 0.23578,-0.103912 2.416426,-2.940744 -3.040134,-10.628261 -4.5783486,-4.227444 0.8003387,-8.804617 5.5317399,4.522789 -0.648226,-14.53014 13.642523,-13.354126 -4.880306,21.843365 -0.237577,0.912597 3.625394,18.871876 0.27398,0.288399 10.97355,-15.688853 1.24055,7.344031 0.47541,-0.321539 21.140882,-14.245686 -12.601879,20.749186 c -6.487373,1.820733 -12.110252,3.560653 -18.187584,5.263194 L 32.752592,70.74807 20.474668,69.563447 Z"
       id="piece_18"
       sodipodi:nodetypes="cccccccccccccccccccccccc" /><path
       style="fill:#bec6a8;fill-opacity:1;stroke:#000000;stroke-width:0.88194444;stroke-dasharray:none;stroke-opacity:1"
       d="M 91.408217,104.43556 76.250353,84.565127 76.048323,74.399599 66.039611,54.265643 l 11.611995,10.668318 6.344547,-19.763748 -0.05965,18.884577 6.372422,-3.81598 -3.410779,9.928578 -3.031771,2.819061 c -0.140821,5.472449 -0.051,6.954428 -0.14507,11.20579 z"
       id="piece_19"
       sodipodi:nodetypes="cccccccccccc" /><path
       style="fill:#bec6a8;fill-opacity:1;stroke:#000000;stroke-width:0.88194444;stroke-dasharray:none;stroke-opacity:1"
       d="m 114.76376,116.93009 2.30314,-5.48336 -2.40212,-4.51466 -0.49028,-7.278529 5.30857,5.180779 1.16967,-2.932 6.58619,-17.716443 -0.0374,-11.06617 -3.32845,-3.112182 -3.04502,-9.550863 5.9855,3.075028 0.51163,0.291705 -0.41194,-18.732529 5.95666,18.974359 0.27455,0.57737 11.67366,-10.30127 -9.91376,19.989755 -0.17905,10.522939 -6.75322,23.505501 -0.56485,1.34835 6.48648,-7.30012 17.10253,-6.021456 -8.81584,11.269626 -17.75215,14.73929 z"
       id="piece_20"
       sodipodi:nodetypes="ccccccccccccccccccccccccc" /><path
       style="fill:#bec6a8;fill-opacity:1;stroke:#000000;stroke-width:0.88194444;stroke-dasharray:none;stroke-opacity:1"
       d="m 142.581,107.43457 8.45476,-11.062873 17.82461,-15.722594 -2.51232,-4.554577 4.20502,-9.081075 1.52851,8.954757 0.84579,-1.8e-4 5.89322,-5.657331 12.57856,-1.373528 -12.75099,14.445658 c -0.54932,0.580743 -1.10728,1.136215 -1.52423,1.811482 l 9.56923,-1.256495 -8.36008,5.678805 -7.23306,-0.266277 -0.20089,0.0057 -11.4494,12.582828 z"
       id="piece_21"
       sodipodi:nodetypes="ccccccccccccccccc" /><path
       style="fill:#bec6a8;fill-opacity:1;stroke:#000000;stroke-width:0.88194444;stroke-dasharray:none;stroke-opacity:1"
       d="m 191.17353,68.905713 -12.83045,1.343326 2.57103,-13.219742 -1.48851,-0.436216 -16.45265,-4.803633 -12.92922,-20.967986 20.99847,14.227689 0.71618,0.471687 1.25656,-7.588401 10.59863,15.544654 0.37492,0.144198 3.77414,-19.794808 z"
       id="piece_9"
       sodipodi:nodetypes="ccccccccccccc" /><path
       style="fill:#bec6a8;fill-opacity:1;stroke:#000000;stroke-width:0.88194444;stroke-dasharray:none;stroke-opacity:1"
       d="m 187.79338,33.705755 -5.15184,-21.921352 13.53766,13.10309 -0.47488,13.906366 0.34804,0.550903 5.18052,-4.341372 0.55664,8.929018 -4.30483,4.01447 -3.11568,10.993703 2.46761,2.990499 0.49027,0.0721 10.64515,-7.152423 -6.64018,10.726906 -10.07968,3.590555 c -1.27668,-11.902191 -2.1588,-23.696406 -3.4588,-35.462463 z"
       id="piece_22"
       sodipodi:nodetypes="ccccccccccccccc" /></g><style
     type="text/css"
     id="style1">
	.st0{fill:#FFFFFF;}
	.st1{fill:#8F9399;}
	.st2{fill:#BEC6A8;}
	.st3{fill:#889B64;}
	.st4{fill:#E4E6D9;}
</style></svg>
