<?xml version="1.0" encoding="UTF-8" standalone="no"?>
<!-- Created with Inkscape (http://www.inkscape.org/) -->

<svg
   width="210mm"
   height="297mm"
   viewBox="0 0 210 297"
   version="1.1"
   id="svg1"
   xml:space="preserve"
   inkscape:version="1.4.2 (f4327f4, 2025-05-13)"
   sodipodi:docname="stag_with_all_lines.svg"
   xmlns:inkscape="http://www.inkscape.org/namespaces/inkscape"
   xmlns:sodipodi="http://sodipodi.sourceforge.net/DTD/sodipodi-0.dtd"
   xmlns="http://www.w3.org/2000/svg"
   xmlns:svg="http://www.w3.org/2000/svg"><sodipodi:namedview
     id="namedview1"
     pagecolor="#ffffff"
     bordercolor="#000000"
     borderopacity="0.25"
     inkscape:showpageshadow="2"
     inkscape:pageopacity="0.0"
     inkscape:pagecheckerboard="0"
     inkscape:deskcolor="#d1d1d1"
     inkscape:document-units="mm"
     inkscape:zoom="2.56"
     inkscape:cx="96.484375"
     inkscape:cy="183.39844"
     inkscape:window-width="1920"
     inkscape:window-height="1129"
     inkscape:window-x="-8"
     inkscape:window-y="-2"
     inkscape:window-maximized="1"
     inkscape:current-layer="layer1" /><defs
     id="defs1">
	

		
		
		
		
		
		
		
		
		
		
		
		
		
		
		
		
		
		
		
		
		
		
		
		
		
		
		
		
		
		
		
		
		
		
		
		
		
		
	</defs><g
     inkscape:label="Ebene 1"
     inkscape:groupmode="layer"
     id="layer1"><g
       id="g1"
       transform="matrix(1.4419901,0,0,1.4419901,86.59168,6.4140972)"
       style="stroke:#0011ad;stroke-width:0.550455;stroke-dasharray:none;stroke-opacity:1" /><path
       style="fill:#000000;fill-opacity:0.0692308;stroke-width:0.88194444;stroke-dasharray:none;stroke:#000000;stroke-opacity:1"
       d="m 95.11654,293.10391 -8.65194,-11.14658 -17.3183,-9.24314 -13.00675,-28.30627 10.71399,-35.40086 15.25625,-5.99868 -0.63447,-12.74719 3.4031,-3.57614 -0.80752,-28.4793 -4.41249,-15.50139 -12.86255,-1.28337 -10.36791,-6.25824 -7.75791,-21.71637 0.37492,-0.15862 22.55273,5.49398 11.63686,10.32465 2.78304,-6.56105 -17.4625,-14.52085 -17.33272,-5.8689 -11.40614,-12.429936 -7.29647,0.23072 -8.33471,-5.71029 -0.12978,-0.41817 0.38934,-0.23072 9.38736,1.16801 -14.36223,-15.22741 -10.0650905,-3.51846 -6.734091,-10.97355 0.0577,-0.44701 0.44702,-0.0288 10.4688415,7.41183 2.55233,-3.23727 -3.0426,-10.54816 -4.2250305,-4.008733 -0.11536,-0.288398 0.54795,-9.012436 0.2163,-0.302818 5.3497905,4.22503 -0.51912,-13.915204 13.771,-13.612386 0.4326,-0.05768 0.17304,0.389337 -5.16232,22.322006 3.54729,19.452452 10.62747,-15.573499 0.37492,-0.144198 1.41315,7.469508 21.15399,-14.693879 0.44702,0.02884 0.0577,0.447017 -12.67509,20.822341 -18.12582,5.30652 2.86956,14.492 5.14827,4.91322 1.60024,-9.42665 0.30282,-0.30282 0.37492,0.20188 4.10967,8.95476 -0.0144,0.31724 -2.19468,4.26916 16.28292,15.60146 18.3998,6.402426 5.92658,5.88332 -7.38299,-23.763986 -0.17304,-10.18045 -9.80553,-19.95714 0.11536,-0.44702 0.46143,0.0288 11.03123,10.23813 6.20055,-19.178471 0.40376,-0.245139 0.30282,0.360498 -0.14954,18.223012 5.85982,-3.50029 0.40376,0.0288 0.11536,0.38933 -3.35984,9.8488 -3.07766,3.00956 -0.10914,10.6605 7.65104,20.495136 4.82217,-5.210036 0.40376,-0.0865 0.2163,0.3605 -0.62006,7.743476 -2.28962,4.03806 2.09301,5.54518 18.34262,-0.0374 2.0216,-5.39226 -2.38789,-4.29776 -0.57679,-7.599276 0.2163,-0.3605 0.40375,0.0865 4.93424,5.285706 7.61108,-20.527546 -0.0288,-10.51211 -3.34542,-3.331 -3.27332,-9.70459 0.11536,-0.38933 0.40376,-0.0288 5.98653,3.44192 -0.17531,-18.135803 0.30282,-0.360498 0.40376,0.24514 6.20055,19.149631 11.03123,-10.20929 0.46143,-0.0288 0.11536,0.44702 -9.80553,19.95714 -0.18746,10.28139 -7.36857,23.663046 5.92658,-5.88332 18.31328,-6.445686 0.1442,-0.0288 16.18595,-15.46742 -2.25633,-4.34553 -0.0144,-0.31723 4.10967,-8.95476 0.37492,-0.20188 0.30282,0.30282 1.62496,9.57222 5.22449,-5.04437 2.86956,-14.492 -17.92393,-5.14791 -0.20188,-0.15862 -12.6751,-20.822336 0.0577,-0.447016 0.44702,-0.02884 21.154,14.693879 1.13917,-7.166689 0.27398,-0.302819 0.37491,0.144198 10.61305,15.573493 3.4811,-19.301641 -0.0289,-0.417568 -5.12491,-22.098502 0.17304,-0.389337 0.4326,0.05768 13.65564,13.338408 0.11536,0.273978 -0.51911,13.915204 4.97487,-4.167351 c 0,0 0.37492,-0.05768 0.37492,-0.05768 l 0.2163,0.302818 0.54795,9.012436 -0.11535,0.288398 -4.22505,4.008737 -3.04259,10.54815 2.50906,3.22285 10.46886,-7.41183 0.44701,0.0288 0.0577,0.44702 -6.54663,10.81493 -0.18746,0.15862 -9.87764,3.43193 -14.492,15.32836 8.13257,-1.01189 1.25478,-0.15613 0.38934,0.23072 -0.12978,0.41818 -8.3347,5.71028 -0.2163,0.0577 -7.08017,-0.2884 -11.40615,12.429946 -0.14419,0.10094 -17.18852,5.76796 -17.43444,14.48597 4.32169,5.88932 10.94976,-9.54594 22.71134,-5.56608 0.3605,0.11536 0.0721,0.3605 -7.81559,21.39913 -0.15861,0.18746 -10.12277,6.07078 -0.1442,0.0577 -13.66589,1.35388 -3.75335,19.10796 4.54227,27.26804 -0.96614,26.04234 8.10399,26.61913 -2.71095,19.58223 -12.67509,10.09392 -11.65127,13.61239 z"
       id="outline" /><path
       style="fill:#ffffff;fill-opacity:1;stroke:#000000;stroke-width:0.881944;stroke-dasharray:none;stroke-opacity:1"
       d="M 86.165134,281.89942 69.475227,273.03229 55.386862,243.98688 91.168912,210.70651 Z"
       id="piece_2"
       sodipodi:nodetypes="ccccc" /><path
       style="fill:#ffffff;fill-opacity:1;stroke:#000000;stroke-width:0.881944;stroke-dasharray:none;stroke-opacity:1"
       d="m 55.206855,243.82268 11.624978,-34.70402 15.28332,-5.91753 c -0.152951,-4.59603 -0.296846,-7.91298 -0.368295,-12.89561 l 2.8263,-3.04743 6.416917,23.93821 z"
       id="piece_1"
       sodipodi:nodetypes="ccccccc" /><path
       style="fill:#ffffff;fill-opacity:1;stroke:#000000;stroke-width:0.88194444;stroke-dasharray:none;stroke-opacity:1"
       d="m 95.31499,293.15482 -9.038696,-11.54193 4.682996,-70.30133 -6.19938,-24.14244 -0.50371,-29.11809 16.80298,29.74119 6.2378,-0.0515 z"
       id="piece_3"
       sodipodi:nodetypes="cccccccc" /><path
       style="fill:#ffffff;fill-opacity:1;stroke:#000000;stroke-width:0.881944;stroke-dasharray:none;stroke-opacity:1"
       d="m 112.42611,285.33913 -17.414993,7.62687 12.425363,-105.25465 6.18671,-0.0144 c 0,0 0.17794,-0.0435 0.23824,-0.0976 0.0603,-0.0541 -0.0371,-3e-5 -0.0371,-3e-5 l 0.021,-4.24078 5.16787,-8.13578 9.39365,73.29951 z"
       id="piece_4"
       sodipodi:nodetypes="ccccsccccc" /><path
       style="fill:#000000;stroke-width:0.88194444;stroke:#000000;stroke-opacity:1;stroke-dasharray:none"
       d="M 125.9337,160.16735 Z"
       id="path46" /><path
       style="fill:#bec6a8;fill-opacity:1;stroke:#000000;stroke-width:0.881944;stroke-dasharray:none;stroke-opacity:1"
       d="m 127.43154,161.11376 5.0252,28.69376 -1.25408,26.13128 8.27061,26.1866 -11.06316,7.50241 -9.71615,-74.04228 z"
       id="piece_5"
       sodipodi:nodetypes="ccccccc" /><path
       style="fill:#ffffff;fill-opacity:1;stroke:#000000;stroke-width:0.88194444;stroke-dasharray:none;stroke-opacity:1"
       d="m 112.43902,285.31618 15.81255,-36.37627 11.10845,-6.6826 -2.54515,19.42722 -12.62369,9.57045 z"
       id="piece_6"
       sodipodi:nodetypes="cccccc" /><path
       style="fill:#bec6a8;fill-opacity:1;stroke:#000000;stroke-width:0.88194444;stroke-dasharray:none;stroke-opacity:1"
       d="m 97.52618,142.1785 3.42892,30.22256 0.0425,15.12826 -15.80775,-27.92744 -0.73247,-1.45151 -4.44629,-15.84123 c 5.93835,0.13573 17.51513,-0.13064 17.51513,-0.13064 z"
       id="piece_7"
       sodipodi:nodetypes="ccccccc" /><path
       style="fill:#bec6a8;fill-opacity:1;stroke:#000000;stroke-width:0.88194444;stroke-dasharray:none;stroke-opacity:1"
       d="m 101.19471,172.1279 12.5686,0.11261 0.016,15.39034 -12.66247,-0.0171 z"
       id="piece_15"
       sodipodi:nodetypes="ccccc" /><path
       style="fill:#bec6a8;fill-opacity:1;stroke:#000000;stroke-width:0.881944;stroke-dasharray:none;stroke-opacity:1"
       d="m 113.85066,183.26576 13.35816,-21.59337 -13.30449,10.70679 z"
       id="piece_11"
       sodipodi:nodetypes="cccc" /><path
       style="fill:#bec6a8;fill-opacity:1;stroke:#000000;stroke-width:0.881944;stroke-dasharray:none;stroke-opacity:1"
       d="m 116.8702,142.01518 -2.96621,30.20677 13.53317,-11.03794 3.69718,-19.04828 c -6.06845,-0.29993 -14.26414,-0.12055 -14.26414,-0.12055 z"
       id="piece_10"
       sodipodi:nodetypes="ccccc" /><path
       style="fill:#bec6a8;fill-opacity:1;stroke:#000000;stroke-width:0.88194444;stroke-dasharray:none;stroke-opacity:1"
       d="m 113.74143,171.94056 3.01176,-30.42655 -10.30343,-12.46519 -8.712318,12.53513 3.397348,30.4664 z"
       id="piece_8"
       sodipodi:nodetypes="cccccc" /><path
       style="fill:#bec6a8;fill-opacity:1;stroke:#000000;stroke-width:0.88194444;stroke-dasharray:none;stroke-opacity:1"
       d="m 130.99755,142.02477 -1.81518,-13.01887 -4.47017,-6.38802 -9.93154,-5.57673 -18.490648,0.15141 -9.776475,5.46575 -3.284602,6.98602 -3.648483,12.53662 17.7772,-0.2115 9.079448,-13.0533 10.83444,13.0533 z"
       id="piece_14"
       sodipodi:nodetypes="cccccccccccc" /><path
       style="fill:#bec6a8;fill-opacity:1;stroke:#000000;stroke-width:0.88194444;stroke-dasharray:none;stroke-opacity:1"
       d="m 79.500634,142.31626 -12.764284,-1.20519 -10.094922,-6.18908 -7.5416,-21.38012 22.475044,5.75944 11.670608,10.24402 z"
       id="piece_12"
       sodipodi:nodetypes="ccccccc" /><path
       style="fill:#bec6a8;fill-opacity:1;stroke:#000000;stroke-width:0.88194444;stroke-dasharray:none;stroke-opacity:1"
       d="m 129.17675,128.97732 11.21072,-9.83659 22.43849,-5.35749 -7.57814,21.16087 -10.16899,6.116 -14.1174,1.48374 z"
       id="piece_13"
       sodipodi:nodetypes="ccccccc" /><path
       style="fill:#bec6a8;fill-opacity:1;stroke:#000000;stroke-width:0.88194444;stroke-dasharray:none;stroke-opacity:1"
       d="M 86.994568,122.70474 68.95618,107.79537 59.874531,96.858392 l 17.199077,5.893628 6.927566,7 -7.777243,-25.362189 15.408045,20.496939 5.079189,-5.286426 -0.593623,7.433556 -2.33603,4.12409 2.424963,6.04918 z"
       id="piece_16"
       sodipodi:nodetypes="cccccccccccc" /><path
       style="fill:#bec6a8;fill-opacity:1;stroke:#000000;stroke-width:0.881944;stroke-dasharray:none;stroke-opacity:1"
       d="M 68.74588,107.75945 58.579562,95.320226 42.232335,80.552238 l 2.337002,-4.486552 -4.131943,-8.788751 -1.711213,10.124063 -6.12076,-6.638374 -12.678626,-1.352811 12.853996,14.18554 1.216404,1.574613 -9.590307,-1.20233 8.213915,5.71535 7.39741,-0.33363 11.485941,12.546304 z"
       id="piece_17"
       sodipodi:nodetypes="ccccccccccccccc" /><path
       id="piece_18"
       style="fill:#bec6a8;fill-opacity:1;stroke:#000000;stroke-width:0.881944;stroke-dasharray:none;stroke-opacity:1"
       d="M 28.336772 11.690759 L 14.694194 25.044983 L 15.342733 39.574845 L 9.8107707 35.052124 L 9.0103027 43.856755 L 13.588835 48.084403 L 16.628959 58.712179 L 14.212569 61.653084 L 13.976925 61.756954 L 2.9455566 54.759448 L 9.6805461 65.665243 L 20.474719 69.563196 L 33.475993 72.1434 L 30.159399 56.707133 C 36.236736 55.004592 41.85954 53.264621 48.34692 51.443888 L 60.948735 30.694767 L 39.807906 44.940409 L 39.332483 45.261837 L 38.091732 37.918099 L 27.118241 53.607064 L 26.844356 53.318709 L 23.218738 34.446476 L 23.456449 33.53387 L 28.336772 11.690759 z " /><path
       style="fill:#bec6a8;fill-opacity:1;stroke:#000000;stroke-width:0.88194444;stroke-dasharray:none;stroke-opacity:1"
       d="M 91.408217,104.43556 76.250353,84.565127 76.048323,74.399599 66.039611,54.265643 l 11.611995,10.668318 6.344547,-19.763748 -0.05965,18.884577 6.372422,-3.81598 -3.410779,9.928578 -3.031771,2.819061 c -0.140821,5.472449 -0.051,6.954428 -0.14507,11.20579 z"
       id="piece_19"
       sodipodi:nodetypes="cccccccccccc" /><path
       style="fill:#bec6a8;fill-opacity:1;stroke:#000000;stroke-width:0.88194444;stroke-dasharray:none;stroke-opacity:1"
       d="m 114.76376,116.93009 2.30314,-5.48336 -2.40212,-4.51466 -0.49028,-7.278529 5.30857,5.180779 1.16967,-2.932 6.58619,-17.716443 -0.0374,-11.06617 -3.32845,-3.112182 -3.04502,-9.550863 5.9855,3.075028 0.51163,0.291705 -0.41194,-18.732529 5.95666,18.974359 0.27455,0.57737 11.67366,-10.30127 -9.91376,19.989755 -0.17905,10.522939 -6.75322,23.505501 -0.56485,1.34835 6.48648,-7.30012 17.10253,-6.021456 -8.81584,11.269626 -17.75215,14.73929 z"
       id="piece_20"
       sodipodi:nodetypes="ccccccccccccccccccccccccc" /><path
       style="fill:#bec6a8;fill-opacity:1;stroke:#000000;stroke-width:0.88194444;stroke-dasharray:none;stroke-opacity:1"
       d="m 142.581,107.43457 8.45476,-11.062873 17.82461,-15.722594 -2.51232,-4.554577 4.20502,-9.081075 1.52851,8.954757 0.84579,-1.8e-4 5.89322,-5.657331 12.57856,-1.373528 -12.75099,14.445658 c -0.54932,0.580743 -1.10728,1.136215 -1.52423,1.811482 l 9.56923,-1.256495 -8.36008,5.678805 -7.23306,-0.266277 -0.20089,0.0057 -11.4494,12.582828 z"
       id="piece_21"
       sodipodi:nodetypes="ccccccccccccccccc" /><path
       style="fill:#bec6a8;fill-opacity:1;stroke:#000000;stroke-width:0.88194444;stroke-dasharray:none;stroke-opacity:1"
       d="m 191.17353,68.905713 -12.83045,1.343326 2.57103,-13.219742 -1.48851,-0.436216 -16.45265,-4.803633 -12.92922,-20.967986 20.99847,14.227689 0.71618,0.471687 1.25656,-7.588401 10.59863,15.544654 0.37492,0.144198 3.77414,-19.794808 z"
       id="piece_9"
       sodipodi:nodetypes="ccccccccccccc" /><path
       style="fill:#bec6a8;fill-opacity:1;stroke:#000000;stroke-width:0.88194444;stroke-dasharray:none;stroke-opacity:1"
       d="m 187.79338,33.705755 -5.15184,-21.921352 13.53766,13.10309 -0.47488,13.906366 0.34804,0.550903 5.18052,-4.341372 0.55664,8.929018 -4.30483,4.01447 -3.11568,10.993703 2.46761,2.990499 0.49027,0.0721 10.64515,-7.152423 -6.64018,10.726906 -10.07968,3.590555 c -1.27668,-11.902191 -2.1588,-23.696406 -3.4588,-35.462463 z"
       id="piece_22"
       sodipodi:nodetypes="ccccccccccccccc" /></g><g
     id="Farbfläche"
     style="stroke:#000000;stroke-width:0.550455;stroke-dasharray:none;stroke-opacity:1"
     transform="matrix(1.4419901,0,0,1.4419901,-38.431552,8.5571263)">
	<g
   id="g3"
   style="stroke:#000000;stroke-width:0.550455;stroke-dasharray:none;stroke-opacity:1">
		<path
   class="st0"
   d="m 85.5,104.43 10.74,20.74 c 0.01,0.02 0.02,0.02 0.04,0.04 0.01,0.01 0.02,0.02 0.03,0.03 0.05,0.04 0.1,0.06 0.16,0.06 h 5.17 l -9.13,70.72 -5.44,-7.11 3.09,-48.45 c 0,0 0,0 0,-0.01 0,0 0,0 0,-0.01 0,-0.02 0,-0.04 -0.01,-0.06 l -4.11,-17.21 z"
   id="path1"
   style="stroke:#000000;stroke-width:0.550455;stroke-dasharray:none;stroke-opacity:1" />
		<path
   class="st0"
   d="m 73.48,138.86 10.48,-4.02 c 0.1,-0.04 0.17,-0.14 0.16,-0.25 l -0.45,-8.92 1.97,-1.97 3.98,16.66 -23.28,21.85 z"
   id="path2"
   style="stroke:#000000;stroke-width:0.550455;stroke-dasharray:none;stroke-opacity:1" />
		<line
   class="st0"
   x1="89.629997"
   y1="140.37"
   x2="66.349998"
   y2="162.21001"
   id="line2"
   style="stroke:#000000;stroke-width:0.550455;stroke-dasharray:none;stroke-opacity:1" />
		<polygon
   class="st0"
   points="66.14,163.1 89.62,141.06 86.58,188.59 75.05,182.49 "
   id="polygon2"
   style="stroke:#000000;stroke-width:0.550455;stroke-dasharray:none;stroke-opacity:1" />
		<path
   class="st0"
   d="m 104.21,191.06 -11.23,5.19 9.16,-70.94 h 3.48 c 0.14,0 0.25,-0.11 0.25,-0.25 v -2.82 l 3.11,-5.38 6.86,49.61 z"
   id="path3"
   style="stroke:#000000;stroke-width:0.550455;stroke-dasharray:none;stroke-opacity:1" />
		<line
   class="st0"
   x1="115.84"
   y1="166.47"
   x2="104.21"
   y2="191.06"
   id="line3"
   style="stroke:#000000;stroke-width:0.550455;stroke-dasharray:none;stroke-opacity:1" />
		<polygon
   class="st0"
   points="122.78,162 121.07,174.64 112.32,181.61 105.42,189.67 116.29,166.67 "
   id="polygon3"
   style="stroke:#000000;stroke-width:0.550455;stroke-dasharray:none;stroke-opacity:1" />
	</g>
</g><path
     d="m 79.912578,142.67186 c -0.20188,0 -0.3605,-0.15862 -0.3605,-0.3605 0,-0.20188 0.15862,-0.3605 0.3605,-0.3605 l 17.26062,-0.0144 v 0 c 0.20188,0 0.3605,0.15862 0.3605,0.3605 0,0.20188 -0.15862,0.3605 -0.3605,0.3605 z"
     id="path4"
     style="stroke:#000000;stroke-width:0.793751;stroke-dasharray:none;stroke-opacity:1" /><path
     d="m 79.999098,142.67186 c -0.0288,0 -0.0577,0 -0.0865,-0.0144 -0.18746,-0.0433 -0.31724,-0.24514 -0.27398,-0.4326 l 3.05702,-13.15095 3.35984,-6.71967 c 0.0288,-0.0577 0.0865,-0.11536 0.14419,-0.1442 l 9.71902,-5.63818 c 0.0577,-0.0288 0.11536,-0.0577 0.18746,-0.0577 0,0 0,0 0,0 0,0 0,0 0,0 0,0 0,0 0,0 0,0 0,0 0,0 l 18.832392,0.0144 c 0.0577,0 0.11536,0.0144 0.17304,0.0433 l 9.60365,5.30652 c 0.0433,0.0288 0.0865,0.0577 0.11536,0.10094 l 4.71531,6.51779 c 0.0288,0.0433 0.0577,0.10094 0.0577,0.15862 l 1.9611,13.56913 c 0.0144,0.10094 -0.0144,0.20188 -0.0865,0.2884 -0.0721,0.0721 -0.17304,0.12978 -0.27397,0.12978 h -14.30455 c -0.10094,0 -0.21629,-0.0433 -0.27397,-0.12978 l -20.620462,-25.17715 -9.35852,5.4363 -3.27332,6.54664 -3.01376,13.06443 c -0.0433,0.17304 -0.20187,0.2884 -0.36049,0.2884 z m 37.087982,-0.73542 h 13.71333 l -1.88901,-13.06443 -4.61437,-6.37359 -9.44503,-5.23443 -17.981622,-0.0144 z"
     id="path5"
     style="stroke:#000000;stroke-width:0.793751;stroke-dasharray:none;stroke-opacity:1" /><path
     d="m 100.66282,189.65189 c -0.12978,0 -0.25956,-0.0721 -0.31724,-0.18745 L 84.152028,158.17325 c -0.0865,-0.15862 -0.0433,-0.34608 0.10094,-0.44702 0.1442,-0.10094 0.33166,-0.10094 0.46143,0.0288 l 15.03996,14.16035 -11.17542,-29.4887 c -0.0721,-0.18746 0.0288,-0.38934 0.2163,-0.46144 0.18746,-0.0721 0.38933,0.0288 0.46143,0.20188 l 11.737802,30.95953 c 0.0577,0.15862 0,0.33166 -0.1442,0.4326 -0.12978,0.10093 -0.31723,0.0721 -0.44701,-0.0433 L 85.767058,159.7161 100.99447,189.1327 c 0.0865,0.17304 0.0288,0.38934 -0.15862,0.49027 -0.0577,0.0144 -0.11536,0.0288 -0.17303,0.0288 z"
     id="path6"
     style="stroke:#000000;stroke-width:0.793751;stroke-dasharray:none;stroke-opacity:1" /><path
     d="m 100.6484,173.61696 c -0.20188,0 -0.3605,-0.15861 -0.3605,-0.36049 0,-0.20188 0.15862,-0.3605 0.3605,-0.3605 l 13.22304,-0.1442 c 0.18746,0.0288 0.3605,0.15862 0.3605,0.3605 0,0.20188 -0.15862,0.3605 -0.3605,0.3605 z"
     id="path7"
     style="stroke:#000000;stroke-width:0.793751;stroke-dasharray:none;stroke-opacity:1" /><g
     id="g8"
     style="stroke:#000000;stroke-width:0.550455;stroke-dasharray:none;stroke-opacity:1"
     transform="matrix(1.4419901,0,0,1.4419901,-38.431552,8.9705373)">
			<path
   d="m 92.67,196.91 c -0.01,0 -0.02,0 -0.03,0 -0.14,-0.02 -0.23,-0.14 -0.22,-0.28 l 9.25,-71.61 c 0.02,-0.14 0.14,-0.23 0.28,-0.22 0.14,0.02 0.23,0.14 0.22,0.28 l -9.25,71.61 c -0.02,0.13 -0.13,0.22 -0.25,0.22 z"
   id="path8"
   style="stroke:#000000;stroke-width:0.550455;stroke-dasharray:none;stroke-opacity:1" />
		</g><path
     d="m 128.9835,249.42238 c -0.17304,0 -0.33166,-0.12977 -0.3605,-0.31723 l -10.05067,-72.6763 c -0.0288,-0.20188 0.11536,-0.37492 0.30282,-0.40376 0.18746,-0.0144 0.37492,0.11536 0.40376,0.30282 l 10.05067,72.6763 c 0.0288,0.20188 -0.11536,0.37491 -0.30282,0.40375 -0.0144,0.0144 -0.0288,0.0144 -0.0433,0.0144 z"
     id="path9"
     style="stroke:#000000;stroke-width:0.793751;stroke-dasharray:none;stroke-opacity:1" /><path
     d="m 112.11222,285.09722 c -0.0577,0 -0.10094,-0.0144 -0.15862,-0.0288 -0.17304,-0.0865 -0.25956,-0.30282 -0.17304,-0.47586 l 16.87128,-35.67483 c 0.0288,-0.0577 0.0721,-0.10094 0.11536,-0.1442 l 10.12277,-7.26763 c 0.15862,-0.11536 0.38934,-0.0865 0.5047,0.0865 0.11536,0.15862 0.0721,0.38934 -0.0865,0.50469 l -10.03625,7.22437 -16.82803,35.58832 c -0.0721,0.11536 -0.20187,0.18746 -0.33165,0.18746 z"
     id="path10"
     style="stroke:#000000;stroke-width:0.793751;stroke-dasharray:none;stroke-opacity:1" /><path
     d="m 86.747608,281.85274 c -0.0144,0 -0.0144,0 -0.0288,0 -0.20188,-0.0144 -0.34608,-0.18746 -0.33166,-0.37492 l 4.47017,-69.93652 -5.92658,-24.80223 c -0.0433,-0.18745 0.0721,-0.38933 0.27398,-0.43259 0.20188,-0.0577 0.38934,0.0721 0.4326,0.27398 l 5.92658,24.8599 c 0.0144,0.0288 0.0144,0.0721 0.0144,0.10094 l -4.47017,69.96536 c -0.0144,0.20188 -0.17304,0.34608 -0.3605,0.34608 z"
     id="path11"
     style="stroke:#000000;stroke-width:0.793751;stroke-dasharray:none;stroke-opacity:1" /><path
     d="m 113.87144,189.65189 h -13.20862 c -0.20188,0 -0.3605,-0.15861 -0.3605,-0.36049 l -0.0144,-16.03493 -3.460782,-30.91627 c -0.0144,-0.0865 0.0144,-0.17304 0.0577,-0.24514 l 17.750902,-25.39344 c 0.11536,-0.15862 0.34608,-0.20188 0.5047,-0.0865 0.15861,0.11536 0.20187,0.34607 0.0865,0.50469 l -17.664382,25.27809 3.446352,30.81533 0.0144,15.71769 h 12.48764 v -15.81863 l 3.0426,-30.84417 c 0.0144,-0.20188 0.20187,-0.34608 0.38933,-0.31724 0.20188,0.0144 0.34608,0.20188 0.31724,0.38934 l -3.0426,30.81533 v 16.15029 c 0.0144,0.18746 -0.1442,0.34607 -0.34608,0.34607 z"
     id="path12"
     style="stroke:#000000;stroke-width:0.793751;stroke-dasharray:none;stroke-opacity:1" /><g
     id="g13"
     style="stroke:#000000;stroke-width:0.550455;stroke-dasharray:none;stroke-opacity:1"
     transform="matrix(1.4419901,0,0,1.4419901,-38.431552,8.9705373)">
			<path
   d="m 117.65,92.71 c -0.05,0 -0.1,-0.01 -0.15,-0.05 -0.11,-0.08 -0.14,-0.24 -0.06,-0.35 l 8.31,-11.7 c 0.02,-0.03 0.04,-0.05 0.07,-0.07 l 13.68,-8.25 c 0.12,-0.07 0.27,-0.03 0.34,0.08 0.07,0.12 0.03,0.27 -0.08,0.34 l -13.64,8.22 -8.28,11.66 c -0.04,0.09 -0.12,0.12 -0.19,0.12 z"
   id="path13"
   style="stroke:#000000;stroke-width:0.550455;stroke-dasharray:none;stroke-opacity:1" />
		</g><path
     d="m 136.82793,135.15909 c -0.20188,0 -0.3605,-0.15862 -0.3605,-0.3605 0,-0.20188 0.15862,-0.3605 0.3605,-0.3605 l 18.27001,-0.1442 c 0,0 0,0 0,0 0.20188,0 0.3605,0.15862 0.3605,0.3605 0,0.20188 -0.15862,0.3605 -0.3605,0.3605 z"
     id="path14"
     style="stroke:#000000;stroke-width:0.793751;stroke-dasharray:none;stroke-opacity:1" /><path
     d="m 131.21859,142.65744 c -0.18746,0 -0.34608,-0.1442 -0.3605,-0.33166 -0.0144,-0.20188 0.12978,-0.37492 0.31724,-0.38934 l 13.82868,-1.38431 9.94973,-5.96984 7.54161,-20.6493 -21.81731,5.32095 -11.17542,9.74785 c -0.1442,0.12978 -0.37492,0.11536 -0.5047,-0.0288 -0.12978,-0.1442 -0.11536,-0.37492 0.0288,-0.5047 l 11.24752,-9.80553 c 0.0433,-0.0433 0.10094,-0.0577 0.15862,-0.0721 l 22.55273,-5.49398 c 0.12978,-0.0288 0.25956,0.0144 0.36049,0.11536 0.0865,0.10094 0.11536,0.24514 0.0721,0.3605 l -7.81558,21.39913 c -0.0288,0.0721 -0.0865,0.1442 -0.15862,0.18746 l -10.12277,6.07078 c -0.0433,0.0288 -0.10094,0.0433 -0.1442,0.0577 l -13.91521,1.38431 c -0.0288,-0.0144 -0.0433,-0.0144 -0.0433,-0.0144 z"
     id="path15"
     style="stroke:#000000;stroke-width:0.793751;stroke-dasharray:none;stroke-opacity:1" /><g
     id="g16"
     style="stroke:#000000;stroke-width:0.550455;stroke-dasharray:none;stroke-opacity:1"
     transform="matrix(1.4419901,0,0,1.4419901,-38.431552,8.9705373)">
			<path
   d="m 82.13,92.72 c -0.08,0 -0.16,-0.04 -0.21,-0.11 L 74.23,80.95 60.51,72.66 c -0.12,-0.07 -0.16,-0.22 -0.08,-0.34 0.07,-0.12 0.23,-0.15 0.34,-0.08 l 13.77,8.32 c 0.03,0.02 0.06,0.04 0.08,0.08 l 7.72,11.71 c 0.08,0.12 0.04,0.27 -0.07,0.35 -0.04,0.01 -0.09,0.02 -0.14,0.02 z"
   id="path16"
   style="stroke:#000000;stroke-width:0.550455;stroke-dasharray:none;stroke-opacity:1" />
		</g><path
     d="m 56.826318,135.18793 c -0.20188,0 -0.3605,-0.15862 -0.3605,-0.3605 0,-0.20188 0.15862,-0.3605 0.3605,-0.3605 l 18.21233,-0.0288 v 0 c 0.20188,0 0.3605,0.15862 0.3605,0.3605 0,0.20188 -0.15862,0.3605 -0.3605,0.3605 z"
     id="path17"
     style="stroke:#000000;stroke-width:0.793751;stroke-dasharray:none;stroke-opacity:1" /><path
     d="m 79.999098,142.67186 c -0.0144,0 -0.0288,0 -0.0433,0 l -12.97791,-1.39873 c -0.0577,0 -0.10094,-0.0288 -0.1442,-0.0433 l -10.20929,-6.07078 c -0.0721,-0.0433 -0.12978,-0.11536 -0.15862,-0.18746 l -7.81559,-21.39913 c -0.0433,-0.12978 -0.0144,-0.25956 0.0721,-0.3605 0.0865,-0.10094 0.23072,-0.1442 0.3605,-0.11536 l 22.55272,5.49398 c 0.0577,0.0144 0.11536,0.0433 0.15862,0.0865 l 11.47824,10.23813 c 0.1442,0.12978 0.15862,0.3605 0.0288,0.5047 -0.12977,0.1442 -0.36049,0.15862 -0.50469,0.0288 l -11.40614,-10.18045 -21.81731,-5.32095 7.5416,20.6493 10.02184,5.96984 12.89139,1.39873 c 0.20188,0.0288 0.34607,0.20188 0.31723,0.40376 0,0.15862 -0.15861,0.30282 -0.34607,0.30282 z"
     id="path18"
     style="stroke:#000000;stroke-width:0.793751;stroke-dasharray:none;stroke-opacity:1" /><g
     id="g19"
     style="stroke:#000000;stroke-width:0.550455;stroke-dasharray:none;stroke-opacity:1"
     transform="matrix(1.4419901,0,0,1.4419901,127.90197,-3.3071567)">
			<path
   d="m 74.74,182.89 c -0.05,-0.03 -0.09,-0.07 -0.11,-0.12 l -9.02,-19.63 c -0.03,-0.06 -0.03,-0.12 -0.01,-0.18 l 7.44,-24.37 c 0.02,-0.07 0.08,-0.13 0.15,-0.16 l 10.43,-4 -0.44,-8.84 c 0,-0.07 0.02,-0.14 0.07,-0.19 l 2.29,-2.29 -0.56,-19.75 -3.09,-10.82 c -0.04,-0.13 0.04,-0.27 0.17,-0.31 0.13,-0.04 0.27,0.04 0.31,0.17 l 3.1,10.88 0.57,19.92 c 0,0.07 -0.02,0.13 -0.07,0.18 l -2.29,2.29 0.45,8.92 c 0.01,0.11 -0.06,0.21 -0.16,0.25 l -10.48,4.02 -7.38,24.16 8.94,19.47 11.88,6.28 c 0.03,0.02 -0.624194,-0.21341 -0.604194,-0.18341 L 92.75,196.35 l 11.49,-5.31 8.08,-9.44 8.75,-6.96 1.78,-13.16 -5.62,-18.45 c -0.01,-0.03 -0.01,-0.05 -0.01,-0.08 L 117.9,124.9 114.75,106 v -0.09 l 2.65,-13.49 c 0.03,-0.14 0.16,-0.22 0.29,-0.2 0.14,0.03 0.22,0.16 0.2,0.29 l -2.64,13.44 3.15,18.91 -0.67,18.06 5.62,18.46 c 0.01,0.04 0.01,0.07 0.01,0.11 l -1.8,13.31 c -0.01,0.06 -0.04,0.12 -0.09,0.16 0,0 -40.369147,11.26119 -46.73,7.93 z"
   id="path19"
   style="stroke:#000000;stroke-width:0.550455;stroke-dasharray:none;stroke-opacity:1"
   sodipodi:nodetypes="ccccccccscccscccsccccccccccccccccccccccccccccc" />
		</g><path
     d="m 113.87144,185.48454 c -0.0577,0 -0.12977,-0.0144 -0.17303,-0.0433 -0.17304,-0.10094 -0.23072,-0.31723 -0.12978,-0.49027 l 12.48763,-21.60101 -11.93968,10.03625 c -0.12978,0.11536 -0.31724,0.11536 -0.44701,0.0144 -0.12978,-0.10094 -0.18746,-0.27398 -0.11536,-0.4326 l 12.67509,-30.81533 c 0.0721,-0.18746 0.2884,-0.27398 0.47586,-0.20188 0.18745,0.0721 0.27397,0.2884 0.20187,0.47586 l -12.12713,29.4455 12.38669,-10.42559 c 0.12978,-0.11536 0.33166,-0.11536 0.46144,0 0.12978,0.11536 0.17304,0.30282 0.0865,0.46144 l -13.51143,23.37465 c -0.0865,0.1442 -0.20188,0.20188 -0.33166,0.20188 z"
     id="path20"
     style="stroke:#000000;stroke-width:0.793751;stroke-dasharray:none;stroke-opacity:1" /><path
     d="m 56.509078,244.4331 c -0.10094,0 -0.18746,-0.0433 -0.25956,-0.11536 -0.12978,-0.1442 -0.12978,-0.37492 0.0144,-0.5047 l 34.7087,-32.57455 c 0.1442,-0.12978 0.37492,-0.12978 0.5047,0.0144 0.12978,0.1442 0.12978,0.37491 -0.0144,0.50469 l -34.7087,32.57456 c -0.0721,0.0721 -0.15862,0.10094 -0.24514,0.10094 z"
     id="path21"
     style="stroke:#000000;stroke-width:0.793751;stroke-dasharray:none;stroke-opacity:1" /><path
     d="m 142.23539,107.86222 c -0.0865,0 -0.17304,-0.0288 -0.24514,-0.0865 -0.1442,-0.12978 -0.15862,-0.3605 -0.0288,-0.5047 l 10.07951,-11.391718 c 0.12978,-0.1442 0.3605,-0.15862 0.5047,-0.0288 0.1442,0.12978 0.15862,0.3605 0.0288,0.5047 l -10.07951,11.391718 c -0.0721,0.0865 -0.17304,0.11536 -0.25956,0.11536 z"
     id="path22"
     style="stroke:#000000;stroke-width:0.793751;stroke-dasharray:none;stroke-opacity:1" /><path
     d="m 177.99674,71.898982 c -0.17303,0 -0.31723,-0.11536 -0.36049,-0.2884 -0.0433,-0.20187 0.0865,-0.38933 0.28839,-0.41817 l 13.06443,-2.46581 -3.66265,-34.98268 c -0.0144,-0.20187 0.11536,-0.37491 0.31724,-0.38933 0.18746,-0.0288 0.37492,0.12978 0.38934,0.31724 l 3.69149,35.31433 c 0.0144,0.18746 -0.10094,0.3605 -0.2884,0.38934 l -13.38167,2.52348 c -0.0144,-0.0144 -0.0433,0 -0.0577,0 z"
     id="path23"
     style="stroke:#000000;stroke-width:0.793751;stroke-dasharray:none;stroke-opacity:1" /><path
     d="m 191.37841,69.361082 c -0.10094,0 -0.20188,-0.0433 -0.27398,-0.12978 l -19.72642,-23.44676 c -0.12978,-0.15862 -0.11536,-0.37492 0.0433,-0.50469 0.15862,-0.12978 0.37492,-0.10094 0.5047,0.0433 l 19.72642,23.44675 c 0.12978,0.15862 0.11536,0.37492 -0.0433,0.5047 -0.0577,0.0577 -0.1442,0.0865 -0.23072,0.0865 z"
     id="path24"
     style="stroke:#000000;stroke-width:0.793751;stroke-dasharray:none;stroke-opacity:1" /><path
     d="m 119.42311,105.20895 c -0.0721,0 -0.1442,-0.0288 -0.2163,-0.0721 -0.15862,-0.11535 -0.18746,-0.34607 -0.0721,-0.50469 l 15.32835,-20.432998 c 0.11536,-0.15862 0.34608,-0.18746 0.5047,-0.0721 0.15862,0.11536 0.18746,0.34608 0.0721,0.5047 L 119.7115,105.06476 c -0.0721,0.0865 -0.17303,0.14419 -0.28839,0.14419 z"
     id="path25"
     style="stroke:#000000;stroke-width:0.793751;stroke-dasharray:none;stroke-opacity:1" /><path
     d="m 127.26753,84.112642 c -0.0288,0 -0.0721,0 -0.11536,-0.0144 -0.18746,-0.0577 -0.28839,-0.25956 -0.23072,-0.44702 l 6.05636,-19.03427 c 0.0577,-0.18746 0.25956,-0.2884 0.44702,-0.23072 0.18746,0.0577 0.2884,0.25956 0.23072,0.44702 l -6.05636,19.03427 c -0.0288,0.1442 -0.17304,0.24514 -0.33166,0.24514 z"
     id="path26"
     style="stroke:#000000;stroke-width:0.793751;stroke-dasharray:none;stroke-opacity:1" /><g
     id="g27"
     style="stroke:#000000;stroke-width:0.550455;stroke-dasharray:none;stroke-opacity:1"
     transform="matrix(1.4419901,0,0,1.4419901,-38.431552,8.9705373)">
			<path
   d="m 159.37,41.88 c -0.1,0 -0.2,-0.06 -0.24,-0.17 -0.05,-0.13 0.02,-0.27 0.15,-0.32 l 6.89,-2.41 3.87,-6.4 -6.47,4.58 c -0.11,0.08 -0.26,0.05 -0.34,-0.05 l -1.99,-2.53 c -0.08,-0.11 -0.07,-0.27 0.04,-0.35 0.11,-0.08 0.27,-0.07 0.35,0.04 l 1.84,2.35 7.26,-5.14 c 0.1,-0.07 0.23,-0.06 0.31,0.02 0.09,0.08 0.1,0.21 0.04,0.31 l -4.54,7.5 c -0.03,0.05 -0.08,0.09 -0.13,0.11 l -6.98,2.44 c 0,0.02 -0.03,0.02 -0.06,0.02 z"
   id="path27"
   style="stroke:#000000;stroke-width:0.550455;stroke-dasharray:none;stroke-opacity:1" />
		</g><path
     d="m 127.18101,73.312132 c -0.0865,0 -0.18746,-0.0288 -0.24514,-0.10094 l -3.25889,-3.18679 c -0.0433,-0.0433 -0.0721,-0.0865 -0.0865,-0.1442 l -3.27332,-9.7046 c -0.0433,-0.1442 0,-0.30281 0.11536,-0.38933 0.11536,-0.10094 0.27398,-0.10094 0.40376,-0.0288 l 6.44569,3.70591 c 0.17304,0.10094 0.23072,0.31724 0.12978,0.49028 -0.10094,0.17304 -0.31724,0.23072 -0.49028,0.12978 l -5.62376,-3.23006 2.94166,8.72404 3.1868,3.12912 c 0.1442,0.1442 0.1442,0.36049 0,0.50469 -0.0577,0.0577 -0.15862,0.10094 -0.24514,0.10094 z"
     id="path28"
     style="stroke:#000000;stroke-width:0.793751;stroke-dasharray:none;stroke-opacity:1" /><path
     d="m 117.11592,111.39509 c -0.12978,0 -0.24514,-0.0721 -0.31724,-0.18746 l -2.37928,-4.22503 c -0.0288,-0.0433 -0.0433,-0.10094 -0.0433,-0.1442 l -0.5768,-7.599278 c -0.0144,-0.15862 0.0721,-0.30282 0.2163,-0.3605 0.1442,-0.0577 0.30282,-0.0288 0.40376,0.0865 l 5.26326,5.638178 c 0.12978,0.1442 0.12978,0.37492 -0.0144,0.50469 -0.14419,0.12978 -0.37491,0.12978 -0.50469,-0.0144 l -4.57111,-4.88835 0.49028,6.50337 2.35044,4.15294 c 0.10094,0.17303 0.0433,0.38933 -0.12978,0.49027 -0.0577,0.0288 -0.12978,0.0433 -0.18746,0.0433 z"
     id="path29"
     style="stroke:#000000;stroke-width:0.793751;stroke-dasharray:none;stroke-opacity:1" /><path
     d="m 168.76801,80.723962 c -0.12978,0 -0.25956,-0.0721 -0.31724,-0.18746 l -2.33602,-4.49901 c -0.0577,-0.10093 -0.0577,-0.21629 -0.0144,-0.31723 l 4.10967,-8.95476 c 0.0721,-0.1442 0.2163,-0.2163 0.37491,-0.20188 0.15862,0.0144 0.2884,0.1442 0.30282,0.30282 l 1.71597,10.10835 c 0.0288,0.20188 -0.10094,0.38934 -0.2884,0.41818 -0.18746,0.0433 -0.37491,-0.10094 -0.41817,-0.2884 l -1.52851,-8.95476 -3.5473,7.72907 2.26393,4.34039 c 0.0865,0.17303 0.0288,0.38933 -0.15862,0.49027 -0.0433,0 -0.10094,0.0144 -0.15862,0.0144 z"
     id="path30"
     style="stroke:#000000;stroke-width:0.793751;stroke-dasharray:none;stroke-opacity:1" /><g
     id="g31"
     style="stroke:#000000;stroke-width:0.550455;stroke-dasharray:none;stroke-opacity:1"
     transform="matrix(1.4419901,0,0,1.4419901,-38.431552,8.9705373)">
			<path
   d="m 113.01,78.79 c -0.07,0 -0.14,-0.03 -0.19,-0.09 -0.09,-0.11 -0.07,-0.26 0.03,-0.35 l 12.27,-10.2 c 0.02,-0.02 0.05,-0.04 0.08,-0.04 l 11.9,-3.99 7.94,-8.65 c 0.05,-0.05 0.13,-0.08 0.19,-0.08 l 4.94,0.21 4.86,-3.33 -6.18,0.77 c -0.11,0.01 -0.21,-0.04 -0.25,-0.13 -0.05,-0.09 -0.03,-0.21 0.04,-0.29 l 10.49,-11.1 4.22,-14.64 c 0.01,-0.04 0.04,-0.08 0.07,-0.11 l 2.89,-2.75 -0.31,-5.66 -3.5,2.93 c -0.08,0.06 -0.18,0.08 -0.27,0.03 -0.09,-0.04 -0.14,-0.14 -0.14,-0.23 l 0.38,-10.1 -8.78,-8.58 3.37,14.67 c 0.01,0.03 0.01,0.07 0,0.1 l -2.55,14.17 c -0.02,0.1 -0.09,0.18 -0.19,0.2 -0.1,0.02 -0.2,-0.02 -0.26,-0.1 l -7.35,-10.78 -0.75,4.74 c -0.01,0.08 -0.07,0.16 -0.15,0.19 -0.08,0.03 -0.17,0.03 -0.24,-0.02 l -14.03,-9.74 8.13,13.35 12.55,3.61 c 0.12,0.04 0.2,0.16 0.18,0.29 l -2.05,10.36 c -0.01,0.05 -0.04,0.1 -0.07,0.13 l -17.81,17.05 c -0.03,0.02 -0.06,0.04 -0.09,0.06 l -12.8,4.49 -4.69,4.7 c -0.08,0.08 -0.21,0.1 -0.31,0.04 -0.1,-0.06 -0.14,-0.18 -0.11,-0.29 l 5.4,-17.34 0.13,-7.08 c 0,-0.04 0.01,-0.07 0.03,-0.11 l 6.23,-12.68 -6.95,6.43 c -0.06,0.06 -0.15,0.08 -0.23,0.06 -0.08,-0.02 -0.15,-0.08 -0.17,-0.16 l -3.92,-12.1 0.21,25.23 c 0,0.03 0,0.06 -0.02,0.09 l -8.55,22.99 c -0.05,0.13 -0.19,0.2 -0.32,0.15 -0.13,-0.05 -0.19,-0.19 -0.15,-0.32 l 8.54,-22.95 -0.22,-26.81 c 0,-0.12 0.09,-0.23 0.21,-0.25 0.13,-0.02 0.24,0.05 0.28,0.17 l 4.3,13.28 7.65,-7.08 c 0.09,-0.08 0.22,-0.09 0.32,-0.02 0.1,0.07 0.13,0.2 0.08,0.31 l -6.8,13.84 -0.12,7.06 c 0,0.02 0,0.05 -0.01,0.07 l -5.11,16.41 4.02,-4.02 c 0.03,-0.03 0.06,-0.05 0.09,-0.06 l 12.8,-4.49 17.72,-16.96 1.99,-10.05 -12.43,-3.57 c -0.06,-0.02 -0.11,-0.06 -0.14,-0.11 l -8.79,-14.44 c -0.06,-0.1 -0.04,-0.23 0.04,-0.31 0.09,-0.08 0.22,-0.09 0.31,-0.02 l 14.67,10.19 0.79,-4.97 c 0.02,-0.1 0.09,-0.18 0.19,-0.21 0.1,-0.02 0.2,0.02 0.26,0.1 l 7.36,10.8 2.43,-13.52 L 153,1.7 c -0.02,-0.11 0.02,-0.22 0.12,-0.27 0.1,-0.05 0.22,-0.04 0.3,0.04 l 9.47,9.25 c 0.05,0.05 0.08,0.12 0.08,0.19 l -0.36,9.65 3.45,-2.89 c 0.07,-0.06 0.17,-0.07 0.26,-0.04 0.09,0.04 0.15,0.12 0.15,0.21 l 0.38,6.25 c 0,0.07 -0.02,0.15 -0.08,0.2 l -2.93,2.78 -4.22,14.63 c -0.01,0.04 -0.03,0.07 -0.06,0.1 l -10.05,10.63 6.51,-0.81 c 0.12,-0.01 0.22,0.05 0.27,0.16 0.04,0.11 0,0.23 -0.09,0.29 l -5.78,3.96 c -0.04,0.03 -0.1,0.04 -0.15,0.04 l -4.91,-0.2 -7.91,8.62 c -0.03,0.03 -0.06,0.05 -0.1,0.07 l -11.92,4 -12.24,10.17 c -0.06,0.04 -0.12,0.06 -0.18,0.06 z"
   id="path31"
   style="stroke:#000000;stroke-width:0.550455;stroke-dasharray:none;stroke-opacity:1" />
		</g><path
     d="m 68.780408,107.86222 c -0.10094,0 -0.20187,-0.0433 -0.27397,-0.11536 L 58.426928,96.355142 c -0.12978,-0.1442 -0.11536,-0.37492 0.0288,-0.5047 0.1442,-0.12978 0.37492,-0.11536 0.5047,0.0288 l 10.07951,11.391718 c 0.12978,0.1442 0.11536,0.37492 -0.0288,0.5047 -0.0721,0.0577 -0.1442,0.0865 -0.23072,0.0865 z"
     id="path32"
     style="stroke:#000000;stroke-width:0.793751;stroke-dasharray:none;stroke-opacity:1" /><path
     d="m 33.056314,72.41575 c -0.0288,0 -0.0433,0 -0.0721,0 l -13.38167,-2.52348 c -0.18746,-0.0288 -0.31724,-0.20188 -0.2884,-0.38934 l 3.6915,-35.314333 c 0.0144,-0.20188 0.18746,-0.34608 0.38934,-0.31724 0.20187,0.0144 0.34607,0.20188 0.31723,0.38933 l -3.66265,34.982683 13.06443,2.46581 c 0.20188,0.0433 0.33166,0.23072 0.2884,0.41817 -0.0144,0.15862 -0.17304,0.2884 -0.34608,0.2884 z"
     id="path33"
     style="stroke:#000000;stroke-width:0.299861;stroke-dasharray:none;stroke-opacity:1" /><path
     d="m 19.829673,68.999347 c -0.0865,0 -0.15862,-0.0288 -0.23072,-0.0865 -0.15862,-0.12978 -0.17304,-0.3605 -0.0433,-0.5047 l 19.72643,-23.44675 c 0.12978,-0.15862 0.3605,-0.17304 0.50469,-0.0433 0.15862,0.12977 0.17304,0.36049 0.0433,0.50469 l -19.72642,23.44676 c -0.0721,0.0865 -0.17304,0.12978 -0.27398,0.12978 z"
     id="path34"
     style="stroke:#000000;stroke-width:0.29986111;stroke-dasharray:none;stroke-opacity:1" /><path
     d="m 91.592698,105.19453 c -0.11536,0 -0.2163,-0.0433 -0.2884,-0.14419 L 75.961518,84.617342 c -0.11535,-0.15862 -0.0865,-0.38934 0.0721,-0.5047 0.15862,-0.11536 0.38934,-0.0865 0.5047,0.0721 l 15.34278,20.418578 c 0.11535,0.15862 0.0865,0.38934 -0.0721,0.50469 -0.0577,0.0577 -0.12978,0.0865 -0.2163,0.0865 z"
     id="path35"
     style="stroke:#000000;stroke-width:0.793751;stroke-dasharray:none;stroke-opacity:1" /><path
     d="m 83.733848,84.112642 c -0.15862,0 -0.2884,-0.10094 -0.34608,-0.24514 l -6.04193,-19.03427 c -0.0577,-0.18746 0.0433,-0.38934 0.23071,-0.44702 0.18746,-0.0577 0.38934,0.0433 0.44702,0.23072 l 6.04194,19.03427 c 0.0577,0.18746 -0.0433,0.38934 -0.23072,0.44702 -0.0288,0.0144 -0.0721,0.0144 -0.10094,0.0144 z"
     id="path36"
     style="stroke:#000000;stroke-width:0.793751;stroke-dasharray:none;stroke-opacity:1" /><g
     id="g37"
     style="stroke:#000000;stroke-width:0.550455;stroke-dasharray:none;stroke-opacity:1"
     transform="matrix(1.4419901,0,0,1.4419901,-109.95173,-11.286624)">
			<path
   d="m 40.26,41.88 c -0.03,0 -0.06,0 -0.08,-0.01 L 33.2,39.43 c -0.05,-0.02 -0.1,-0.06 -0.13,-0.11 l -4.54,-7.5 c -0.06,-0.1 -0.04,-0.23 0.04,-0.31 0.09,-0.08 0.22,-0.09 0.31,-0.02 l 7.26,5.14 1.84,-2.35 c 0.09,-0.11 0.24,-0.13 0.35,-0.04 0.11,0.09 0.13,0.24 0.04,0.35 l -1.99,2.53 c -0.08,0.1 -0.23,0.13 -0.34,0.05 l -6.47,-4.58 3.87,6.4 6.89,2.41 c 0.13,0.05 0.2,0.19 0.15,0.32 -0.02,0.1 -0.12,0.16 -0.22,0.16 z"
   id="path37"
   style="stroke:#000000;stroke-width:0.550455;stroke-dasharray:none;stroke-opacity:1" />
		</g><path
     d="m 83.820368,73.312132 c -0.0865,0 -0.18746,-0.0433 -0.25956,-0.11536 -0.1442,-0.14419 -0.12978,-0.37491 0,-0.50469 l 3.1868,-3.12912 2.94166,-8.72404 -5.62376,3.23006 c -0.17304,0.10094 -0.38934,0.0433 -0.49028,-0.12978 -0.10094,-0.17304 -0.0433,-0.38934 0.12978,-0.49028 l 6.4457,-3.70591 c 0.12978,-0.0721 0.2884,-0.0577 0.40375,0.0288 0.11536,0.10094 0.15862,0.24513 0.11536,0.38933 l -3.27331,9.7046 c -0.0144,0.0577 -0.0433,0.10094 -0.0865,0.1442 l -3.2589,3.18679 c -0.0433,0.0721 -0.12978,0.11536 -0.23072,0.11536 z"
     id="path38"
     style="stroke:#000000;stroke-width:0.793751;stroke-dasharray:none;stroke-opacity:1" /><path
     d="m 93.899878,111.36625 c -0.0577,0 -0.11536,-0.0144 -0.17304,-0.0433 -0.17304,-0.10094 -0.23072,-0.31724 -0.12978,-0.49027 l 2.33603,-4.1241 0.49027,-6.50337 -4.55668,4.87393 c -0.12978,0.14419 -0.3605,0.15861 -0.5047,0.0144 -0.1442,-0.12978 -0.15862,-0.3605 -0.0144,-0.5047 l 5.24884,-5.623758 c 0.10094,-0.11536 0.27398,-0.1442 0.40376,-0.0865 0.1442,0.0577 0.23072,0.20188 0.2163,0.3605 l -0.5768,7.599278 c 0,0.0577 -0.0144,0.10094 -0.0433,0.1442 l -2.37928,4.19619 c -0.0721,0.11536 -0.18746,0.18746 -0.31724,0.18746 z"
     id="path39"
     style="stroke:#000000;stroke-width:0.793751;stroke-dasharray:none;stroke-opacity:1" /><path
     d="m -36.934917,75.349613 c -0.0577,0 -0.11536,-0.0144 -0.17304,-0.0433 -0.17304,-0.0865 -0.24514,-0.30282 -0.15862,-0.49027 l 2.26392,-4.34039 -3.54729,-7.72907 -1.52851,8.95476 c -0.0288,0.20188 -0.2163,0.33166 -0.41818,0.2884 -0.20188,-0.0288 -0.33166,-0.2163 -0.2884,-0.41818 l 1.71597,-10.10835 c 0.0288,-0.15862 0.1442,-0.27398 0.30282,-0.30282 0.15862,-0.0144 0.30282,0.0577 0.37492,0.20188 l 4.10967,8.95476 c 0.0433,0.10094 0.0433,0.2163 -0.0144,0.31723 l -2.33603,4.49901 c -0.0433,0.1442 -0.17303,0.2163 -0.30281,0.2163 z"
     id="path40"
     style="stroke:#000000;stroke-width:0.793751;stroke-dasharray:none;stroke-opacity:1" /><g
     id="g41"
     style="stroke:#000000;stroke-width:0.550455;stroke-dasharray:none;stroke-opacity:1"
     transform="matrix(1.4419901,0,0,1.4419901,-162.8684,76.770017)">
			<path
   d="m 86.55,79 c -0.06,0 -0.12,-0.02 -0.16,-0.06 L 74.22,68.56 62.3,64.56 c -0.04,-0.01 -0.08,-0.04 -0.1,-0.07 l -7.91,-8.62 -4.91,0.2 c -0.05,0 -0.11,-0.01 -0.15,-0.04 L 43.45,52.07 C 43.35,52 43.32,51.88 43.36,51.78 43.4,51.67 43.5,51.61 43.63,51.62 L 50.14,52.43 40.08,41.8 C 40.05,41.77 40.03,41.74 40.02,41.7 L 35.8,27.07 32.87,24.29 c -0.05,-0.05 -0.08,-0.12 -0.08,-0.2 l 0.38,-6.25 c 0.01,-0.09 0.06,-0.18 0.15,-0.21 0.09,-0.03 0.19,-0.02 0.26,0.04 l 3.45,2.89 -0.36,-9.65 c 0,-0.07 0.02,-0.14 0.08,-0.19 l 9.47,-9.25 c 0.08,-0.08 0.2,-0.09 0.3,-0.04 0.1,0.05 0.15,0.17 0.12,0.27 l -3.55,15.45 2.43,13.52 7.37,-10.8 c 0.06,-0.08 0.16,-0.13 0.26,-0.1 0.1,0.02 0.18,0.1 0.19,0.21 l 0.79,4.97 14.67,-10.19 c 0.1,-0.07 0.23,-0.06 0.31,0.02 0.09,0.08 0.1,0.21 0.04,0.31 l -8.79,14.44 c -0.03,0.05 -0.08,0.09 -0.14,0.11 l -12.43,3.57 1.99,10.05 17.72,16.96 12.8,4.49 c 0.04,0.01 0.07,0.03 0.09,0.06 l 4.02,4.02 -5.11,-16.41 c -0.01,-0.02 -0.01,-0.05 -0.01,-0.07 l -0.12,-7.06 -6.8,-13.84 c -0.05,-0.11 -0.02,-0.24 0.08,-0.31 0.1,-0.07 0.23,-0.07 0.32,0.02 l 7.65,7.1 4.3,-13.3 c 0.04,-0.12 0.15,-0.19 0.28,-0.17 0.12,0.02 0.21,0.12 0.21,0.25 l -0.22,26.81 8.56,22.93 c 0.05,0.13 -0.02,0.27 -0.15,0.32 -0.13,0.05 -0.27,-0.02 -0.32,-0.15 L 84.5,51.93 C 84.49,51.9 84.48,51.87 84.48,51.84 l 0.21,-25.22 -3.92,12.12 c -0.03,0.08 -0.09,0.14 -0.17,0.16 -0.08,0.02 -0.17,0 -0.23,-0.06 l -6.95,-6.45 6.23,12.67 c 0.02,0.03 0.02,0.07 0.03,0.11 l 0.13,7.08 5.4,17.34 c 0.03,0.11 -0.01,0.23 -0.11,0.29 -0.1,0.06 -0.23,0.04 -0.31,-0.04 L 80.1,65.14 67.3,60.65 C 67.27,60.64 67.24,60.62 67.21,60.59 L 49.37,43.57 C 49.33,43.53 49.31,43.49 49.3,43.44 L 47.25,33.08 c -0.03,-0.13 0.05,-0.25 0.18,-0.29 l 12.55,-3.61 8.13,-13.35 -14.03,9.74 c -0.07,0.05 -0.16,0.06 -0.24,0.02 -0.08,-0.03 -0.14,-0.11 -0.15,-0.19 l -0.75,-4.74 -7.35,10.78 c -0.06,0.08 -0.16,0.12 -0.26,0.1 -0.1,-0.02 -0.18,-0.1 -0.19,-0.2 L 42.59,17.17 c -0.01,-0.03 0,-0.07 0,-0.1 l 3.37,-14.67 -8.78,8.58 0.38,10.1 c 0,0.1 -0.05,0.19 -0.14,0.23 -0.09,0.04 -0.19,0.03 -0.27,-0.03 l -3.5,-2.93 -0.34,5.64 2.89,2.75 c 0.03,0.03 0.06,0.07 0.07,0.11 l 4.22,14.64 10.49,11.1 c 0.07,0.08 0.09,0.19 0.04,0.29 -0.05,0.09 -0.15,0.15 -0.25,0.13 l -6.18,-0.77 4.86,3.33 4.94,-0.21 c 0.08,0 0.15,0.03 0.19,0.08 l 7.94,8.65 11.9,3.99 c 0.03,0.01 0.06,0.03 0.08,0.05 l 12.21,10.41 c 0.1,0.09 0.12,0.25 0.03,0.35 C 86.69,78.97 86.62,79 86.55,79 Z"
   id="path41"
   style="stroke:#000000;stroke-width:0.550455;stroke-dasharray:none;stroke-opacity:1" />
		</g><style
     type="text/css"
     id="style1">
	.st0{fill:#FFFFFF;}
	.st1{fill:#8F9399;}
	.st2{fill:#BEC6A8;}
	.st3{fill:#889B64;}
	.st4{fill:#E4E6D9;}
</style></svg>
