<?xml version="1.0" encoding="UTF-8" standalone="no"?>
<!-- Created with Inkscape (http://www.inkscape.org/) -->

<svg
   width="210mm"
   height="297mm"
   viewBox="0 0 210 297"
   version="1.1"
   id="svg1"
   xml:space="preserve"
   inkscape:version="1.4.2 (f4327f4, 2025-05-13)"
   sodipodi:docname="stag_with_all_lines.svg"
   xmlns:inkscape="http://www.inkscape.org/namespaces/inkscape"
   xmlns:sodipodi="http://sodipodi.sourceforge.net/DTD/sodipodi-0.dtd"
   xmlns="http://www.w3.org/2000/svg"
   xmlns:svg="http://www.w3.org/2000/svg"><sodipodi:namedview
     id="namedview1"
     pagecolor="#ffffff"
     bordercolor="#000000"
     borderopacity="0.25"
     inkscape:showpageshadow="2"
     inkscape:pageopacity="0.0"
     inkscape:pagecheckerboard="0"
     inkscape:deskcolor="#d1d1d1"
     inkscape:document-units="mm"
     inkscape:zoom="3.6203867"
     inkscape:cx="523.97718"
     inkscape:cy="660.84101"
     inkscape:window-width="2560"
     inkscape:window-height="1369"
     inkscape:window-x="1912"
     inkscape:window-y="365"
     inkscape:window-maximized="1"
     inkscape:current-layer="layer1" /><defs
     id="defs1">
	

		
		
		
		
		
		
		
		
		
		
		
		
		
		
		
		
		
		
		
		
		
		
		
		
		
		
		
		
		
		
		
		
		
		
		
		
		
		
	</defs><g
     inkscape:label="Ebene 1"
     inkscape:groupmode="layer"
     id="layer1"><g
       id="g1"
       transform="matrix(1.4419901,0,0,1.4419901,86.59168,6.4140972)"
       style="stroke:#0011ad;stroke-width:0.550455;stroke-dasharray:none;stroke-opacity:1" /><path
       style="fill:#000000;fill-opacity:0.0692308;stroke-width:0.88194444;stroke-dasharray:none;stroke:#000000;stroke-opacity:1"
       d="m 95.11654,293.10391 -8.65194,-11.14658 -17.3183,-9.24314 -13.00675,-28.30627 10.71399,-35.40086 15.25625,-5.99868 -0.63447,-12.74719 3.4031,-3.57614 -0.80752,-28.4793 -4.41249,-15.50139 -12.86255,-1.28337 -10.36791,-6.25824 -7.75791,-21.71637 0.37492,-0.15862 22.55273,5.49398 11.63686,10.32465 2.78304,-6.56105 -17.4625,-14.52085 -17.33272,-5.8689 -11.40614,-12.429936 -7.29647,0.23072 -8.33471,-5.71029 -0.12978,-0.41817 0.38934,-0.23072 9.38736,1.16801 -14.36223,-15.22741 -10.0650905,-3.51846 -6.734091,-10.97355 0.0577,-0.44701 0.44702,-0.0288 10.4688415,7.41183 2.55233,-3.23727 -3.0426,-10.54816 -4.2250305,-4.008733 -0.11536,-0.288398 0.54795,-9.012436 0.2163,-0.302818 5.3497905,4.22503 -0.51912,-13.915204 13.771,-13.612386 0.4326,-0.05768 0.17304,0.389337 -5.16232,22.322006 3.54729,19.452452 10.62747,-15.573499 0.37492,-0.144198 1.41315,7.469508 21.15399,-14.693879 0.44702,0.02884 0.0577,0.447017 -12.67509,20.822341 -18.12582,5.30652 2.86956,14.492 5.14827,4.91322 1.60024,-9.42665 0.30282,-0.30282 0.37492,0.20188 4.10967,8.95476 -0.0144,0.31724 -2.19468,4.26916 16.28292,15.60146 18.3998,6.402426 5.92658,5.88332 -7.38299,-23.763986 -0.17304,-10.18045 -9.80553,-19.95714 0.11536,-0.44702 0.46143,0.0288 11.03123,10.23813 6.20055,-19.178471 0.40376,-0.245139 0.30282,0.360498 -0.14954,18.223012 5.85982,-3.50029 0.40376,0.0288 0.11536,0.38933 -3.35984,9.8488 -3.07766,3.00956 -0.10914,10.6605 7.65104,20.495136 4.82217,-5.210036 0.40376,-0.0865 0.2163,0.3605 -0.62006,7.743476 -2.28962,4.03806 2.09301,5.54518 18.34262,-0.0374 2.0216,-5.39226 -2.38789,-4.29776 -0.57679,-7.599276 0.2163,-0.3605 0.40375,0.0865 4.93424,5.285706 7.61108,-20.527546 -0.0288,-10.51211 -3.34542,-3.331 -3.27332,-9.70459 0.11536,-0.38933 0.40376,-0.0288 5.98653,3.44192 -0.17531,-18.135803 0.30282,-0.360498 0.40376,0.24514 6.20055,19.149631 11.03123,-10.20929 0.46143,-0.0288 0.11536,0.44702 -9.80553,19.95714 -0.18746,10.28139 -7.36857,23.663046 5.92658,-5.88332 18.31328,-6.445686 0.1442,-0.0288 16.18595,-15.46742 -2.25633,-4.34553 -0.0144,-0.31723 4.10967,-8.95476 0.37492,-0.20188 0.30282,0.30282 1.62496,9.57222 5.22449,-5.04437 2.86956,-14.492 -17.92393,-5.14791 -0.20188,-0.15862 -12.6751,-20.822336 0.0577,-0.447016 0.44702,-0.02884 21.154,14.693879 1.13917,-7.166689 0.27398,-0.302819 0.37491,0.144198 10.61305,15.573493 3.4811,-19.301641 -0.0289,-0.417568 -5.12491,-22.098502 0.17304,-0.389337 0.4326,0.05768 13.65564,13.338408 0.11536,0.273978 -0.51911,13.915204 4.97487,-4.167351 c 0,0 0.37492,-0.05768 0.37492,-0.05768 l 0.2163,0.302818 0.54795,9.012436 -0.11535,0.288398 -4.22505,4.008737 -3.04259,10.54815 2.50906,3.22285 10.46886,-7.41183 0.44701,0.0288 0.0577,0.44702 -6.54663,10.81493 -0.18746,0.15862 -9.87764,3.43193 -14.492,15.32836 8.13257,-1.01189 1.25478,-0.15613 0.38934,0.23072 -0.12978,0.41818 -8.3347,5.71028 -0.2163,0.0577 -7.08017,-0.2884 -11.40615,12.429946 -0.14419,0.10094 -17.18852,5.76796 -17.43444,14.48597 4.32169,5.88932 10.94976,-9.54594 22.71134,-5.56608 0.3605,0.11536 0.0721,0.3605 -7.81559,21.39913 -0.15861,0.18746 -10.12277,6.07078 -0.1442,0.0577 -13.66589,1.35388 -3.75335,19.10796 4.54227,27.26804 -0.96614,26.04234 8.10399,26.61913 -2.71095,19.58223 -12.67509,10.09392 -11.65127,13.61239 z"
       id="outline" /><path
       style="fill:#ffffff;fill-opacity:1;stroke:#000000;stroke-width:0.881944;stroke-dasharray:none;stroke-opacity:1"
       d="M 86.165134,281.89942 69.475227,273.03229 55.386862,243.98688 91.168912,210.70651 Z"
       id="piece_2"
       sodipodi:nodetypes="ccccc" /><path
       style="fill:#ffffff;fill-opacity:1;stroke:#000000;stroke-width:0.881944;stroke-dasharray:none;stroke-opacity:1"
       d="m 55.826972,243.82268 11.624978,-34.70402 14.818232,-6.0984 c -0.152951,-4.59603 -0.52939,-7.73211 -0.600839,-12.71474 l 3.523932,-3.04743 6.416917,23.93821 z"
       id="piece_1"
       sodipodi:nodetypes="ccccccc" /><path
       style="fill:#ffffff;fill-opacity:1;stroke:#000000;stroke-width:0.881944;stroke-dasharray:none;stroke-opacity:1"
       d="m 95.004931,294.7051 -9.038696,-11.54193 4.682996,-70.30133 -6.19938,-24.14244 0.01305,-29.99659 16.286209,31.42359 6.2378,0.0947 z"
       id="piece_3"
       sodipodi:nodetypes="cccccccc" /><path
       style="fill:#ffffff;fill-opacity:1;stroke:#000000;stroke-width:0.881944;stroke-dasharray:none;stroke-opacity:1"
       d="m 112.6303,287.54374 -17.414995,7.62687 12.425365,-105.25465 6.18671,-0.0144 c 0,0 0.17794,-0.0435 0.23824,-0.0976 0.0603,-0.0541 -0.0371,-3e-5 -0.0371,-3e-5 l 0.021,-4.24078 4.88365,-8.0841 9.67787,73.24783 z"
       id="piece_4"
       sodipodi:nodetypes="ccccsccccc" /><path
       style="fill:#000000;stroke-width:0.88194444;stroke:#000000;stroke-opacity:1;stroke-dasharray:none"
       d="M 125.9337,160.16735 Z"
       id="path46" /><path
       style="fill:#bec6a8;fill-opacity:1;stroke:#000000;stroke-width:0.881944;stroke-dasharray:none;stroke-opacity:1"
       d="m 127.57771,162.72156 5.0252,28.69376 -1.25408,26.13128 8.27061,26.1866 -11.06316,7.50241 -9.71615,-74.04228 z"
       id="piece_5"
       sodipodi:nodetypes="ccccccc" /><path
       style="fill:#ffffff;fill-opacity:1;stroke:#000000;stroke-width:0.881944;stroke-dasharray:none;stroke-opacity:1"
       d="m 112.87751,287.50863 15.81255,-36.37627 10.79839,-6.99266 -2.23509,19.73728 -12.62369,9.57045 z"
       id="piece_6"
       sodipodi:nodetypes="cccccc" /><path
       style="fill:#bec6a8;fill-opacity:1;stroke:#000000;stroke-width:0.881944;stroke-dasharray:none;stroke-opacity:1"
       d="m 97.288928,142.50288 3.428922,30.22256 0.006,17.06492 -15.771212,-29.8641 -0.73247,-1.45151 -4.44629,-15.84123 c 5.93835,0.13573 17.51513,-0.13064 17.51513,-0.13064 z"
       id="piece_7"
       sodipodi:nodetypes="cccccccc" /><path
       style="fill:#bec6a8;fill-opacity:1;stroke:#000000;stroke-width:0.881944;stroke-dasharray:none;stroke-opacity:1"
       d="m 114.43531,183.85041 13.35816,-21.59337 -13.30449,10.70679 z"
       id="piece_11"
       sodipodi:nodetypes="cccc" /><path
       style="fill:#bec6a8;fill-opacity:1;stroke:#000000;stroke-width:0.881944;stroke-dasharray:none;stroke-opacity:1"
       d="m 116.9855,142.52764 -2.86286,30.33596 13.55901,-10.65037 3.56799,-19.56504 c -6.06845,-0.29993 -14.26414,-0.12055 -14.26414,-0.12055 z"
       id="piece_10"
       sodipodi:nodetypes="ccccc" /><path
       style="fill:#bec6a8;fill-opacity:1;stroke:#000000;stroke-width:0.898312;stroke-dasharray:none;stroke-opacity:1"
       d="m 113.70898,174.10135 3.03454,-32.08946 -10.29295,-12.94533 -8.703459,13.01797 3.393889,31.89829 z"
       id="piece_8"
       sodipodi:nodetypes="cccccc" /><path
       style="fill:#bec6a8;fill-opacity:1;stroke:#000000;stroke-width:0.881944;stroke-dasharray:none;stroke-opacity:1"
       d="m 130.94679,142.16024 -1.81518,-13.01887 -4.47017,-6.38802 -9.93154,-5.57673 -18.490654,0.15141 -9.77648,5.46575 -3.2846,6.98602 -3.64848,12.53662 17.7772,-0.2115 9.079454,-13.0533 10.83444,13.0533 z"
       id="piece_14"
       sodipodi:nodetypes="cccccccccccc" /><path
       style="fill:#bec6a8;fill-opacity:1;stroke:#000000;stroke-width:0.882;stroke-dasharray:none;stroke-opacity:1"
       d="m 79.354471,142.1701 -12.764284,-1.20519 -10.094922,-6.18908 -7.5416,-21.38012 22.475044,5.75944 11.670608,10.24402 z"
       id="piece_12"
       sodipodi:nodetypes="ccccccc" /><path
       style="fill:#bec6a8;fill-opacity:1;stroke:#000000;stroke-width:0.881944;stroke-dasharray:none;stroke-opacity:1"
       d="m 129.59017,128.77062 11.21072,-9.83659 22.43849,-5.35749 -7.57814,21.16087 -10.16899,6.116 -14.1174,1.48374 z"
       id="piece_13"
       sodipodi:nodetypes="ccccccc" /><path
       style="fill:#bec6a8;fill-opacity:1;stroke:#000000;stroke-width:0.881944;stroke-dasharray:none;stroke-opacity:1"
       d="M 87.080188,122.52311 69.0418,107.61374 59.960151,96.676764 l 17.199077,5.893626 6.927566,7 -7.777243,-25.362187 15.408045,20.496937 5.079189,-5.286424 -0.593623,7.433554 -2.33603,4.12409 2.424963,6.04918 z"
       id="piece_16"
       sodipodi:nodetypes="cccccccccccc" /><path
       style="fill:#bec6a8;fill-opacity:1;stroke:#000000;stroke-width:0.881944;stroke-dasharray:none;stroke-opacity:1"
       d="M 68.892043,107.75945 59.45654,96.343367 42.378498,80.552238 44.7155,76.065686 l -4.131943,-8.788751 -1.711213,10.124063 -6.12076,-6.638374 -12.678626,-1.352811 12.853996,14.18554 1.216404,1.574613 -9.590307,-1.20233 8.213915,5.71535 7.39741,-0.33363 11.485941,12.546304 z"
       id="piece_17"
       sodipodi:nodetypes="ccccccccccccccc" /><g
       id="g44" /><path
       style="fill:#bec6a8;fill-opacity:1;stroke:#000000;stroke-width:0.881944;stroke-dasharray:none;stroke-opacity:1"
       d="M 91.493833,104.02215 76.335973,84.151716 76.133943,73.986188 66.125231,53.852232 77.737223,64.52055 l 6.34455,-19.763748 -0.0596,18.884577 6.37242,-3.81598 -3.41078,9.928578 -3.03177,2.819061 c -0.14082,5.472449 -0.051,6.954428 -0.14507,11.20579 z"
       id="piece_19"
       sodipodi:nodetypes="cccccccccccc" /><path
       style="fill:#bec6a8;fill-opacity:1;stroke:#000000;stroke-width:0.88194444;stroke-dasharray:none;stroke-opacity:1"
       d="m 114.76376,116.93009 2.30314,-5.48336 -2.40212,-4.51466 -0.49028,-7.278529 5.30857,5.180779 1.16967,-2.932 6.58619,-17.716443 -0.0374,-11.06617 -3.32845,-3.112182 -3.04502,-9.550863 5.9855,3.075028 0.51163,0.291705 -0.41194,-18.732529 5.95666,18.974359 0.27455,0.57737 11.67366,-10.30127 -9.91376,19.989755 -0.17905,10.522939 -6.75322,23.505501 -0.56485,1.34835 6.48648,-7.30012 17.10253,-6.021456 -8.81584,11.269626 -17.75215,14.73929 z"
       id="piece_20"
       sodipodi:nodetypes="ccccccccccccccccccccccccc" /><path
       style="fill:#bec6a8;fill-opacity:1;stroke:#000000;stroke-width:0.88194444;stroke-dasharray:none;stroke-opacity:1"
       d="m 142.581,107.43457 8.45476,-11.062873 17.82461,-15.722594 -2.51232,-4.554577 4.20502,-9.081075 1.52851,8.954757 0.84579,-1.8e-4 5.89322,-5.657331 12.57856,-1.373528 -12.75099,14.445658 c -0.54932,0.580743 -1.10728,1.136215 -1.52423,1.811482 l 9.56923,-1.256495 -8.36008,5.678805 -7.23306,-0.266277 -0.20089,0.0057 -11.4494,12.582828 z"
       id="piece_21"
       sodipodi:nodetypes="ccccccccccccccccc" /><path
       style="fill:#bec6a8;fill-opacity:1;stroke:#000000;stroke-width:0.88194444;stroke-dasharray:none;stroke-opacity:1"
       d="m 191.17353,68.905713 -12.83045,1.343326 2.57103,-13.219742 -1.48851,-0.436216 -16.45265,-4.803633 -12.92922,-20.967986 20.99847,14.227689 0.71618,0.471687 1.25656,-7.588401 10.59863,15.544654 0.37492,0.144198 3.77414,-19.794808 z"
       id="piece_9"
       sodipodi:nodetypes="ccccccccccccc" /><path
       style="fill:#bec6a8;fill-opacity:1;stroke:#000000;stroke-width:0.881944;stroke-dasharray:none;stroke-opacity:1"
       d="m 101.22941,174.54478 12.5686,0.11261 0.016,15.39034 -12.66247,-0.0171 z"
       id="piece_15"
       sodipodi:nodetypes="ccccc" /><path
       style="fill:#bec6a8;fill-opacity:1;stroke:#000000;stroke-width:0.88194444;stroke-dasharray:none;stroke-opacity:1"
       d="m 187.79338,33.705755 -5.15184,-21.921352 13.53766,13.10309 -0.47488,13.906366 0.34804,0.550903 5.18052,-4.341372 0.55664,8.929018 -4.30483,4.01447 -3.11568,10.993703 2.46761,2.990499 0.49027,0.0721 10.64515,-7.152423 -6.64018,10.726906 -10.07968,3.590555 c -1.27668,-11.902191 -2.1588,-23.696406 -3.4588,-35.462463 z"
       id="piece_22"
       sodipodi:nodetypes="ccccccccccccccc" /></g><g
     id="Farbfläche"
     style="stroke:#000000;stroke-width:0.550455;stroke-dasharray:none;stroke-opacity:1"
     transform="matrix(1.4419901,0,0,1.4419901,-141.1643,17.858884)">
	<g
   id="g3"
   style="stroke:#000000;stroke-width:0.550455;stroke-dasharray:none;stroke-opacity:1">
		<path
   class="st0"
   d="m 85.5,104.43 10.74,20.74 c 0.01,0.02 0.02,0.02 0.04,0.04 0.01,0.01 0.02,0.02 0.03,0.03 0.05,0.04 0.1,0.06 0.16,0.06 h 5.17 l -9.13,70.72 -5.44,-7.11 3.09,-48.45 c 0,0 0,0 0,-0.01 0,0 0,0 0,-0.01 0,-0.02 0,-0.04 -0.01,-0.06 l -4.11,-17.21 z"
   id="path1"
   style="stroke:#000000;stroke-width:0.550455;stroke-dasharray:none;stroke-opacity:1" />
		<path
   class="st0"
   d="m 73.48,138.86 10.48,-4.02 c 0.1,-0.04 0.17,-0.14 0.16,-0.25 l -0.45,-8.92 1.97,-1.97 3.98,16.66 -23.28,21.85 z"
   id="path2"
   style="stroke:#000000;stroke-width:0.550455;stroke-dasharray:none;stroke-opacity:1" />
		<line
   class="st0"
   x1="89.629997"
   y1="140.37"
   x2="66.349998"
   y2="162.21001"
   id="line2"
   style="stroke:#000000;stroke-width:0.550455;stroke-dasharray:none;stroke-opacity:1" />
		<polygon
   class="st0"
   points="89.62,141.06 86.58,188.59 75.05,182.49 66.14,163.1 "
   id="polygon2"
   style="stroke:#000000;stroke-width:0.550455;stroke-dasharray:none;stroke-opacity:1" />
		<path
   class="st0"
   d="m 104.21,191.06 -11.23,5.19 9.16,-70.94 h 3.48 c 0.14,0 0.25,-0.11 0.25,-0.25 v -2.82 l 3.11,-5.38 6.86,49.61 z"
   id="path3"
   style="stroke:#000000;stroke-width:0.550455;stroke-dasharray:none;stroke-opacity:1" />
		<line
   class="st0"
   x1="115.84"
   y1="166.47"
   x2="104.21"
   y2="191.06"
   id="line3"
   style="stroke:#000000;stroke-width:0.550455;stroke-dasharray:none;stroke-opacity:1" />
		<polygon
   class="st0"
   points="121.07,174.64 112.32,181.61 105.42,189.67 116.29,166.67 122.78,162 "
   id="polygon3"
   style="stroke:#000000;stroke-width:0.550455;stroke-dasharray:none;stroke-opacity:1" />
	</g>
</g><path
     d="m 79.912578,142.67186 c -0.20188,0 -0.3605,-0.15862 -0.3605,-0.3605 0,-0.20188 0.15862,-0.3605 0.3605,-0.3605 l 17.26062,-0.0144 v 0 c 0.20188,0 0.3605,0.15862 0.3605,0.3605 0,0.20188 -0.15862,0.3605 -0.3605,0.3605 z"
     id="path4"
     style="stroke:#000000;stroke-width:0.793751;stroke-dasharray:none;stroke-opacity:1" /><path
     d="m 100.72309,190.28633 c -0.12978,0 -0.25956,-0.0721 -0.31724,-0.18745 L 84.212298,158.80769 c -0.0865,-0.15862 -0.0433,-0.34608 0.10094,-0.44702 0.1442,-0.10094 0.33166,-0.10094 0.46143,0.0288 l 15.03996,14.16035 -11.17542,-29.4887 c -0.0721,-0.18746 0.0288,-0.38934 0.2163,-0.46144 0.18746,-0.0721 0.38933,0.0288 0.46143,0.20188 l 11.737802,30.95953 c 0.0577,0.15862 0,0.33166 -0.1442,0.4326 -0.12978,0.10093 -0.31723,0.0721 -0.44701,-0.0433 l -14.636202,-13.79985 15.227412,29.4166 c 0.0865,0.17304 0.0288,0.38934 -0.15862,0.49027 -0.0577,0.0144 -0.11536,0.0288 -0.17303,0.0288 z"
     id="detail_7_1"
     style="fill:#000000;fill-opacity:1;stroke:#000000;stroke-width:0.3;stroke-dasharray:none;stroke-opacity:1" /><path
     d="m 171.72733,163.67394 c -0.20188,0 -0.3605,-0.15861 -0.3605,-0.36049 0,-0.20188 0.15862,-0.3605 0.3605,-0.3605 l 13.22304,-0.1442 c 0.18746,0.0288 0.3605,0.15862 0.3605,0.3605 0,0.20188 -0.15862,0.3605 -0.3605,0.3605 z"
     id="path7"
     style="stroke:#000000;stroke-width:0.793751;stroke-dasharray:none;stroke-opacity:1" /><g
     id="g8"
     style="stroke:#000000;stroke-width:0.550455;stroke-dasharray:none;stroke-opacity:1"
     transform="matrix(1.4419901,0,0,1.4419901,83.93824,4.2163055)">
			<path
   d="m 92.67,196.91 c -0.01,0 -0.02,0 -0.03,0 -0.14,-0.02 -0.23,-0.14 -0.22,-0.28 l 9.25,-71.61 c 0.02,-0.14 0.14,-0.23 0.28,-0.22 0.14,0.02 0.23,0.14 0.22,0.28 l -9.25,71.61 c -0.02,0.13 -0.13,0.22 -0.25,0.22 z"
   id="path8"
   style="stroke:#000000;stroke-width:0.550455;stroke-dasharray:none;stroke-opacity:1" />
		</g><path
     d="m 175.46334,258.48449 c -0.17304,0 -0.33166,-0.12977 -0.3605,-0.31723 l -10.05067,-72.6763 c -0.0288,-0.20188 0.11536,-0.37492 0.30282,-0.40376 0.18746,-0.0144 0.37492,0.11536 0.40376,0.30282 l 10.05067,72.6763 c 0.0288,0.20188 -0.11536,0.37491 -0.30282,0.40375 -0.0144,0.0144 -0.0288,0.0144 -0.0433,0.0144 z"
     id="path9"
     style="stroke:#000000;stroke-width:0.793751;stroke-dasharray:none;stroke-opacity:1" /><path
     d="m 153.03787,295.03631 c -0.0577,0 -0.10094,-0.0144 -0.15862,-0.0288 -0.17304,-0.0865 -0.25956,-0.30282 -0.17304,-0.47586 l 16.87128,-35.67483 c 0.0288,-0.0577 0.0721,-0.10094 0.11536,-0.1442 l 10.12277,-7.26763 c 0.15862,-0.11536 0.38934,-0.0865 0.5047,0.0865 0.11536,0.15862 0.0721,0.38934 -0.0865,0.50469 l -10.03625,7.22437 -16.82803,35.58832 c -0.0721,0.11536 -0.20187,0.18746 -0.33165,0.18746 z"
     id="path10"
     style="stroke:#000000;stroke-width:0.793751;stroke-dasharray:none;stroke-opacity:1" /><path
     d="m 202.29611,285.78015 c -0.0144,0 -0.0144,0 -0.0288,0 -0.20188,-0.0144 -0.34608,-0.18746 -0.33166,-0.37492 l 4.47017,-69.93652 -5.92658,-24.80223 c -0.0433,-0.18745 0.0721,-0.38933 0.27398,-0.43259 0.20188,-0.0577 0.38934,0.0721 0.4326,0.27398 l 5.92658,24.8599 c 0.0144,0.0288 0.0144,0.0721 0.0144,0.10094 l -4.47017,69.96536 c -0.0144,0.20188 -0.17304,0.34608 -0.3605,0.34608 z"
     id="path11"
     style="stroke:#000000;stroke-width:0.793751;stroke-dasharray:none;stroke-opacity:1" /><path
     d="m 97.184052,142.27184 c -0.0144,-0.0865 -0.0678,-0.19131 -0.0245,-0.26341 l 17.376338,-25.09198 c 0.11536,-0.15862 0.34608,-0.20188 0.5047,-0.0865 0.15861,0.11536 0.20187,0.34607 0.0865,0.50469 l -17.472538,24.94009 z"
     id="detail_14_2"
     style="fill:#000000;fill-opacity:1;stroke:#000000;stroke-width:0.3;stroke-dasharray:none;stroke-opacity:1"
     sodipodi:nodetypes="cccsccc" /><path
     d="m 106.97832,129.63677 c 0.41047,0.23977 -0.70672,-0.44893 -0.53553,-0.10082 L 95.61136,117.56276 c 0.11536,-0.15862 0.89236,-0.36318 1.05098,-0.2478 0.15861,0.11536 0.20187,0.34607 0.0865,0.50469 l 10.43014,11.61697 z"
     id="detail_14_3"
     style="fill:#000000;fill-opacity:1;stroke:#000000;stroke-width:0.3;stroke-dasharray:none;stroke-opacity:1"
     sodipodi:nodetypes="cccsccc" /><g
     id="g13"
     style="stroke:#000000;stroke-width:0.20804581;stroke-dasharray:none;stroke-opacity:1;fill:#000000;fill-opacity:1"
     transform="matrix(1.4419901,0,0,1.4419901,-38.431552,8.9705373)">
			
		</g><path
     d="m 130.95335,143.35533 c -0.0721,0 -0.1442,-0.0144 -0.2163,-0.0721 -0.15862,-0.11536 -0.20188,-0.34607 -0.0865,-0.50469 l 11.98294,-16.87129 c 0.0288,-0.0433 0.0577,-0.0721 0.10094,-0.10094 l 19.72642,-11.89641 c 0.17304,-0.10094 0.38934,-0.0433 0.49028,0.11535 0.10094,0.17304 0.0433,0.38934 -0.11536,0.49028 l -19.66874,11.85316 -11.93968,16.8136 c -0.0577,0.12978 -0.17304,0.17304 -0.27398,0.17304 z"
     id="detail_13_2"
     style="fill:#000000;fill-opacity:1;stroke:#000000;stroke-width:0.3;stroke-dasharray:none;stroke-opacity:1" /><path
     d="m 136.82793,135.15909 c -0.20188,0 -0.3605,-0.15862 -0.3605,-0.3605 0,-0.20188 0.15862,-0.3605 0.3605,-0.3605 l 18.27001,-0.1442 c 0,0 0,0 0,0 0.20188,0 0.3605,0.15862 0.3605,0.3605 0,0.20188 -0.15862,0.3605 -0.3605,0.3605 z"
     id="detail_13_1"
     style="stroke:#000000;stroke-width:0.3;stroke-dasharray:none;stroke-opacity:1;fill:#000000;fill-opacity:1" /><path
     d="m 218.44841,154.23296 c -0.18746,0 -0.34608,-0.1442 -0.3605,-0.33166 -0.0144,-0.20188 0.12978,-0.37492 0.31724,-0.38934 l 13.82868,-1.38431 9.94973,-5.96984 7.54161,-20.6493 -21.81731,5.32095 -11.17542,9.74785 c -0.1442,0.12978 -0.37492,0.11536 -0.5047,-0.0288 -0.12978,-0.1442 -0.11536,-0.37492 0.0288,-0.5047 l 11.24752,-9.80553 c 0.0433,-0.0433 0.10094,-0.0577 0.15862,-0.0721 l 22.55273,-5.49398 c 0.12978,-0.0288 0.25956,0.0144 0.36049,0.11536 0.0865,0.10094 0.11536,0.24514 0.0721,0.3605 l -7.81558,21.39913 c -0.0288,0.0721 -0.0865,0.1442 -0.15862,0.18746 l -10.12277,6.07078 c -0.0433,0.0288 -0.10094,0.0433 -0.1442,0.0577 l -13.91521,1.38431 c -0.0288,-0.0144 -0.0433,-0.0144 -0.0433,-0.0144 z"
     id="path15"
     style="stroke:#000000;stroke-width:0.793751;stroke-dasharray:none;stroke-opacity:1" /><g
     id="detail_12_1sdf"
     style="stroke:#000000;stroke-width:0.208046;stroke-dasharray:none;stroke-opacity:1"
     transform="matrix(1.4419901,0,0,1.4419901,-71.391313,-12.442346)">
			
		</g><g
     id="detail_12_3"
     style="stroke:#000000;stroke-width:0.208046;stroke-dasharray:none;stroke-opacity:1"
     transform="matrix(1.4419901,0,0,1.4419901,-65.374628,16.83918)">
			<path
   d="m 82.13,92.72 c -0.08,0 -0.16,-0.04 -0.21,-0.11 L 74.23,80.95 60.51,72.66 c -0.12,-0.07 -0.16,-0.22 -0.08,-0.34 0.07,-0.12 0.23,-0.15 0.34,-0.08 l 13.77,8.32 c 0.03,0.02 0.06,0.04 0.08,0.08 l 7.72,11.71 c 0.08,0.12 0.04,0.27 -0.07,0.35 -0.04,0.01 -0.09,0.02 -0.14,0.02 z"
   id="detail_12_1-5"
   style="fill:#000000;fill-opacity:1;stroke:#000000;stroke-width:0.208046;stroke-dasharray:none;stroke-opacity:1" />
		</g><path
     d="m 56.813322,135.18987 c -0.195687,0 -0.349441,-0.15944 -0.349441,-0.36237 0,-0.20292 0.153754,-0.36236 0.349441,-0.36236 l 17.65367,-0.0289 v 0 c 0.195687,0 0.349441,0.15944 0.349441,0.36237 0,0.20292 -0.153754,0.36236 -0.349441,0.36236 z"
     id="detail_12_2"
     style="fill:#000000;fill-opacity:1;stroke:#000000;stroke-width:0.296125;stroke-dasharray:none;stroke-opacity:1" /><path
     d="m 41.996712,134.04824 c -0.0144,0 -0.0288,0 -0.0433,0 l -12.97791,-1.39873 c -0.0577,0 -0.10094,-0.0288 -0.1442,-0.0433 l -10.20929,-6.07078 c -0.0721,-0.0433 -0.12978,-0.11536 -0.15862,-0.18746 l -7.81559,-21.39913 c -0.0433,-0.12978 -0.0144,-0.25956 0.0721,-0.3605 0.0865,-0.10094 0.23072,-0.1442 0.3605,-0.11536 l 22.55272,5.49398 c 0.0577,0.0144 0.11536,0.0433 0.15862,0.0865 l 11.47824,10.23813 c 0.1442,0.12978 0.15862,0.3605 0.0288,0.5047 -0.12977,0.1442 -0.36049,0.15862 -0.50469,0.0288 l -11.40614,-10.18045 -21.81731,-5.32095 7.5416,20.6493 10.02184,5.96984 12.89139,1.39873 c 0.20188,0.0288 0.34607,0.20188 0.31723,0.40376 0,0.15862 -0.15861,0.30282 -0.34607,0.30282 z"
     id="path18"
     style="stroke:#000000;stroke-width:0.793751;stroke-dasharray:none;stroke-opacity:1" /><path
     d="m 80.291423,143.25651 c -0.115359,0 -0.230719,-0.0577 -0.302818,-0.15862 l -11.088904,-16.8136 -19.784104,-11.9541 c -0.173039,-0.10094 -0.230719,-0.31724 -0.115359,-0.49028 0.100939,-0.17304 0.331657,-0.2163 0.490276,-0.11536 l 19.856204,11.99736 c 0.04326,0.0288 0.08652,0.0577 0.115359,0.11536 l 11.132164,16.8857 c 0.115359,0.17304 0.05768,0.38934 -0.10094,0.5047 -0.05768,0.0144 -0.129779,0.0288 -0.201878,0.0288 z"
     id="detail_12_1"
     style="fill:#000000;fill-opacity:1;stroke:#000000;stroke-width:0.3;stroke-dasharray:none;stroke-opacity:1" /><g
     id="g19"
     style="stroke:#000000;stroke-width:0.550455;stroke-dasharray:none;stroke-opacity:1"
     transform="matrix(1.4419901,0,0,1.4419901,127.90197,-3.3071567)">
			<path
   d="m 74.74,182.89 c -0.05,-0.03 -0.09,-0.07 -0.11,-0.12 l -9.02,-19.63 c -0.03,-0.06 -0.03,-0.12 -0.01,-0.18 l 7.44,-24.37 c 0.02,-0.07 0.08,-0.13 0.15,-0.16 l 10.43,-4 -0.44,-8.84 c 0,-0.07 0.02,-0.14 0.07,-0.19 l 2.29,-2.29 -0.56,-19.75 -3.09,-10.82 c -0.04,-0.13 0.04,-0.27 0.17,-0.31 0.13,-0.04 0.27,0.04 0.31,0.17 l 3.1,10.88 0.57,19.92 c 0,0.07 -0.02,0.13 -0.07,0.18 l -2.29,2.29 0.45,8.92 c 0.01,0.11 -0.06,0.21 -0.16,0.25 l -10.48,4.02 -7.38,24.16 8.94,19.47 11.88,6.28 c 0.03,0.02 -0.624194,-0.21341 -0.604194,-0.18341 L 92.75,196.35 l 11.49,-5.31 8.08,-9.44 8.75,-6.96 1.78,-13.16 -5.62,-18.45 c -0.01,-0.03 -0.01,-0.05 -0.01,-0.08 L 117.9,124.9 114.75,106 v -0.09 l 2.65,-13.49 c 0.03,-0.14 0.16,-0.22 0.29,-0.2 0.14,0.03 0.22,0.16 0.2,0.29 l -2.64,13.44 3.15,18.91 -0.67,18.06 5.62,18.46 c 0.01,0.04 0.01,0.07 0.01,0.11 l -1.8,13.31 c -0.01,0.06 -0.04,0.12 -0.09,0.16 0,0 -40.369147,11.26119 -46.73,7.93 z"
   id="path19"
   style="stroke:#000000;stroke-width:0.550455;stroke-dasharray:none;stroke-opacity:1"
   sodipodi:nodetypes="ccccccccscccscccsccccccccccccccccccccccccccccc" />
		</g><path
     d="m 114.23028,172.97233 c -0.12982,0.11264 -0.31733,0.11264 -0.44713,0.0141 -0.12981,-0.0985 -0.18751,-0.2675 -0.11539,-0.42237 l 12.67841,-30.08689 c 0.0721,-0.18302 0.28848,-0.2675 0.47599,-0.1971 0.1875,0.0704 0.27404,0.28158 0.20192,0.46461 l -12.13031,28.74943 z"
     id="detail_10_1"
     style="fill:#000000;fill-opacity:1;stroke:#000000;stroke-width:0.296472;stroke-dasharray:none;stroke-opacity:1"
     sodipodi:nodetypes="csccsccc" /><path
     d="m 253.49964,132.6053 c -0.10094,0 -0.18746,-0.0433 -0.25956,-0.11536 -0.12978,-0.1442 -0.12978,-0.37492 0.0144,-0.5047 l 34.7087,-32.57455 c 0.1442,-0.12978 0.37492,-0.12978 0.5047,0.0144 0.12978,0.1442 0.12978,0.37491 -0.0144,0.50469 l -34.7087,32.57456 c -0.0721,0.0721 -0.15862,0.10094 -0.24514,0.10094 z"
     id="path21"
     style="stroke:#000000;stroke-width:0.793751;stroke-dasharray:none;stroke-opacity:1" /><path
     d="m -58.592604,68.69053 c -0.0865,0 -0.17304,-0.0288 -0.24514,-0.0865 -0.1442,-0.12978 -0.15862,-0.3605 -0.0288,-0.5047 l 10.07951,-11.391718 c 0.12978,-0.1442 0.3605,-0.15862 0.5047,-0.0288 0.1442,0.12978 0.15862,0.3605 0.0288,0.5047 l -10.07951,11.391718 c -0.0721,0.0865 -0.17304,0.11536 -0.25956,0.11536 z"
     id="path22"
     style="stroke:#000000;stroke-width:0.793751;stroke-dasharray:none;stroke-opacity:1" /><path
     d="m -42.709425,182.1059 c -0.17303,0 -0.31723,-0.11536 -0.36049,-0.2884 -0.0433,-0.20187 0.0865,-0.38933 0.28839,-0.41817 l 13.06443,-2.46581 -3.66265,-34.98268 c -0.0144,-0.20187 0.11536,-0.37491 0.31724,-0.38933 0.18746,-0.0288 0.37492,0.12978 0.38934,0.31724 l 3.69149,35.31433 c 0.0144,0.18746 -0.10094,0.3605 -0.2884,0.38934 l -13.38167,2.52348 c -0.0144,-0.0144 -0.0433,0 -0.0577,0 z"
     id="path23"
     style="stroke:#000000;stroke-width:0.793751;stroke-dasharray:none;stroke-opacity:1" /><path
     d="m 190.79375,68.484104 c -0.10094,0 -0.20188,-0.0433 -0.27398,-0.12978 l -19.72642,-23.44676 c -0.12978,-0.15862 -0.11536,-0.37492 0.0433,-0.50469 0.15862,-0.12978 0.37492,-0.10094 0.5047,0.0433 l 19.72642,23.44675 c 0.12978,0.15862 0.11536,0.37492 -0.0433,0.5047 -0.0577,0.0577 -0.1442,0.0865 -0.23072,0.0865 z"
     id="detail_9_1"
     style="stroke:#000000;stroke-width:0.3;stroke-dasharray:none;stroke-opacity:1;fill:#000000;fill-opacity:1" /><path
     d="m 119.23413,105.70799 c -0.0721,0 -0.1442,-0.0288 -0.2163,-0.0721 -0.15862,-0.11535 -0.18746,-0.34607 -0.0721,-0.50469 l 15.32835,-20.433006 c 0.11536,-0.15862 0.34608,-0.18746 0.5047,-0.0721 0.15862,0.11536 0.18746,0.34608 0.0721,0.5047 L 119.52252,105.5638 c -0.0721,0.0865 -0.17303,0.14419 -0.28839,0.14419 z"
     id="detail_20_1"
     style="fill:#000000;fill-opacity:1;stroke:#000000;stroke-width:0.3;stroke-dasharray:none;stroke-opacity:1" /><path
     d="m 127.26753,84.112642 c -0.0288,0 -0.0721,0 -0.11536,-0.0144 -0.18746,-0.0577 -0.28839,-0.25956 -0.23072,-0.44702 l 6.05636,-19.03427 c 0.0577,-0.18746 0.25956,-0.2884 0.44702,-0.23072 0.18746,0.0577 0.2884,0.25956 0.23072,0.44702 l -6.05636,19.03427 c -0.0288,0.1442 -0.17304,0.24514 -0.33166,0.24514 z"
     id="detail_20_2"
     style="stroke:#000000;stroke-width:0.52916663;stroke-dasharray:none;stroke-opacity:1;fill:#000000;fill-opacity:1" /><path
     d="m 127.08474,73.580359 c 0.0224,0 -0.16315,-0.01827 -0.12955,-0.02607 0.14575,-0.03103 0.6079,0.04312 0.56307,-0.0577 l -0.0134,-10.382567 c -0.0448,-0.100813 -0.56722,-0.24645 -0.71297,-0.21543 -0.14575,0.03103 -0.22423,0.139588 -0.17938,0.240402 l 0.0864,10.309486 c 0.0224,0.07755 0.11627,0.07702 0.2396,0.07702 z"
     id="detail_20_3"
     style="stroke:#000000;stroke-width:0.3;stroke-dasharray:none;stroke-opacity:1;fill:#000000;fill-opacity:1"
     sodipodi:nodetypes="ccccscccc" /><g
     id="g27"
     style="stroke:#000000;stroke-width:0.550455;stroke-dasharray:none;stroke-opacity:1"
     transform="matrix(1.4419901,0,0,1.4419901,-245.69072,100.76092)">
			<path
   d="m 159.37,41.88 c -0.1,0 -0.2,-0.06 -0.24,-0.17 -0.05,-0.13 0.02,-0.27 0.15,-0.32 l 6.89,-2.41 3.87,-6.4 -6.47,4.58 c -0.11,0.08 -0.26,0.05 -0.34,-0.05 l -1.99,-2.53 c -0.08,-0.11 -0.07,-0.27 0.04,-0.35 0.11,-0.08 0.27,-0.07 0.35,0.04 l 1.84,2.35 7.26,-5.14 c 0.1,-0.07 0.23,-0.06 0.31,0.02 0.09,0.08 0.1,0.21 0.04,0.31 l -4.54,7.5 c -0.03,0.05 -0.08,0.09 -0.13,0.11 l -6.98,2.44 c 0,0.02 -0.03,0.02 -0.06,0.02 z"
   id="path27"
   style="stroke:#000000;stroke-width:0.550455;stroke-dasharray:none;stroke-opacity:1" />
		</g><path
     d="m -15.032526,42.616331 c -0.0865,0 -0.18746,-0.0288 -0.24514,-0.10094 l -3.25889,-3.18679 c -0.0433,-0.0433 -0.0721,-0.0865 -0.0865,-0.1442 l -3.27332,-9.7046 c -0.0433,-0.1442 0,-0.30281 0.11536,-0.38933 0.11536,-0.10094 0.27398,-0.10094 0.40376,-0.0288 l 6.44569,3.70591 c 0.17304,0.10094 0.23072,0.31724 0.12978,0.49028 -0.10094,0.17304 -0.31724,0.23072 -0.49028,0.12978 l -5.62376,-3.23006 2.94166,8.72404 3.1868,3.12912 c 0.1442,0.1442 0.1442,0.36049 0,0.50469 -0.0577,0.0577 -0.15862,0.10094 -0.24514,0.10094 z"
     id="path28"
     style="stroke:#000000;stroke-width:0.793751;stroke-dasharray:none;stroke-opacity:1" /><path
     d="m -67.926468,187.69219 c -0.12978,0 -0.24514,-0.0721 -0.31724,-0.18746 l -2.37928,-4.22503 c -0.0288,-0.0433 -0.0433,-0.10094 -0.0433,-0.1442 l -0.5768,-7.59928 c -0.0144,-0.15862 0.0721,-0.30282 0.2163,-0.3605 0.1442,-0.0577 0.30282,-0.0288 0.40376,0.0865 l 5.26326,5.63818 c 0.12978,0.1442 0.12978,0.37492 -0.0144,0.50469 -0.14419,0.12978 -0.37491,0.12978 -0.50469,-0.0144 l -4.57111,-4.88835 0.49028,6.50337 2.35044,4.15294 c 0.10094,0.17303 0.0433,0.38933 -0.12978,0.49027 -0.0577,0.0288 -0.12978,0.0433 -0.18746,0.0433 z"
     id="path29"
     style="stroke:#000000;stroke-width:0.793751;stroke-dasharray:none;stroke-opacity:1" /><path
     d="m -20.366942,68.153942 c -0.12978,0 -0.25956,-0.0721 -0.31724,-0.18746 l -2.33602,-4.49901 c -0.0577,-0.10093 -0.0577,-0.21629 -0.0144,-0.31723 l 4.10967,-8.95476 c 0.0721,-0.1442 0.2163,-0.2163 0.37491,-0.20188 0.15862,0.0144 0.2884,0.1442 0.30282,0.30282 l 1.71597,10.10835 c 0.0288,0.20188 -0.10094,0.38934 -0.2884,0.41818 -0.18746,0.0433 -0.37491,-0.10094 -0.41817,-0.2884 l -1.52851,-8.95476 -3.5473,7.72907 2.26393,4.34039 c 0.0865,0.17303 0.0288,0.38933 -0.15862,0.49027 -0.0433,0 -0.10094,0.0144 -0.15862,0.0144 z"
     id="path30"
     style="stroke:#000000;stroke-width:0.793751;stroke-dasharray:none;stroke-opacity:1" /><g
     id="g31"
     style="stroke:#000000;stroke-width:0.550455;stroke-dasharray:none;stroke-opacity:1"
     transform="matrix(1.4419901,0,0,1.4419901,-283.98543,75.913202)">
			<path
   d="m 113.01,78.79 c -0.07,0 -0.14,-0.03 -0.19,-0.09 -0.09,-0.11 -0.07,-0.26 0.03,-0.35 l 12.27,-10.2 c 0.02,-0.02 0.05,-0.04 0.08,-0.04 l 11.9,-3.99 7.94,-8.65 c 0.05,-0.05 0.13,-0.08 0.19,-0.08 l 4.94,0.21 4.86,-3.33 -6.18,0.77 c -0.11,0.01 -0.21,-0.04 -0.25,-0.13 -0.05,-0.09 -0.03,-0.21 0.04,-0.29 l 10.49,-11.1 4.22,-14.64 c 0.01,-0.04 0.04,-0.08 0.07,-0.11 l 2.89,-2.75 -0.31,-5.66 -3.5,2.93 c -0.08,0.06 -0.18,0.08 -0.27,0.03 -0.09,-0.04 -0.14,-0.14 -0.14,-0.23 l 0.38,-10.1 -8.78,-8.58 3.37,14.67 c 0.01,0.03 0.01,0.07 0,0.1 l -2.55,14.17 c -0.02,0.1 -0.09,0.18 -0.19,0.2 -0.1,0.02 -0.2,-0.02 -0.26,-0.1 l -7.35,-10.78 -0.75,4.74 c -0.01,0.08 -0.07,0.16 -0.15,0.19 -0.08,0.03 -0.17,0.03 -0.24,-0.02 l -14.03,-9.74 8.13,13.35 12.55,3.61 c 0.12,0.04 0.2,0.16 0.18,0.29 l -2.05,10.36 c -0.01,0.05 -0.04,0.1 -0.07,0.13 l -17.81,17.05 c -0.03,0.02 -0.06,0.04 -0.09,0.06 l -12.8,4.49 -4.69,4.7 c -0.08,0.08 -0.21,0.1 -0.31,0.04 -0.1,-0.06 -0.14,-0.18 -0.11,-0.29 l 5.4,-17.34 0.13,-7.08 c 0,-0.04 0.01,-0.07 0.03,-0.11 l 6.23,-12.68 -6.95,6.43 c -0.06,0.06 -0.15,0.08 -0.23,0.06 -0.08,-0.02 -0.15,-0.08 -0.17,-0.16 l -3.92,-12.1 0.21,25.23 c 0,0.03 0,0.06 -0.02,0.09 l -8.55,22.99 c -0.05,0.13 -0.19,0.2 -0.32,0.15 -0.13,-0.05 -0.19,-0.19 -0.15,-0.32 l 8.54,-22.95 -0.22,-26.81 c 0,-0.12 0.09,-0.23 0.21,-0.25 0.13,-0.02 0.24,0.05 0.28,0.17 l 4.3,13.28 7.65,-7.08 c 0.09,-0.08 0.22,-0.09 0.32,-0.02 0.1,0.07 0.13,0.2 0.08,0.31 l -6.8,13.84 -0.12,7.06 c 0,0.02 0,0.05 -0.01,0.07 l -5.11,16.41 4.02,-4.02 c 0.03,-0.03 0.06,-0.05 0.09,-0.06 l 12.8,-4.49 17.72,-16.96 1.99,-10.05 -12.43,-3.57 c -0.06,-0.02 -0.11,-0.06 -0.14,-0.11 l -8.79,-14.44 c -0.06,-0.1 -0.04,-0.23 0.04,-0.31 0.09,-0.08 0.22,-0.09 0.31,-0.02 l 14.67,10.19 0.79,-4.97 c 0.02,-0.1 0.09,-0.18 0.19,-0.21 0.1,-0.02 0.2,0.02 0.26,0.1 l 7.36,10.8 2.43,-13.52 L 153,1.7 c -0.02,-0.11 0.02,-0.22 0.12,-0.27 0.1,-0.05 0.22,-0.04 0.3,0.04 l 9.47,9.25 c 0.05,0.05 0.08,0.12 0.08,0.19 l -0.36,9.65 3.45,-2.89 c 0.07,-0.06 0.17,-0.07 0.26,-0.04 0.09,0.04 0.15,0.12 0.15,0.21 l 0.38,6.25 c 0,0.07 -0.02,0.15 -0.08,0.2 l -2.93,2.78 -4.22,14.63 c -0.01,0.04 -0.03,0.07 -0.06,0.1 l -10.05,10.63 6.51,-0.81 c 0.12,-0.01 0.22,0.05 0.27,0.16 0.04,0.11 0,0.23 -0.09,0.29 l -5.78,3.96 c -0.04,0.03 -0.1,0.04 -0.15,0.04 l -4.91,-0.2 -7.91,8.62 c -0.03,0.03 -0.06,0.05 -0.1,0.07 l -11.92,4 -12.24,10.17 c -0.06,0.04 -0.12,0.06 -0.18,0.06 z"
   id="path31"
   style="stroke:#000000;stroke-width:0.550455;stroke-dasharray:none;stroke-opacity:1" />
		</g><path
     d="m 83.92684,74.351149 c -0.10094,0 -0.183599,-0.591411 -0.255699,-0.663471 l 0.06055,-10.039712 c -0.12978,-0.1442 0.103885,-0.448002 0.248045,-0.577782 0.1442,-0.12978 0.37492,-0.11536 0.5047,0.0288 l -0.06055,10.91669 c 0.12978,0.1442 -0.195236,-0.02703 -0.339396,0.102752 -0.0721,0.0577 -0.180741,-0.187556 -0.267261,-0.187556 z"
     id="detail_19_2"
     style="stroke:#000000;stroke-width:0.3;stroke-dasharray:none;stroke-opacity:1;fill:#000000;fill-opacity:1"
     sodipodi:nodetypes="ccccccccc" /><path
     id="piece_18_old"
     style="fill:#bec6a8;fill-opacity:1;stroke:#000000;stroke-width:0.881944;stroke-dasharray:none;stroke-opacity:1"
     d="m 28.233419,12.000818 -13.642578,13.354224 0.648539,14.529862 -5.5319622,-4.522721 -0.800468,8.804631 4.5785322,4.227648 3.040124,10.627776 -2.41639,2.940905 -0.235644,0.10387 L 2.8422037,55.069507 9.5771932,65.975302 20.371366,69.873255 33.269287,71.626636 30.056046,57.017192 C 36.133383,55.314651 41.756187,53.57468 48.243567,51.753947 L 60.845382,31.004826 39.704553,45.250468 39.22913,45.571896 37.988379,38.228158 27.014888,53.917123 26.741003,53.628768 23.115385,34.756535 23.353096,33.843929 Z"
     sodipodi:nodetypes="cccccccccccccccccccccccc" /><path
     d="m 32.952961,72.932515 0.883914,-0.671794 -14.10514,-1.993796 c -0.18746,-0.0288 -0.485188,-0.318152 -0.456348,-0.505612 l 3.626904,-35.055951 c 0.0144,-0.20188 0.18746,-0.34608 0.38934,-0.31724 0.20187,0.0144 0.34607,0.20188 0.31723,0.38933 l -3.66265,34.982683 13.374489,1.613149 c 0.20188,0.0433 0.112035,0.282396 0.06877,0.469846 -0.0144,0.15862 -0.263474,1.089385 -0.436514,1.089385 z"
     id="detail_18_2"
     style="fill:#000000;fill-opacity:1;stroke:#000000;stroke-width:0.3;stroke-dasharray:none;stroke-opacity:1"
     sodipodi:nodetypes="scccccccccs" /><path
     d="m 20.139731,69.1027 c -0.0865,0 -0.15862,-0.0288 -0.23072,-0.0865 -0.15862,-0.12978 -0.17304,-0.3605 -0.0433,-0.5047 l 19.72643,-23.44675 c 0.12978,-0.15862 0.3605,-0.17304 0.50469,-0.0433 0.15862,0.12977 0.17304,0.36049 0.0433,0.50469 L 20.413711,68.9729 c -0.0721,0.0865 -0.17304,0.12978 -0.27398,0.12978 z"
     id="detail_18_1"
     style="fill:#000000;fill-opacity:1;stroke:#000000;stroke-width:0.3;stroke-dasharray:none;stroke-opacity:1"
     sodipodi:nodetypes="ccccccccc" /><path
     d="m -6.0529863,120.51596 c -0.11536,0 -0.2163,-0.0433 -0.2884,-0.14419 L -21.684167,99.938771 c -0.11535,-0.15862 -0.0865,-0.38934 0.0721,-0.5047 0.15862,-0.11536 0.38934,-0.0865 0.5047,0.0721 l 15.3427807,20.418579 c 0.11535,0.15862 0.0865,0.38934 -0.0721,0.50469 -0.0577,0.0577 -0.12978,0.0865 -0.2163,0.0865 z"
     id="path35"
     style="stroke:#000000;stroke-width:0.793751;stroke-dasharray:none;stroke-opacity:1" /><path
     d="m 48.254178,86.078026 c -0.07137,4.01e-4 -6.289017,-5.40961 -6.333877,-5.45473 l -3.023116,-2.615312 c -0.07176,-0.07096 -0.419908,-1.307617 -0.322088,-1.360066 0.09785,-0.05244 0.08248,-0.09636 0.154254,-0.02543 l 9.610392,8.823153 c 0.07176,0.07096 0.145852,0.540261 0.04802,0.592706 -0.03555,0.02615 -0.08007,0.03935 -0.133597,0.03965 z"
     id="detail_17_1"
     style="stroke:#000000;stroke-width:0.3;stroke-dasharray:none;stroke-opacity:1;fill:#000000;fill-opacity:1"
     sodipodi:nodetypes="ccccccccc" /><path
     d="m 83.888877,83.750907 c -0.15862,0 -0.2884,-0.10094 -0.34608,-0.24514 l -6.04193,-19.03427 c -0.0577,-0.18746 0.0433,-0.38934 0.23071,-0.44702 0.18746,-0.0577 0.38934,0.0433 0.44702,0.23072 l 6.04194,19.03427 c 0.0577,0.18746 -0.0433,0.38934 -0.23072,0.44702 -0.0288,0.0144 -0.0721,0.0144 -0.10094,0.0144 z"
     id="detail_19_1"
     style="stroke:#000000;stroke-width:0.3;stroke-dasharray:none;stroke-opacity:1;fill:#000000;fill-opacity:1" /><g
     id="g37"
     style="stroke:#000000;stroke-width:0.550455;stroke-dasharray:none;stroke-opacity:1"
     transform="matrix(1.4419901,0,0,1.4419901,-109.95173,-11.286624)">
			<path
   d="m 40.26,41.88 c -0.03,0 -0.06,0 -0.08,-0.01 L 33.2,39.43 c -0.05,-0.02 -0.1,-0.06 -0.13,-0.11 l -4.54,-7.5 c -0.06,-0.1 -0.04,-0.23 0.04,-0.31 0.09,-0.08 0.22,-0.09 0.31,-0.02 l 7.26,5.14 1.84,-2.35 c 0.09,-0.11 0.24,-0.13 0.35,-0.04 0.11,0.09 0.13,0.24 0.04,0.35 l -1.99,2.53 c -0.08,0.1 -0.23,0.13 -0.34,0.05 l -6.47,-4.58 3.87,6.4 6.89,2.41 c 0.13,0.05 0.2,0.19 0.15,0.32 -0.02,0.1 -0.12,0.16 -0.22,0.16 z"
   id="path37"
   style="stroke:#000000;stroke-width:0.550455;stroke-dasharray:none;stroke-opacity:1" />
		</g><path
     d="m -20.35932,8.1998272 c -0.0865,0 -0.18746,-0.0433 -0.25956,-0.11536 -0.1442,-0.14419 -0.12978,-0.37491 0,-0.50469 l 3.1868,-3.12912 2.94166,-8.72404 -5.62376,3.23006 c -0.17304,0.10093999 -0.38934,0.0433 -0.49028,-0.12978 -0.10094,-0.17304 -0.0433,-0.38934 0.12978,-0.49028 l 6.4457,-3.70591 c 0.12978,-0.0721 0.2884,-0.0577 0.40375,0.0288 0.11536,0.10094 0.15862,0.24513 0.11536,0.38933 l -3.27331,9.7046 c -0.0144,0.0577 -0.0433,0.10094 -0.0865,0.1442 l -3.2589,3.18679 c -0.0433,0.0721 -0.12978,0.11536 -0.23072,0.11536 z"
     id="path38"
     style="stroke:#000000;stroke-width:0.793751;stroke-dasharray:none;stroke-opacity:1" /><path
     d="m -23.83044,89.012282 c -0.0577,0 -0.11536,-0.0144 -0.17304,-0.0433 -0.17304,-0.10094 -0.23072,-0.31724 -0.12978,-0.49027 l 2.33603,-4.1241 0.49027,-6.50337 -4.55668,4.87393 c -0.12978,0.14419 -0.3605,0.15861 -0.5047,0.0144 -0.1442,-0.12978 -0.15862,-0.3605 -0.0144,-0.5047 l 5.24884,-5.623758 c 0.10094,-0.11536 0.27398,-0.1442 0.40376,-0.0865 0.1442,0.0577 0.23072,0.20188 0.2163,0.3605 l -0.5768,7.599278 c 0,0.0577 -0.0144,0.10094 -0.0433,0.1442 l -2.37928,4.19619 c -0.0721,0.11536 -0.18746,0.18746 -0.31724,0.18746 z"
     id="path39"
     style="stroke:#000000;stroke-width:0.793751;stroke-dasharray:none;stroke-opacity:1" /><path
     d="m -36.934917,75.349613 c -0.0577,0 -0.11536,-0.0144 -0.17304,-0.0433 -0.17304,-0.0865 -0.24514,-0.30282 -0.15862,-0.49027 l 2.26392,-4.34039 -3.54729,-7.72907 -1.52851,8.95476 c -0.0288,0.20188 -0.2163,0.33166 -0.41818,0.2884 -0.20188,-0.0288 -0.33166,-0.2163 -0.2884,-0.41818 l 1.71597,-10.10835 c 0.0288,-0.15862 0.1442,-0.27398 0.30282,-0.30282 0.15862,-0.0144 0.30282,0.0577 0.37492,0.20188 l 4.10967,8.95476 c 0.0433,0.10094 0.0433,0.2163 -0.0144,0.31723 l -2.33603,4.49901 c -0.0433,0.1442 -0.17303,0.2163 -0.30281,0.2163 z"
     id="path40"
     style="stroke:#000000;stroke-width:0.793751;stroke-dasharray:none;stroke-opacity:1" /><g
     id="g41"
     style="stroke:#000000;stroke-width:0.550455;stroke-dasharray:none;stroke-opacity:1"
     transform="matrix(1.4419901,0,0,1.4419901,-162.8684,76.770017)">
			<path
   d="m 126.47824,-4.8598731 -2.39006,-8.6574009 c 2.83381,10.1480176 -0.89148,-3.178546 2.39006,8.6574009 z"
   id="detail_18_3"
   style="stroke:#000000;stroke-width:0.550455;stroke-dasharray:none;stroke-opacity:1"
   sodipodi:nodetypes="ccc" />
		</g><style
     type="text/css"
     id="style1">
	.st0{fill:#FFFFFF;}
	.st1{fill:#8F9399;}
	.st2{fill:#BEC6A8;}
	.st3{fill:#889B64;}
	.st4{fill:#E4E6D9;}
</style></svg>
