<?xml version="1.0" encoding="UTF-8" standalone="no"?>
<!-- Created with Inkscape (http://www.inkscape.org/) -->

<svg
   width="210mm"
   height="297mm"
   viewBox="0 0 210 297"
   version="1.1"
   id="svg1"
   xml:space="preserve"
   inkscape:version="1.4.2 (f4327f4, 2025-05-13)"
   sodipodi:docname="Zeichnung.svg"
   xmlns:inkscape="http://www.inkscape.org/namespaces/inkscape"
   xmlns:sodipodi="http://sodipodi.sourceforge.net/DTD/sodipodi-0.dtd"
   xmlns="http://www.w3.org/2000/svg"
   xmlns:svg="http://www.w3.org/2000/svg"><sodipodi:namedview
     id="namedview1"
     pagecolor="#ffffff"
     bordercolor="#000000"
     borderopacity="0.25"
     inkscape:showpageshadow="2"
     inkscape:pageopacity="0.0"
     inkscape:pagecheckerboard="0"
     inkscape:deskcolor="#d1d1d1"
     inkscape:document-units="mm"
     inkscape:zoom="1.0396254"
     inkscape:cx="548.2744"
     inkscape:cy="437.17669"
     inkscape:window-width="2560"
     inkscape:window-height="1369"
     inkscape:window-x="1912"
     inkscape:window-y="365"
     inkscape:window-maximized="1"
     inkscape:current-layer="layer1" /><defs
     id="defs1" /><g
     inkscape:label="Ebene 1"
     inkscape:groupmode="layer"
     id="layer1"><g
       id="g1"
       transform="matrix(1.4419901,0,0,1.4419901,-38.554114,5.7878952)"><g
         id="Farbfläche">
	<g
   id="g3">
		<path
   class="st0"
   d="m 85.5,104.43 10.74,20.74 c 0.01,0.02 0.02,0.02 0.04,0.04 0.01,0.01 0.02,0.02 0.03,0.03 0.05,0.04 0.1,0.06 0.16,0.06 h 5.17 l -9.13,70.72 -5.44,-7.11 3.09,-48.45 c 0,0 0,0 0,-0.01 0,0 0,0 0,-0.01 0,-0.02 0,-0.04 -0.01,-0.06 l -4.11,-17.21 z"
   id="path1" />
		<path
   class="st0"
   d="m 73.48,138.86 10.48,-4.02 c 0.1,-0.04 0.17,-0.14 0.16,-0.25 l -0.45,-8.92 1.97,-1.97 3.98,16.66 -23.28,21.85 z"
   id="path2" />
		<line
   class="st0"
   x1="89.629997"
   y1="140.37"
   x2="66.349998"
   y2="162.21001"
   id="line2" />
		<polygon
   class="st0"
   points="86.58,188.59 75.05,182.49 66.14,163.1 89.62,141.06 "
   id="polygon2" />
		<path
   class="st0"
   d="m 104.21,191.06 -11.23,5.19 9.16,-70.94 h 3.48 c 0.14,0 0.25,-0.11 0.25,-0.25 v -2.82 l 3.11,-5.38 6.86,49.61 z"
   id="path3" />
		<line
   class="st0"
   x1="115.84"
   y1="166.47"
   x2="104.21"
   y2="191.06"
   id="line3" />
		<polygon
   class="st0"
   points="121.07,174.64 112.32,181.61 105.42,189.67 116.29,166.67 122.78,162 "
   id="polygon3" />
	</g>
</g><g
         id="Kontur">
	<g
   id="g42">
		<path
   d="m 82.07,92.72 c -0.14,0 -0.25,-0.11 -0.25,-0.25 0,-0.14 0.11,-0.25 0.25,-0.25 l 11.97,-0.01 v 0 c 0.14,0 0.25,0.11 0.25,0.25 0,0.14 -0.11,0.25 -0.25,0.25 z"
   id="path4" />
		<path
   d="m 82.13,92.72 c -0.02,0 -0.04,0 -0.06,-0.01 -0.13,-0.03 -0.22,-0.17 -0.19,-0.3 L 84,83.29 86.33,78.63 c 0.02,-0.04 0.06,-0.08 0.1,-0.1 l 6.74,-3.91 c 0.04,-0.02 0.08,-0.04 0.13,-0.04 0,0 0,0 0,0 0,0 0,0 0,0 0,0 0,0 0,0 0,0 0,0 0,0 l 13.06,0.01 c 0.04,0 0.08,0.01 0.12,0.03 l 6.66,3.68 c 0.03,0.02 0.06,0.04 0.08,0.07 l 3.27,4.52 c 0.02,0.03 0.04,0.07 0.04,0.11 l 1.36,9.41 c 0.01,0.07 -0.01,0.14 -0.06,0.2 -0.05,0.05 -0.12,0.09 -0.19,0.09 h -9.92 c -0.07,0 -0.15,-0.03 -0.19,-0.09 l -14.3,-17.46 -6.49,3.77 -2.27,4.54 -2.09,9.06 c -0.03,0.12 -0.14,0.2 -0.25,0.2 z m 25.72,-0.51 h 9.51 l -1.31,-9.06 -3.2,-4.42 -6.55,-3.63 -12.47,-0.01 z"
   id="path5" />
		<path
   d="m 96.46,125.3 c -0.09,0 -0.18,-0.05 -0.22,-0.13 l -11.23,-21.7 c -0.06,-0.11 -0.03,-0.24 0.07,-0.31 0.1,-0.07 0.23,-0.07 0.32,0.02 L 95.83,113 88.08,92.55 c -0.05,-0.13 0.02,-0.27 0.15,-0.32 0.13,-0.05 0.27,0.02 0.32,0.14 l 8.14,21.47 c 0.04,0.11 0,0.23 -0.1,0.3 -0.09,0.07 -0.22,0.05 -0.31,-0.03 l -10.15,-9.57 10.56,20.4 c 0.06,0.12 0.02,0.27 -0.11,0.34 -0.04,0.01 -0.08,0.02 -0.12,0.02 z"
   id="path6" />
		<path
   d="m 96.45,114.18 c -0.14,0 -0.25,-0.11 -0.25,-0.25 0,-0.14 0.11,-0.25 0.25,-0.25 l 9.17,-0.1 c 0.13,0.02 0.25,0.11 0.25,0.25 0,0.14 -0.11,0.25 -0.25,0.25 z"
   id="path7" />
		<g
   id="g8">
			<path
   d="m 92.67,196.91 c -0.01,0 -0.02,0 -0.03,0 -0.14,-0.02 -0.23,-0.14 -0.22,-0.28 l 9.25,-71.61 c 0.02,-0.14 0.14,-0.23 0.28,-0.22 0.14,0.02 0.23,0.14 0.22,0.28 l -9.25,71.61 c -0.02,0.13 -0.13,0.22 -0.25,0.22 z"
   id="path8" />
		</g>
		<path
   d="m 116.1,166.75 c -0.12,0 -0.23,-0.09 -0.25,-0.22 l -6.97,-50.4 c -0.02,-0.14 0.08,-0.26 0.21,-0.28 0.13,-0.01 0.26,0.08 0.28,0.21 l 6.97,50.4 c 0.02,0.14 -0.08,0.26 -0.21,0.28 -0.01,0.01 -0.02,0.01 -0.03,0.01 z"
   id="path9" />
		<path
   d="m 104.4,191.49 c -0.04,0 -0.07,-0.01 -0.11,-0.02 -0.12,-0.06 -0.18,-0.21 -0.12,-0.33 l 11.7,-24.74 c 0.02,-0.04 0.05,-0.07 0.08,-0.1 l 7.02,-5.04 c 0.11,-0.08 0.27,-0.06 0.35,0.06 0.08,0.11 0.05,0.27 -0.06,0.35 l -6.96,5.01 -11.67,24.68 c -0.05,0.08 -0.14,0.13 -0.23,0.13 z"
   id="path10" />
		<path
   d="m 86.81,189.24 c -0.01,0 -0.01,0 -0.02,0 -0.14,-0.01 -0.24,-0.13 -0.23,-0.26 l 3.1,-48.5 -4.11,-17.2 c -0.03,-0.13 0.05,-0.27 0.19,-0.3 0.14,-0.04 0.27,0.05 0.3,0.19 l 4.11,17.24 c 0.01,0.02 0.01,0.05 0.01,0.07 L 87.06,189 c -0.01,0.14 -0.12,0.24 -0.25,0.24 z"
   id="path11" />
		<path
   d="m 105.62,125.3 h -9.16 c -0.14,0 -0.25,-0.11 -0.25,-0.25 L 96.2,113.93 93.8,92.49 c -0.01,-0.06 0.01,-0.12 0.04,-0.17 l 12.31,-17.61 c 0.08,-0.11 0.24,-0.14 0.35,-0.06 0.11,0.08 0.14,0.24 0.06,0.35 l -12.25,17.53 2.39,21.37 0.01,10.9 h 8.66 v -10.97 l 2.11,-21.39 c 0.01,-0.14 0.14,-0.24 0.27,-0.22 0.14,0.01 0.24,0.14 0.22,0.27 l -2.11,21.37 v 11.2 c 0.01,0.13 -0.1,0.24 -0.24,0.24 z"
   id="path12" />
		<g
   id="g13">
			<path
   d="m 117.65,92.71 c -0.05,0 -0.1,-0.01 -0.15,-0.05 -0.11,-0.08 -0.14,-0.24 -0.06,-0.35 l 8.31,-11.7 c 0.02,-0.03 0.04,-0.05 0.07,-0.07 l 13.68,-8.25 c 0.12,-0.07 0.27,-0.03 0.34,0.08 0.07,0.12 0.03,0.27 -0.08,0.34 l -13.64,8.22 -8.28,11.66 c -0.04,0.09 -0.12,0.12 -0.19,0.12 z"
   id="path13" />
		</g>
		<path
   d="m 121.54,87.51 c -0.14,0 -0.25,-0.11 -0.25,-0.25 0,-0.14 0.11,-0.25 0.25,-0.25 l 12.67,-0.1 c 0,0 0,0 0,0 0.14,0 0.25,0.11 0.25,0.25 0,0.14 -0.11,0.25 -0.25,0.25 z"
   id="path14" />
		<path
   d="m 117.65,92.71 c -0.13,0 -0.24,-0.1 -0.25,-0.23 -0.01,-0.14 0.09,-0.26 0.22,-0.27 l 9.59,-0.96 6.9,-4.14 5.23,-14.32 -15.13,3.69 -7.75,6.76 c -0.1,0.09 -0.26,0.08 -0.35,-0.02 -0.09,-0.1 -0.08,-0.26 0.02,-0.35 l 7.8,-6.8 c 0.03,-0.03 0.07,-0.04 0.11,-0.05 l 15.64,-3.81 c 0.09,-0.02 0.18,0.01 0.25,0.08 0.06,0.07 0.08,0.17 0.05,0.25 l -5.42,14.84 c -0.02,0.05 -0.06,0.1 -0.11,0.13 l -7.02,4.21 c -0.03,0.02 -0.07,0.03 -0.1,0.04 l -9.65,0.96 c -0.02,-0.01 -0.03,-0.01 -0.03,-0.01 z"
   id="path15" />
		<g
   id="g16">
			<path
   d="m 82.13,92.72 c -0.08,0 -0.16,-0.04 -0.21,-0.11 L 74.23,80.95 60.51,72.66 c -0.12,-0.07 -0.16,-0.22 -0.08,-0.34 0.07,-0.12 0.23,-0.15 0.34,-0.08 l 13.77,8.32 c 0.03,0.02 0.06,0.04 0.08,0.08 l 7.72,11.71 c 0.08,0.12 0.04,0.27 -0.07,0.35 -0.04,0.01 -0.09,0.02 -0.14,0.02 z"
   id="path16" />
		</g>
		<path
   d="m 66.06,87.53 c -0.14,0 -0.25,-0.11 -0.25,-0.25 0,-0.14 0.11,-0.25 0.25,-0.25 l 12.63,-0.02 v 0 c 0.14,0 0.25,0.11 0.25,0.25 0,0.14 -0.11,0.25 -0.25,0.25 z"
   id="path17" />
		<path
   d="m 82.13,92.72 c -0.01,0 -0.02,0 -0.03,0 l -9,-0.97 c -0.04,0 -0.07,-0.02 -0.1,-0.03 L 65.92,87.51 C 65.87,87.48 65.83,87.43 65.81,87.38 L 60.39,72.54 c -0.03,-0.09 -0.01,-0.18 0.05,-0.25 0.06,-0.07 0.16,-0.1 0.25,-0.08 l 15.64,3.81 c 0.04,0.01 0.08,0.03 0.11,0.06 l 7.96,7.1 c 0.1,0.09 0.11,0.25 0.02,0.35 -0.09,0.1 -0.25,0.11 -0.35,0.02 l -7.91,-7.06 -15.13,-3.69 5.23,14.32 6.95,4.14 8.94,0.97 c 0.14,0.02 0.24,0.14 0.22,0.28 0,0.11 -0.11,0.21 -0.24,0.21 z"
   id="path18" />
		<g
   id="g19">
			<path
   d="m 92.67,196.91 c -0.08,0 -0.15,-0.04 -0.2,-0.1 l -5.83,-7.63 -11.9,-6.29 c -0.05,-0.03 -0.09,-0.07 -0.11,-0.12 l -9.02,-19.63 c -0.03,-0.06 -0.03,-0.12 -0.01,-0.18 l 7.44,-24.37 c 0.02,-0.07 0.08,-0.13 0.15,-0.16 l 10.43,-4 -0.44,-8.84 c 0,-0.07 0.02,-0.14 0.07,-0.19 l 2.29,-2.29 -0.56,-19.75 -3.09,-10.82 c -0.04,-0.13 0.04,-0.27 0.17,-0.31 0.13,-0.04 0.27,0.04 0.31,0.17 l 3.1,10.88 0.57,19.92 c 0,0.07 -0.02,0.13 -0.07,0.18 l -2.29,2.29 0.45,8.92 c 0.01,0.11 -0.06,0.21 -0.16,0.25 l -10.48,4.02 -7.38,24.16 8.94,19.47 11.88,6.28 c 0.03,0.02 0.06,0.04 0.08,0.07 l 5.74,7.51 11.49,-5.31 8.08,-9.44 8.75,-6.96 1.78,-13.16 -5.62,-18.45 c -0.01,-0.03 -0.01,-0.05 -0.01,-0.08 L 117.9,124.9 114.75,106 c 0,-0.03 0,-0.06 0,-0.09 l 2.65,-13.49 c 0.03,-0.14 0.16,-0.22 0.29,-0.2 0.14,0.03 0.22,0.16 0.2,0.29 l -2.64,13.44 3.15,18.91 -0.67,18.06 5.62,18.46 c 0.01,0.04 0.01,0.07 0.01,0.11 l -1.8,13.31 c -0.01,0.06 -0.04,0.12 -0.09,0.16 l -8.79,7 -8.08,9.44 c -0.02,0.03 -0.05,0.05 -0.08,0.06 l -11.73,5.42 c -0.05,0.02 -0.08,0.03 -0.12,0.03 z"
   id="path19" />
		</g>
		<path
   d="m 105.62,122.41 c -0.04,0 -0.09,-0.01 -0.12,-0.03 -0.12,-0.07 -0.16,-0.22 -0.09,-0.34 l 8.66,-14.98 -8.28,6.96 c -0.09,0.08 -0.22,0.08 -0.31,0.01 -0.09,-0.07 -0.13,-0.19 -0.08,-0.3 l 8.79,-21.37 c 0.05,-0.13 0.2,-0.19 0.33,-0.14 0.13,0.05 0.19,0.2 0.14,0.33 l -8.41,20.42 8.59,-7.23 c 0.09,-0.08 0.23,-0.08 0.32,0 0.09,0.08 0.12,0.21 0.06,0.32 l -9.37,16.21 c -0.06,0.1 -0.14,0.14 -0.23,0.14 z"
   id="path20" />
		<path
   d="m 65.84,163.29 c -0.07,0 -0.13,-0.03 -0.18,-0.08 -0.09,-0.1 -0.09,-0.26 0.01,-0.35 l 24.07,-22.59 c 0.1,-0.09 0.26,-0.09 0.35,0.01 0.09,0.1 0.09,0.26 -0.01,0.35 l -24.07,22.59 c -0.05,0.05 -0.11,0.07 -0.17,0.07 z"
   id="path21" />
		<path
   d="m 125.29,68.58 c -0.06,0 -0.12,-0.02 -0.17,-0.06 -0.1,-0.09 -0.11,-0.25 -0.02,-0.35 l 6.99,-7.9 c 0.09,-0.1 0.25,-0.11 0.35,-0.02 0.1,0.09 0.11,0.25 0.02,0.35 l -6.99,7.9 c -0.05,0.06 -0.12,0.08 -0.18,0.08 z"
   id="path22" />
		<path
   d="m 150.09,43.64 c -0.12,0 -0.22,-0.08 -0.25,-0.2 -0.03,-0.14 0.06,-0.27 0.2,-0.29 l 9.06,-1.71 -2.54,-24.26 c -0.01,-0.14 0.08,-0.26 0.22,-0.27 0.13,-0.02 0.26,0.09 0.27,0.22 l 2.56,24.49 c 0.01,0.13 -0.07,0.25 -0.2,0.27 l -9.28,1.75 c -0.01,-0.01 -0.03,0 -0.04,0 z"
   id="path23" />
		<path
   d="m 159.37,41.88 c -0.07,0 -0.14,-0.03 -0.19,-0.09 L 145.5,25.53 c -0.09,-0.11 -0.08,-0.26 0.03,-0.35 0.11,-0.09 0.26,-0.07 0.35,0.03 l 13.68,16.26 c 0.09,0.11 0.08,0.26 -0.03,0.35 -0.04,0.04 -0.1,0.06 -0.16,0.06 z"
   id="path24" />
		<path
   d="m 109.47,66.74 c -0.05,0 -0.1,-0.02 -0.15,-0.05 -0.11,-0.08 -0.13,-0.24 -0.05,-0.35 L 119.9,52.17 c 0.08,-0.11 0.24,-0.13 0.35,-0.05 0.11,0.08 0.13,0.24 0.05,0.35 l -10.63,14.17 c -0.05,0.06 -0.12,0.1 -0.2,0.1 z"
   id="path25" />
		<path
   d="m 114.91,52.11 c -0.02,0 -0.05,0 -0.08,-0.01 -0.13,-0.04 -0.2,-0.18 -0.16,-0.31 l 4.2,-13.2 c 0.04,-0.13 0.18,-0.2 0.31,-0.16 0.13,0.04 0.2,0.18 0.16,0.31 l -4.2,13.2 c -0.02,0.1 -0.12,0.17 -0.23,0.17 z"
   id="path26" />
		<g
   id="g27">
			<path
   d="m 159.37,41.88 c -0.1,0 -0.2,-0.06 -0.24,-0.17 -0.05,-0.13 0.02,-0.27 0.15,-0.32 l 6.89,-2.41 3.87,-6.4 -6.47,4.58 c -0.11,0.08 -0.26,0.05 -0.34,-0.05 l -1.99,-2.53 c -0.08,-0.11 -0.07,-0.27 0.04,-0.35 0.11,-0.08 0.27,-0.07 0.35,0.04 l 1.84,2.35 7.26,-5.14 c 0.1,-0.07 0.23,-0.06 0.31,0.02 0.09,0.08 0.1,0.21 0.04,0.31 l -4.54,7.5 c -0.03,0.05 -0.08,0.09 -0.13,0.11 l -6.98,2.44 c 0,0.02 -0.03,0.02 -0.06,0.02 z"
   id="path27" />
		</g>
		<path
   d="m 114.85,44.62 c -0.06,0 -0.13,-0.02 -0.17,-0.07 l -2.26,-2.21 c -0.03,-0.03 -0.05,-0.06 -0.06,-0.1 l -2.27,-6.73 c -0.03,-0.1 0,-0.21 0.08,-0.27 0.08,-0.07 0.19,-0.07 0.28,-0.02 l 4.47,2.57 c 0.12,0.07 0.16,0.22 0.09,0.34 -0.07,0.12 -0.22,0.16 -0.34,0.09 l -3.9,-2.24 2.04,6.05 2.21,2.17 c 0.1,0.1 0.1,0.25 0,0.35 -0.04,0.04 -0.11,0.07 -0.17,0.07 z"
   id="path28" />
		<path
   d="m 107.87,71.03 c -0.09,0 -0.17,-0.05 -0.22,-0.13 L 106,67.97 c -0.02,-0.03 -0.03,-0.07 -0.03,-0.1 l -0.4,-5.27 c -0.01,-0.11 0.05,-0.21 0.15,-0.25 0.1,-0.04 0.21,-0.02 0.28,0.06 l 3.65,3.91 c 0.09,0.1 0.09,0.26 -0.01,0.35 -0.1,0.09 -0.26,0.09 -0.35,-0.01 l -3.17,-3.39 0.34,4.51 1.63,2.88 c 0.07,0.12 0.03,0.27 -0.09,0.34 -0.04,0.02 -0.09,0.03 -0.13,0.03 z"
   id="path29" />
		<path
   d="m 143.69,49.76 c -0.09,0 -0.18,-0.05 -0.22,-0.13 l -1.62,-3.12 c -0.04,-0.07 -0.04,-0.15 -0.01,-0.22 l 2.85,-6.21 c 0.05,-0.1 0.15,-0.15 0.26,-0.14 0.11,0.01 0.2,0.1 0.21,0.21 l 1.19,7.01 c 0.02,0.14 -0.07,0.27 -0.2,0.29 -0.13,0.03 -0.26,-0.07 -0.29,-0.2 l -1.06,-6.21 -2.46,5.36 1.57,3.01 c 0.06,0.12 0.02,0.27 -0.11,0.34 -0.03,0 -0.07,0.01 -0.11,0.01 z"
   id="path30" />
		<g
   id="g31">
			<path
   d="m 113.01,78.79 c -0.07,0 -0.14,-0.03 -0.19,-0.09 -0.09,-0.11 -0.07,-0.26 0.03,-0.35 l 12.27,-10.2 c 0.02,-0.02 0.05,-0.04 0.08,-0.04 l 11.9,-3.99 7.94,-8.65 c 0.05,-0.05 0.13,-0.08 0.19,-0.08 l 4.94,0.21 4.86,-3.33 -6.18,0.77 c -0.11,0.01 -0.21,-0.04 -0.25,-0.13 -0.05,-0.09 -0.03,-0.21 0.04,-0.29 l 10.49,-11.1 4.22,-14.64 c 0.01,-0.04 0.04,-0.08 0.07,-0.11 l 2.89,-2.75 -0.31,-5.66 -3.5,2.93 c -0.08,0.06 -0.18,0.08 -0.27,0.03 -0.09,-0.04 -0.14,-0.14 -0.14,-0.23 l 0.38,-10.1 -8.78,-8.58 3.37,14.67 c 0.01,0.03 0.01,0.07 0,0.1 l -2.55,14.17 c -0.02,0.1 -0.09,0.18 -0.19,0.2 -0.1,0.02 -0.2,-0.02 -0.26,-0.1 l -7.35,-10.78 -0.75,4.74 c -0.01,0.08 -0.07,0.16 -0.15,0.19 -0.08,0.03 -0.17,0.03 -0.24,-0.02 l -14.03,-9.74 8.13,13.35 12.55,3.61 c 0.12,0.04 0.2,0.16 0.18,0.29 l -2.05,10.36 c -0.01,0.05 -0.04,0.1 -0.07,0.13 l -17.81,17.05 c -0.03,0.02 -0.06,0.04 -0.09,0.06 l -12.8,4.49 -4.69,4.7 c -0.08,0.08 -0.21,0.1 -0.31,0.04 -0.1,-0.06 -0.14,-0.18 -0.11,-0.29 l 5.4,-17.34 0.13,-7.08 c 0,-0.04 0.01,-0.07 0.03,-0.11 l 6.23,-12.68 -6.95,6.43 c -0.06,0.06 -0.15,0.08 -0.23,0.06 -0.08,-0.02 -0.15,-0.08 -0.17,-0.16 l -3.92,-12.1 0.21,25.23 c 0,0.03 0,0.06 -0.02,0.09 l -8.55,22.99 c -0.05,0.13 -0.19,0.2 -0.32,0.15 -0.13,-0.05 -0.19,-0.19 -0.15,-0.32 l 8.54,-22.95 -0.22,-26.81 c 0,-0.12 0.09,-0.23 0.21,-0.25 0.13,-0.02 0.24,0.05 0.28,0.17 l 4.3,13.28 7.65,-7.08 c 0.09,-0.08 0.22,-0.09 0.32,-0.02 0.1,0.07 0.13,0.2 0.08,0.31 l -6.8,13.84 -0.12,7.06 c 0,0.02 0,0.05 -0.01,0.07 l -5.11,16.41 4.02,-4.02 c 0.03,-0.03 0.06,-0.05 0.09,-0.06 l 12.8,-4.49 17.72,-16.96 1.99,-10.05 -12.43,-3.57 c -0.06,-0.02 -0.11,-0.06 -0.14,-0.11 l -8.79,-14.44 c -0.06,-0.1 -0.04,-0.23 0.04,-0.31 0.09,-0.08 0.22,-0.09 0.31,-0.02 l 14.67,10.19 0.79,-4.97 c 0.02,-0.1 0.09,-0.18 0.19,-0.21 0.1,-0.02 0.2,0.02 0.26,0.1 l 7.36,10.8 2.43,-13.52 L 153,1.7 c -0.02,-0.11 0.02,-0.22 0.12,-0.27 0.1,-0.05 0.22,-0.04 0.3,0.04 l 9.47,9.25 c 0.05,0.05 0.08,0.12 0.08,0.19 l -0.36,9.65 3.45,-2.89 c 0.07,-0.06 0.17,-0.07 0.26,-0.04 0.09,0.04 0.15,0.12 0.15,0.21 l 0.38,6.25 c 0,0.07 -0.02,0.15 -0.08,0.2 l -2.93,2.78 -4.22,14.63 c -0.01,0.04 -0.03,0.07 -0.06,0.1 l -10.05,10.63 6.51,-0.81 c 0.12,-0.01 0.22,0.05 0.27,0.16 0.04,0.11 0,0.23 -0.09,0.29 l -5.78,3.96 c -0.04,0.03 -0.1,0.04 -0.15,0.04 l -4.91,-0.2 -7.91,8.62 c -0.03,0.03 -0.06,0.05 -0.1,0.07 l -11.92,4 -12.24,10.17 c -0.06,0.04 -0.12,0.06 -0.18,0.06 z"
   id="path31" />
		</g>
		<path
   d="m 74.35,68.58 c -0.07,0 -0.14,-0.03 -0.19,-0.08 l -6.99,-7.9 c -0.09,-0.1 -0.08,-0.26 0.02,-0.35 0.1,-0.09 0.26,-0.08 0.35,0.02 l 6.99,7.9 c 0.09,0.1 0.08,0.26 -0.02,0.35 -0.05,0.04 -0.1,0.06 -0.16,0.06 z"
   id="path32" />
		<path
   d="m 49.54,43.64 c -0.02,0 -0.03,0 -0.05,0 l -9.28,-1.75 c -0.13,-0.02 -0.22,-0.14 -0.2,-0.27 l 2.56,-24.49 c 0.01,-0.14 0.13,-0.24 0.27,-0.22 0.14,0.01 0.24,0.14 0.22,0.27 l -2.54,24.26 9.06,1.71 c 0.14,0.03 0.23,0.16 0.2,0.29 -0.01,0.11 -0.12,0.2 -0.24,0.2 z"
   id="path33" />
		<path
   d="m 40.26,41.88 c -0.06,0 -0.11,-0.02 -0.16,-0.06 -0.11,-0.09 -0.12,-0.25 -0.03,-0.35 L 53.75,25.21 c 0.09,-0.11 0.25,-0.12 0.35,-0.03 0.11,0.09 0.12,0.25 0.03,0.35 L 40.45,41.79 c -0.05,0.06 -0.12,0.09 -0.19,0.09 z"
   id="path34" />
		<path
   d="m 90.17,66.73 c -0.08,0 -0.15,-0.03 -0.2,-0.1 L 79.33,52.46 c -0.08,-0.11 -0.06,-0.27 0.05,-0.35 0.11,-0.08 0.27,-0.06 0.35,0.05 l 10.64,14.16 c 0.08,0.11 0.06,0.27 -0.05,0.35 -0.04,0.04 -0.09,0.06 -0.15,0.06 z"
   id="path35" />
		<path
   d="m 84.72,52.11 c -0.11,0 -0.2,-0.07 -0.24,-0.17 l -4.19,-13.2 c -0.04,-0.13 0.03,-0.27 0.16,-0.31 0.13,-0.04 0.27,0.03 0.31,0.16 l 4.19,13.2 c 0.04,0.13 -0.03,0.27 -0.16,0.31 -0.02,0.01 -0.05,0.01 -0.07,0.01 z"
   id="path36" />
		<g
   id="g37">
			<path
   d="m 40.26,41.88 c -0.03,0 -0.06,0 -0.08,-0.01 L 33.2,39.43 c -0.05,-0.02 -0.1,-0.06 -0.13,-0.11 l -4.54,-7.5 c -0.06,-0.1 -0.04,-0.23 0.04,-0.31 0.09,-0.08 0.22,-0.09 0.31,-0.02 l 7.26,5.14 1.84,-2.35 c 0.09,-0.11 0.24,-0.13 0.35,-0.04 0.11,0.09 0.13,0.24 0.04,0.35 l -1.99,2.53 c -0.08,0.1 -0.23,0.13 -0.34,0.05 l -6.47,-4.58 3.87,6.4 6.89,2.41 c 0.13,0.05 0.2,0.19 0.15,0.32 -0.02,0.1 -0.12,0.16 -0.22,0.16 z"
   id="path37" />
		</g>
		<path
   d="m 84.78,44.62 c -0.06,0 -0.13,-0.03 -0.18,-0.08 -0.1,-0.1 -0.09,-0.26 0,-0.35 l 2.21,-2.17 2.04,-6.05 -3.9,2.24 C 84.83,38.28 84.68,38.24 84.61,38.12 84.54,38 84.58,37.85 84.7,37.78 l 4.47,-2.57 c 0.09,-0.05 0.2,-0.04 0.28,0.02 0.08,0.07 0.11,0.17 0.08,0.27 l -2.27,6.73 c -0.01,0.04 -0.03,0.07 -0.06,0.1 l -2.26,2.21 c -0.03,0.05 -0.09,0.08 -0.16,0.08 z"
   id="path38" />
		<path
   d="m 91.77,71.01 c -0.04,0 -0.08,-0.01 -0.12,-0.03 -0.12,-0.07 -0.16,-0.22 -0.09,-0.34 l 1.62,-2.86 0.34,-4.51 -3.16,3.38 c -0.09,0.1 -0.25,0.11 -0.35,0.01 C 89.91,66.57 89.9,66.41 90,66.31 l 3.64,-3.9 c 0.07,-0.08 0.19,-0.1 0.28,-0.06 0.1,0.04 0.16,0.14 0.15,0.25 l -0.4,5.27 c 0,0.04 -0.01,0.07 -0.03,0.1 l -1.65,2.91 c -0.05,0.08 -0.13,0.13 -0.22,0.13 z"
   id="path39" />
		<path
   d="m 55.94,49.76 c -0.04,0 -0.08,-0.01 -0.12,-0.03 -0.12,-0.06 -0.17,-0.21 -0.11,-0.34 l 1.57,-3.01 -2.46,-5.36 -1.06,6.21 c -0.02,0.14 -0.15,0.23 -0.29,0.2 -0.14,-0.02 -0.23,-0.15 -0.2,-0.29 l 1.19,-7.01 c 0.02,-0.11 0.1,-0.19 0.21,-0.21 0.11,-0.01 0.21,0.04 0.26,0.14 l 2.85,6.21 c 0.03,0.07 0.03,0.15 -0.01,0.22 l -1.62,3.12 c -0.03,0.1 -0.12,0.15 -0.21,0.15 z"
   id="path40" />
		<g
   id="g41">
			<path
   d="m 86.55,79 c -0.06,0 -0.12,-0.02 -0.16,-0.06 L 74.22,68.56 62.3,64.56 c -0.04,-0.01 -0.08,-0.04 -0.1,-0.07 l -7.91,-8.62 -4.91,0.2 c -0.05,0 -0.11,-0.01 -0.15,-0.04 L 43.45,52.07 C 43.35,52 43.32,51.88 43.36,51.78 43.4,51.67 43.5,51.61 43.63,51.62 L 50.14,52.43 40.08,41.8 C 40.05,41.77 40.03,41.74 40.02,41.7 L 35.8,27.07 32.87,24.29 c -0.05,-0.05 -0.08,-0.12 -0.08,-0.2 l 0.38,-6.25 c 0.01,-0.09 0.06,-0.18 0.15,-0.21 0.09,-0.03 0.19,-0.02 0.26,0.04 l 3.45,2.89 -0.36,-9.65 c 0,-0.07 0.02,-0.14 0.08,-0.19 l 9.47,-9.25 c 0.08,-0.08 0.2,-0.09 0.3,-0.04 0.1,0.05 0.15,0.17 0.12,0.27 l -3.55,15.45 2.43,13.52 7.37,-10.8 c 0.06,-0.08 0.16,-0.13 0.26,-0.1 0.1,0.02 0.18,0.1 0.19,0.21 l 0.79,4.97 14.67,-10.19 c 0.1,-0.07 0.23,-0.06 0.31,0.02 0.09,0.08 0.1,0.21 0.04,0.31 l -8.79,14.44 c -0.03,0.05 -0.08,0.09 -0.14,0.11 l -12.43,3.57 1.99,10.05 17.72,16.96 12.8,4.49 c 0.04,0.01 0.07,0.03 0.09,0.06 l 4.02,4.02 -5.11,-16.41 c -0.01,-0.02 -0.01,-0.05 -0.01,-0.07 l -0.12,-7.06 -6.8,-13.84 c -0.05,-0.11 -0.02,-0.24 0.08,-0.31 0.1,-0.07 0.23,-0.07 0.32,0.02 l 7.65,7.1 4.3,-13.3 c 0.04,-0.12 0.15,-0.19 0.28,-0.17 0.12,0.02 0.21,0.12 0.21,0.25 l -0.22,26.81 8.56,22.93 c 0.05,0.13 -0.02,0.27 -0.15,0.32 -0.13,0.05 -0.27,-0.02 -0.32,-0.15 L 84.5,51.93 C 84.49,51.9 84.48,51.87 84.48,51.84 l 0.21,-25.22 -3.92,12.12 c -0.03,0.08 -0.09,0.14 -0.17,0.16 -0.08,0.02 -0.17,0 -0.23,-0.06 l -6.95,-6.45 6.23,12.67 c 0.02,0.03 0.02,0.07 0.03,0.11 l 0.13,7.08 5.4,17.34 c 0.03,0.11 -0.01,0.23 -0.11,0.29 -0.1,0.06 -0.23,0.04 -0.31,-0.04 L 80.1,65.14 67.3,60.65 C 67.27,60.64 67.24,60.62 67.21,60.59 L 49.37,43.57 C 49.33,43.53 49.31,43.49 49.3,43.44 L 47.25,33.08 c -0.03,-0.13 0.05,-0.25 0.18,-0.29 l 12.55,-3.61 8.13,-13.35 -14.03,9.74 c -0.07,0.05 -0.16,0.06 -0.24,0.02 -0.08,-0.03 -0.14,-0.11 -0.15,-0.19 l -0.75,-4.74 -7.35,10.78 c -0.06,0.08 -0.16,0.12 -0.26,0.1 -0.1,-0.02 -0.18,-0.1 -0.19,-0.2 L 42.59,17.17 c -0.01,-0.03 0,-0.07 0,-0.1 l 3.37,-14.67 -8.78,8.58 0.38,10.1 c 0,0.1 -0.05,0.19 -0.14,0.23 -0.09,0.04 -0.19,0.03 -0.27,-0.03 l -3.5,-2.93 -0.34,5.64 2.89,2.75 c 0.03,0.03 0.06,0.07 0.07,0.11 l 4.22,14.64 10.49,11.1 c 0.07,0.08 0.09,0.19 0.04,0.29 -0.05,0.09 -0.15,0.15 -0.25,0.13 l -6.18,-0.77 4.86,3.33 4.94,-0.21 c 0.08,0 0.15,0.03 0.19,0.08 l 7.94,8.65 11.9,3.99 c 0.03,0.01 0.06,0.03 0.08,0.05 l 12.21,10.41 c 0.1,0.09 0.12,0.25 0.03,0.35 C 86.69,78.97 86.62,79 86.55,79 Z"
   id="path41" />
		</g>
	</g>
</g></g><path
       style="fill:#000000;stroke-width:0.264583"
       d="m 86.293387,277.7328 -16.626146,-8.79612 -12.84813,-27.9602 33.857927,-31.78146 z"
       id="piece_2" /><path
       style="fill:#000000;stroke-width:0.264583"
       d="m 57.121927,239.69312 10.281391,-33.67048 15.357194,-6.1573 -0.648896,-12.86255 2.8263,-2.84072 5.796802,24.19659 z"
       id="piece_1" /><path
       style="fill:#000000;stroke-width:0.264583"
       d="m 94.84439,288.44679 -8.219345,-9.7767 4.830667,-70.31143 -5.940999,-24.91759 -0.778674,-27.06615 15.486971,29.90687 7.78675,0.18746 z"
       id="piece_3" /><path
       style="fill:#000000;stroke-width:0.264583"
       d="m 111.75893,281.52018 -16.236805,7.51276 13.208625,-102.29477 h 5.01813 l 0.39379,-0.28605 -0.0621,-4.0976 4.51343,-7.80116 9.89204,71.53713 z"
       id="piece_4" /><path
       style="fill:#000000;stroke-width:0.264583"
       d="M 125.9337,160.16735 Z"
       id="path46" /><path
       style="fill:#000000;stroke-width:0.264583"
       d="m 127.09264,159.70919 4.36388,26.18327 -0.98056,26.02792 8.11841,26.72007 -9.48367,6.61579 -9.95436,-72.11097 z"
       id="piece_5" /><path
       style="fill:#000000;stroke-width:0.264583"
       d="m 113.46048,279.29014 15.68885,-33.15134 9.3441,-6.74851 -2.4658,18.22675 -12.61742,10.05067 z"
       id="piece_6" /><path
       style="fill:#000000;stroke-width:0.264583"
       d="m 80.07841,139.46038 16.972224,0.0144 3.230056,30.85858 -0.12413,14.23483 -14.512068,-28.03467 -0.951712,-1.81691 -4.45575,-15.51581 z"
       id="piece_7" /><path
       style="fill:#000000;stroke-width:0.264583"
       d="m 100.72771,170.37664 12.81929,-0.15862 -0.15862,15.53024 h -12.48763 z"
       id="piece_15" /><path
       style="fill:#000000;stroke-width:0.264583"
       d="M 114.09496,180.63046 125.9337,160.16735 113.99402,170.2036 Z"
       id="piece_11" /><path
       style="fill:#000000;stroke-width:0.264583"
       d="m 117.00057,139.10709 -2.99935,29.77779 12.90582,-10.67142 3.83569,-18.86123 -14.10266,0.0577 z"
       id="piece_10" /><path
       style="fill:#000000;stroke-width:0.264583"
       d="m 113.38838,169.92963 3.1147,-30.59903 -10.31023,-12.58858 -8.781719,12.37228 3.114699,30.59903 z"
       id="piece_8" /><path
       style="fill:#000000;stroke-width:0.264583"
       d="m 130.73552,139.05662 -1.86017,-13.26631 -4.47017,-6.38802 -9.67575,-5.32094 -17.981614,-0.0144 -10.497688,5.63818 -2.99934,6.43128 -3.345416,12.64625 17.145262,-0.0288 9.124446,-13.32324 10.78944,13.32324 z"
       id="piece_14" /><path
       style="fill:#000000;stroke-width:0.264583"
       d="m 79.516035,139.0422 -12.502054,-1.65829 -10.021832,-5.96984 -7.541607,-20.6493 21.817309,5.32095 11.305201,9.80553 z"
       id="piece_12" /><path
       style="fill:#000000;stroke-width:0.264583"
       d="m 129.48099,125.47307 11.07449,-9.40177 21.8173,-5.32095 -7.5416,20.6493 -9.94974,5.96984 -13.43934,1.67271 z"
       id="piece_13" /><path
       style="fill:#000000;stroke-width:0.264583"
       d="m 86.480847,119.04179 -17.722058,-15.08321 -8.963856,-10.256878 17.154358,6.017427 7.209951,6.835031 -6.950418,-23.295125 13.97291,18.608655 5.119065,-4.845083 -0.490278,6.503373 -2.336022,4.12409 2.321602,5.73912 z"
       id="piece_16" /><path
       style="fill:#000000;stroke-width:0.264583"
       d="M 67.561882,103.55726 58.30436,93.172493 41.779155,77.007785 l 2.263923,-4.340389 -3.547295,-7.729069 -1.528508,8.954759 -0.706578,-0.129778 -5.450721,-5.046966 -12.068175,-2.275787 14.21674,15.181598 -0.302818,0.605636 -8.911499,-1.110332 7.008073,4.801828 7.397408,-0.18746 11.449402,12.473215 z"
       id="piece_17" /><path
       style="fill:#000000;stroke-width:0.264583"
       d="m 19.016457,65.281701 -9.3504223,-3.270613 -5.5805014,-9.228735 9.3296757,6.604315 0.490277,-0.0721 2.86956,-3.648234 L 13.746867,44.505329 9.4785761,40.381237 9.9688527,32.248414 15.405155,36.516704 15.059078,21.620946 27.71975,9.2486714 23.046144,29.593421 l -0.1859,0.809244 c 0,0 3.677075,20.577198 3.677075,20.577198 l 0.273979,0.288399 10.973543,-15.688853 1.081492,6.835034 0.634477,0.187458 20.159021,-13.987304 -11.72338,19.25057 -17.008768,4.926722 -1.290085,1.533392 2.807975,13.645692 -12.570248,-2.427009 z"
       id="piece_18" /><path
       style="fill:#000000;stroke-width:0.264583"
       d="M 90.23924,99.398766 76.531114,81.131877 76.343657,70.922588 67.316799,52.493954 l 10.021829,9.300835 6.229398,-17.621118 -0.115359,16.582885 6.11404,-3.100277 -2.941662,8.72404 -3.186797,3.129119 -0.158277,9.258403 0.331314,2.162157 z"
       id="piece_19" /><path
       style="fill:#000000;stroke-width:0.264583"
       d="m 115.20529,113.87947 2.1053,-6.20056 -2.35044,-4.15293 -0.49028,-6.503373 4.57111,4.888343 1.59707,-2.639568 6.89625,-18.543262 -0.23071,-10.699567 -3.1868,-3.633814 -2.94166,-8.72404 5.62376,3.230057 0.60161,0.156737 -0.14017,-16.840562 5.59492,17.21736 0.63447,0.374918 10.02183,-9.271995 -8.98359,18.284433 -0.23072,10.367909 -7.78675,25.004114 0.15862,0.41817 7.20995,-6.835032 17.10253,-6.021448 -8.99854,10.24648 -17.39041,14.69388 z"
       id="piece_20" /><path
       style="fill:#000000;stroke-width:0.264583"
       d="m 143.29712,103.56124 9.03941,-10.258966 16.69185,-15.941839 -2.32962,-4.664199 3.54729,-7.729067 1.52851,8.954757 0.84579,-1.8e-4 c 0,0 5.52781,-5.291923 5.52781,-5.291923 l 12.17661,-2.250506 -14.54148,15.286095 -0.0577,0.418179 0.3605,0.187458 8.9115,-1.110332 -7.00807,4.801827 -7.12344,-0.302818 -0.27397,0.115359 -11.4494,12.473214 z"
       id="piece_21" /><path
       style="fill:#000000;stroke-width:0.264583"
       d="m 190.86651,65.543964 -12.53812,2.366467 2.79027,-13.58515 -0.17304,-1.240112 -18.09698,-5.205582 -11.72338,-19.25057 20.23112,14.044985 0.38731,0.508228 1.25656,-7.588401 10.59863,15.544654 0.37492,0.144198 3.48181,-18.113933 z"
       id="piece_9" /><path
       style="fill:#000000;stroke-width:0.264583"
       d="m 191.44051,63.818081 -3.51566,-33.400994 -4.85951,-21.1539958 12.66068,12.3722748 -0.54796,14.5641 0.20188,0.331658 5.4363,-4.26829 0.44702,8.161662 -4.26829,4.124092 -3.0426,11.103325 2.86956,3.648233 0.49027,0.0721 9.32968,-6.604312 -5.5805,9.228735 -9.53156,3.590555 -0.17113,-2.110528 z"
       id="piece_22" /><path
       style="fill:#000000;stroke-width:0.264583"
       d="m 94.982998,289.70436 -8.65194,-11.14658 -17.3183,-9.24314 -13.00675,-28.30627 10.71399,-35.40086 15.25625,-5.99868 -0.63447,-12.74719 3.4031,-3.57614 -0.80752,-28.4793 -4.41249,-15.50139 -12.86255,-1.28337 -10.36791,-6.25824 -7.75791,-21.71637 0.37492,-0.15862 22.55273,5.49398 11.63686,10.32465 2.78304,-6.56105 -17.4625,-14.52085 -17.33272,-5.868901 -11.40614,-12.429949 -7.29647,0.230717 -8.33471,-5.71028 -0.12978,-0.418176 0.38934,-0.23072 9.38736,1.168014 -14.36223,-15.227416 -10.0650903,-3.518456 -6.73409,-10.973546 0.0577,-0.447016 0.44702,-0.02884 10.4688403,7.411828 2.55233,-3.237267 -3.0426,-10.548157 -4.2250303,-4.008734 -0.11536,-0.288398 0.54795,-9.012436 0.2163,-0.302818 5.3497903,4.22503 -0.51912,-13.915204 13.771,-13.6123862 0.4326,-0.05768 0.17304,0.389337 -5.16232,22.3220062 3.54729,19.452447 10.62747,-15.573494 0.37492,-0.144198 1.41315,7.469508 21.15399,-14.693879 0.44702,0.02884 0.0577,0.447017 -12.67509,20.822337 -18.12582,5.306523 2.86956,14.492002 5.14827,4.913214 1.60024,-9.426643 0.30282,-0.302819 0.37492,0.201878 4.10967,8.954759 -0.0144,0.317238 -2.19468,4.269166 16.28292,15.601457 18.3998,6.402432 5.92658,5.883323 -7.38299,-23.763996 -0.17304,-10.180449 -9.80553,-19.957143 0.11536,-0.447019 0.46143,0.02884 11.03123,10.238128 6.20055,-19.178468 0.40376,-0.245139 0.30282,0.360498 -0.14954,18.223015 5.85982,-3.500297 0.40376,0.02884 0.11536,0.389337 -3.35984,9.848792 -3.07766,3.009569 -0.10914,10.660496 7.65104,20.495146 4.82217,-5.210053 0.40376,-0.0865 0.2163,0.3605 -0.62006,7.743493 -2.28962,4.03806 2.09301,5.54518 18.342642,-0.0374 2.0216,-5.39226 -2.38789,-4.29776 -0.57679,-7.599293 0.2163,-0.3605 0.40375,0.0865 4.93424,5.285723 7.61108,-20.527556 -0.0288,-10.512108 -3.34542,-3.330998 -3.27332,-9.704591 0.11536,-0.389337 0.40376,-0.02884 5.98653,3.441919 -0.17531,-18.135798 0.30282,-0.360498 0.40376,0.24514 6.20055,19.149628 11.03123,-10.209289 0.46143,-0.02884 0.11536,0.447017 -9.80553,19.957142 -0.18746,10.281391 -7.36857,23.663058 5.92658,-5.883323 18.31328,-6.445695 0.1442,-0.02884 16.18595,-15.46742 -2.25633,-4.345525 -0.0144,-0.317238 4.10967,-8.954756 0.37492,-0.20188 0.30282,0.302818 1.62496,9.572226 5.22449,-5.044377 2.86956,-14.492001 -17.92393,-5.147903 -0.20188,-0.15862 -12.6751,-20.822338 0.0577,-0.447016 0.44702,-0.02884 21.154,14.693879 1.13917,-7.166689 0.27398,-0.302819 0.37491,0.144198 10.61305,15.573494 3.4811,-19.301642 -0.0289,-0.417568 -5.12491,-22.0985022 0.17304,-0.389337 0.4326,0.05768 13.65564,13.3384082 0.11536,0.273978 -0.51911,13.915204 4.97486,-4.167351 c 0,0 0.37492,-0.05768 0.37492,-0.05768 l 0.2163,0.302818 0.54795,9.012436 -0.11535,0.288398 -4.22504,4.008734 -3.04259,10.548157 2.50906,3.222847 10.46885,-7.411828 0.44701,0.02884 0.0577,0.447017 -6.54663,10.814925 -0.18746,0.158621 -9.87763,3.431936 -14.492,15.328355 8.13257,-1.011888 1.25478,-0.156126 0.38934,0.23072 -0.12978,0.418176 -8.3347,5.71028 -0.2163,0.05768 -7.08017,-0.288399 -11.40615,12.429954 -0.14419,0.10094 -17.18852,5.767962 -17.43444,14.48597 4.32169,5.88932 10.94976,-9.54594 22.71134,-5.56608 0.3605,0.11536 0.0721,0.3605 -7.81559,21.39913 -0.15861,0.18746 -10.12277,6.07078 -0.1442,0.0577 -13.66589,1.35388 -3.75335,19.10796 4.54227,27.26804 -0.96614,26.04234 8.10399,26.61913 -2.71095,19.58223 -12.67509,10.09392 -11.65128,13.61239 z"
       id="outline" /></g><style
     type="text/css"
     id="style1">
	.st0{fill:#FFFFFF;}
	.st1{fill:#8F9399;}
	.st2{fill:#BEC6A8;}
	.st3{fill:#889B64;}
	.st4{fill:#E4E6D9;}
</style></svg>
